SplineFontDB: 3.0
FontName: LinBiolinumSlantedOB
FullName: Linux Biolinum Slanted O Bold
FamilyName: Linux Biolinum Slanted O
Weight: Bold
Copyright: Linux Libertine by Philipp H. Poll,\nOpen Font under Terms of following Free Software Licenses:\nGPL (General Public License) with font-exception and OFL (Open Font License).\nCreated with FontForge (http://fontforge.sf.net)\nSept 2003, 2004, 2005, 2006, 2007, 2008, 2009, 2010
UComments: "2003-08-29: Created.+AAoA-2004-07-25: v(1.0) release candidate+AAoA-2005-12-28: v(1.1.0) stable+AAoA-2006-01-01: v(2.0.0) stable+AAoA-2006-09-05: v(2.2.0) stable+AAoA-2006-12-04: v(2.3.0) stable+AAoA-2007-03-11: v(2.4.0) stable+AAoA-2007-12-00: v(2.7.0) stable+AAoA-2008-06-00: v(2.8.14) stable+AAoA" 
Version: 0.7.1
ItalicAngle: 0
UnderlinePosition: -98
UnderlineWidth: 40
Ascent: 754
Descent: 246
LayerCount: 2
Layer: 0 0 "Back"  1
Layer: 1 0 "Fore"  0
NeedsXUIDChange: 1
XUID: [1021 993 1524925707 2876416]
FSType: 0
OS2Version: 0
OS2_WeightWidthSlopeOnly: 0
OS2_UseTypoMetrics: 0
CreationTime: 1156455862
ModificationTime: 1286125609
PfmFamily: 33
TTFWeight: 700
TTFWidth: 5
LineGap: 0
VLineGap: 0
OS2TypoAscent: 894
OS2TypoAOffset: 0
OS2TypoDescent: -246
OS2TypoDOffset: 0
OS2TypoLinegap: 0
OS2WinAscent: 894
OS2WinAOffset: 0
OS2WinDescent: 246
OS2WinDOffset: 0
HheadAscent: 894
HheadAOffset: 0
HheadDescent: -246
HheadDOffset: 0
OS2FamilyClass: 2050
OS2Vendor: 'PfEd'
Lookup: 3 0 0 "'aalt' Alle Alternativen zeigen"  {"'aalt' Alle Alternativen zeigen 1"  } ['aalt' ('DFLT' <'dflt' > 'cyrl' <'dflt' > 'grek' <'dflt' > 'latn' <'AZE ' 'CRT ' 'DEU ' 'MOL ' 'ROM ' 'TRK ' 'dflt' > ) ]
Lookup: 1 0 0 "'locl' Localized Forms Romaenisch"  {"'locl' Localized Forms Romaenisch 1"  } ['locl' ('latn' <'MOL ' 'ROM ' > ) ]
Lookup: 1 0 0 "'smcp' Gemeine nach Kapitaelchen i > i.sc"  {"'smcp' Gemeine nach Kapitaelchen i > i.sc 1"  } ['smcp' ('DFLT' <'dflt' > 'cyrl' <'dflt' > 'grek' <'dflt' > 'latn' <'DEU ' 'MOL ' 'ROM ' 'dflt' > ) ]

StartChar: exclam
Encoding: 33 33 0
Width: 270
VWidth: 999
Flags: HW
HStem: -20 141<93.5841 174.231> 638 20G<120 147>
VStem: 62 142<7.33871 89.5176> 63 141<439.802 636.71>
LayerCount: 2
Fore
SplineSet
271.862 658 m 0
 301.862 658 338.974 635 328.346 585 c 0
 314.529 520 287.702 478 258.322 392 c 0
 221.466 284 207.612 224 202.637 210 c 0
 199.299 199 183.386 190 172.386 190 c 0
 160.386 190 149.874 197 150.149 203 c 0
 152.612 224 165.643 314 173.322 392 c 0
 181.927 480 172.467 515 187.346 585 c 0
 198.823 639 247.862 658 271.862 658 c 0
72.2031 48 m 1
 73.2656 53 l 1
 93.2803 86 115.531 106 156.72 121 c 1
 160.72 121 l 1
 194.956 108 209.918 89 215.266 53 c 1
 214.203 48 l 1
 191.488 7 168.662 -11 130.749 -20 c 1
 126.749 -20 l 1
 87.6621 -11 74.2754 6 72.2031 48 c 1
EndSplineSet
Colour: ff80cc
EndChar

StartChar: quotedbl
Encoding: 34 34 1
Width: 375
VWidth: 999
Flags: HW
HStem: 421 223<94 126 108 126> 422 223<237 269 251 269>
LayerCount: 2
Fore
SplineSet
340.699 422 m 1
 326.549 426 l 1
 326.549 426 328.559 586 329.834 592 c 0
 334.723 615 363.312 646 406.312 646 c 0
 448.312 646 447.273 627 443.447 609 c 0
 440.259 594 367.975 428 367.975 428 c 1
 340.699 422 l 1
197.486 421 m 1
 183.337 425 l 1
 183.337 425 185.346 585 186.621 591 c 0
 191.51 614 220.099 645 263.099 645 c 0
 305.099 645 304.061 626 300.234 608 c 0
 297.046 593 224.762 427 224.762 427 c 1
 197.486 421 l 1
EndSplineSet
Colour: ff00ff
EndChar

StartChar: numbersign
Encoding: 35 35 2
Width: 478
Flags: HW
HStem: 181 56<32 117 187 260 326 420> 337 57<57 142 211 284 351 444>
DStem2: 91 13 151 13 0.158553 0.987351<9.51316 169.997 236.388 327.988 395.207 554.862> 233 13 291 13 0.155037 0.987909<8.99213 170.155 235.71 327.989 394.688 554.707>
LayerCount: 2
Fore
SplineSet
318.376 237 m 1
 355.632 337 l 1
 275.632 337 l 1
 262.192 302 250.815 272 237.376 237 c 1
 318.376 237 l 1
413.632 337 m 1
 376.376 237 l 1
 478.376 237 l 1
 458.473 181 l 1
 356.473 181 l 1
 335.569 125 314.241 67 293.764 13 c 1
 235.764 13 l 1
 298.473 181 l 1
 217.473 181 l 1
 195.569 125 175.241 67 153.764 13 c 1
 93.7637 13 l 1
 155.473 181 l 1
 62.4727 181 l 1
 82.376 237 l 1
 176.376 237 l 1
 189.815 272 201.192 302 213.632 337 c 1
 119.632 337 l 1
 140.747 394 l 1
 234.747 394 l 1
 255.226 448 276.767 507 297.244 561 c 1
 358.244 561 l 1
 294.747 394 l 1
 376.747 394 l 1
 397.226 448 417.767 507 438.244 561 c 1
 496.244 561 l 1
 434.747 394 l 1
 535.747 394 l 1
 515.632 337 l 1
 413.632 337 l 1
EndSplineSet
EndChar

StartChar: dollar
Encoding: 36 36 3
Width: 500
VWidth: 999
Flags: HW
HStem: -10 47<136.956 306.906> 528 44<177.316 332.971>
VStem: 47 104<386.624 491.591> 224 44<-81 627> 338 112<87.6685 202.152>
LayerCount: 2
Fore
SplineSet
231.907 37.2002 m 1
 278.074 254.4 l 1
 207.307 285.6 117.653 332.4 136.699 422 c 0
 156.127 513.4 258.629 561.4 345.242 570.4 c 1
 357.273 627 l 1
 401.273 627 l 1
 389.519 571.7 l 1
 484.996 568.3 527.293 533 527.293 533 c 2
 528.655 530 l 1
 515.129 504 499.351 458 489.762 427 c 1
 480.549 426 l 1
 469.604 473.3 431.5 516.1 379.783 525.9 c 1
 338.016 329.4 l 1
 405.805 303 504.946 258.5 484.435 162 c 0
 465.262 71.7998 367.771 8.7998 266.64 -6.40039 c 1
 250.783 -81 l 1
 206.783 -81 l 1
 221.874 -10 l 2
 221.175 -10 220.574 -10 219.874 -10 c 0
 121.874 -10 50.377 30 50.377 30 c 1
 49.0146 33 l 1
 61.541 59 78.7432 107 89.333 138 c 1
 97.5449 139 l 1
 110.55 86.7998 175.266 40.2998 231.907 37.2002 c 1
297.778 347.1 m 1
 335.911 526.5 l 1
 289.608 519.9 255.408 491.2 245.588 445 c 0
 234.301 391.9 266.428 363.8 297.778 347.1 c 1
318.291 236.6 m 1
 276.715 41 l 1
 320.677 50.7002 354.707 78.5996 365.845 131 c 0
 379.746 196.4 355.665 218.6 318.291 236.6 c 1
EndSplineSet
EndChar

StartChar: percent
Encoding: 37 37 4
Width: 637
VWidth: 999
Flags: HW
HStem: -19 33<453.996 514.769> 214 36<488.444 553.487> 297 33<132.028 189.396> 474 45<280.914 457.718> 529 36<164.255 232.725>
VStem: 53 69<335.932 482.725> 240 43<388.136 494.674> 375 68<21.6638 161.631> 562 42<68.5516 208.803>
DStem2: 96 -4 150 -16 0.588938 0.808178<22.1045 620.449 651.051 709.262>
LayerCount: 2
Fore
SplineSet
459.367 77 m 0
 451.077 38 460.976 14 479.976 14 c 0
 531.976 14 583.681 102 595.371 157 c 0
 606.424 209 582.487 214 568.487 214 c 0
 525.487 214 471.482 134 459.367 77 c 0
394.343 91 m 0
 411.348 171 476.139 250 565.139 250 c 0
 613.139 250 653.101 231 637.797 159 c 0
 616.754 60 545.961 -19 466.961 -19 c 0
 404.961 -19 380.526 26 394.343 91 c 0
474.316 519 m 0
 516.316 519 584.592 525 634.944 569 c 1
 677.481 548 l 1
 146.599 -16 l 1
 95.1494 -4 l 1
 567.641 497 l 1
 525.239 481 484.752 474 454.752 474 c 0
 431.752 474 401.877 484 385.216 495 c 1
 385.515 487 385.452 482 383.752 474 c 0
 365.897 390 294.129 297 207.129 297 c 0
 145.129 297 125.057 339 139.298 406 c 0
 157.365 491 228.095 565 310.095 565 c 0
 338.095 565 365.182 556 372.631 544 c 1
 421.316 519 456.316 519 474.316 519 c 0
205.322 392 m 0
 197.032 353 207.144 330 225.144 330 c 0
 271.144 330 328.211 415 340.539 473 c 0
 350.954 522 331.442 529 313.442 529 c 0
 264.442 529 217.65 450 205.322 392 c 0
EndSplineSet
EndChar

StartChar: parenleft
Encoding: 40 40 5
Width: 338
VWidth: 999
Flags: HW
VStem: 44 121<118.713 387.221>
LayerCount: 2
Fore
SplineSet
97.5645 252 m 0
 133.699 422 284.597 605 425.277 707 c 1
 451.326 679 l 1
 411.674 643 285.104 518 229.202 255 c 0
 173.3 -8 244.455 -139 269.378 -177 c 1
 231.639 -204 l 1
 93.498 -40 69.0605 117.9 97.5645 252 c 0
EndSplineSet
Substitution2: "'c2sc' Versale nach Kapitaelchen 1" parenleft.sc
AlternateSubs2: "'aalt' Alle Alternativen zeigen 1" parenleft.sc
Substitution2: "'sinf' Wissenschaftliche Indices 1" parenleft.inferior
Substitution2: "'sups' Hochgestellte 1" parenleft.superior
Substitution2: "'case' Versalformen 1" parenleft.sc
EndChar

StartChar: parenright
Encoding: 41 41 6
Width: 338
VWidth: 999
Flags: HW
VStem: 173 121<116.779 385.287>
LayerCount: 2
Fore
SplineSet
347.564 252 m 0
 311.43 82 160.532 -101 19.8506 -203 c 1
 -6.19727 -175 l 1
 33.4551 -139 160.024 -14 215.927 249 c 0
 271.829 512 200.674 643 175.751 681 c 1
 213.49 708 l 1
 351.631 544 376.068 386.1 347.564 252 c 0
EndSplineSet
Substitution2: "'c2sc' Versale nach Kapitaelchen 1" parenright.sc
AlternateSubs2: "'aalt' Alle Alternativen zeigen 1" parenright.sc
Substitution2: "'sinf' Wissenschaftliche Indices 1" parenright.inferior
Substitution2: "'sups' Hochgestellte 1" parenright.superior
Substitution2: "'case' Versalformen 1" parenright.sc
Colour: ff00ff
EndChar

StartChar: asterisk
Encoding: 42 42 7
Width: 433
VWidth: 999
Flags: HMW
HStem: 571 69<91 156 274 348>
VStem: 173 78<622 713>
LayerCount: 2
Fore
SplineSet
317.307 566 m 1
 304.732 568 292.795 573 277.37 571 c 0
 230.669 563 194.669 563 204.234 608 c 0
 207.21 622 220.036 640 244.036 640 c 0
 278.036 640 288.021 607 327.983 588 c 1
 332.485 628 311.8 653 317.326 679 c 0
 321.79 700 345.615 718 363.615 718 c 0
 381.615 718 401.277 707 396.176 683 c 0
 390.438 656 359.36 618 350.983 588 c 1
 400.021 607 418.461 642 451.461 642 c 0
 482.461 642 485.36 618 483.234 608 c 0
 476.857 578 440.732 568 405.732 568 c 0
 386.732 568 369.732 568 351.095 565 c 1
 377.442 529 428.867 531 418.027 480 c 0
 414.201 462 393.863 451 379.863 451 c 0
 330.863 451 347.041 513 330.331 552 c 1
 295.767 507 297.863 451 238.863 451 c 0
 221.863 451 212.626 464 215.814 479 c 0
 227.293 533 276.229 528 317.307 566 c 1
EndSplineSet
EndChar

StartChar: plus
Encoding: 43 43 8
Width: 520
Flags: HW
HStem: 202 60<60 230 290 460> 413 20G<230 290>
VStem: 230 60<32 202 262 433>
LayerCount: 2
Fore
SplineSet
345.689 262 m 1
 515.689 262 l 1
 502.937 202 l 1
 332.937 202 l 1
 296.802 32 l 1
 236.802 32 l 1
 272.937 202 l 1
 102.937 202 l 1
 115.689 262 l 1
 285.689 262 l 1
 322.037 433 l 1
 382.037 433 l 1
 345.689 262 l 1
EndSplineSet
AlternateSubs2: "'aalt' Alle Alternativen zeigen 1" plus.superior plus.inferior uni2098
Substitution2: "'sinf' Wissenschaftliche Indices 1" plus.inferior
Substitution2: "'sups' Hochgestellte 1" plus.superior
EndChar

StartChar: slash
Encoding: 47 47 9
Width: 342
VWidth: 999
Flags: HW
HStem: 626 20G<245.277 312>
VStem: 15 297
DStem2: 15 -59 75 -59 0.318647 0.947874<19.1188 743.77>
LayerCount: 2
Fore
SplineSet
449.312 646 m 1
 62.459 -59 l 1
 2.45898 -59 l 1
 389.312 646 l 1
 449.312 646 l 1
EndSplineSet
Ligature2: "'frac' Brueche 1" uni2215
AlternateSubs2: "'aalt' Alle Alternativen zeigen 1" uni2215
EndChar

StartChar: one
Encoding: 49 49 10
Width: 545
VWidth: 999
Flags: HW
HStem: -3 21G<230 309 309 391> 492 43<114 198.337>
VStem: 241 138<2.80532 495.947>
LayerCount: 2
Fore
SplineSet
419.173 189 m 2
 402.381 110 394.753 60 391 0 c 1
 388.362 -3 l 1
 388.362 -3 345 0 309 0 c 0
 272 0 230.362 -3 230.362 -3 c 1
 230 0 l 1
 250.903 56 264.594 111 281.173 189 c 2
 333.037 433 l 2
 340.689 469 345.854 498 328.854 498 c 0
 308.854 498 263.854 498 218.578 492 c 1
 225.718 535 l 1
 323.182 556 443.195 589 512.659 610 c 1
 516.659 610 519.659 610 518.597 605 c 0
 513.621 591 495.906 550 472.95 442 c 2
 419.173 189 l 2
EndSplineSet
AlternateSubs2: "'aalt' Alle Alternativen zeigen 1" one.oldstyle one.superior one.fitted
Substitution2: "'sups' Hochgestellte 1" one.superior
Substitution2: "'sinf' Wissenschaftliche Indices 1" one.inferior
Substitution2: "'pnum' Proportionalziffern 1" one.fitted
Substitution2: "'onum' Minuskelziffern 1" one.taboldstyle
EndChar

StartChar: two
Encoding: 50 50 11
Width: 545
VWidth: 487
Flags: HW
HStem: 0 100<224 484.031> 471 21G<76 136.5> 556 54<176.493 294.327>
VStem: 332 155<369.954 519.357>
DStem2: 196 205 291 186 0.717792 0.696258<-48.891 194.945>
LayerCount: 2
Fore
SplineSet
364.182 556 m 0
 315.182 556 265.655 530 220.114 471 c 1
 176.327 472 l 1
 172.119 551 l 1
 175.969 555 l 1
 205.646 577 311.659 610 383.659 610 c 0
 502.659 610 606.244 561 583.288 453 c 0
 567.134 377 519.766 338.1 451.153 283 c 2
 330.535 186 l 2
 305.441 165.8 248.656 116 245.256 100 c 1
 327.256 100 l 2
 427.256 100 456.318 105 515.169 109 c 1
 509.405 96 497.903 56 495.14 43 c 0
 492.377 30 490.913 9 491.149 -4 c 1
 416.787 -1 393 0 318 0 c 0
 242 0 159.575 -2 58.1494 -4 c 1
 58 0 l 1
 70.541 59 120.318 105 239.574 205 c 1
 329.091 278 l 1
 400.844 338 414.897 390 428.501 454 c 0
 441.679 516 400.182 556 364.182 556 c 0
EndSplineSet
AlternateSubs2: "'aalt' Alle Alternativen zeigen 1" two.oldstyle two.superior two.fitted
Substitution2: "'sups' Hochgestellte 1" two.superior
Substitution2: "'sinf' Wissenschaftliche Indices 1" two.inferior
Substitution2: "'pnum' Proportionalziffern 1" two.fitted
Substitution2: "'onum' Minuskelziffern 1" two.taboldstyle
EndChar

StartChar: three
Encoding: 51 51 12
Width: 545
VWidth: 487
Flags: HW
HStem: -11 52<158.987 296.329> 292 46<193 231.572> 470 21G<89 149.5> 558 52<183.175 303.468>
VStem: 331 137<397.081 531.974> 342 155<91.3255 257.966>
LayerCount: 2
Fore
SplineSet
241.715 41 m 0
 276.715 41 354.966 61 379.622 177 c 0
 399.815 272 351.491 294 294.491 294 c 0
 285.491 294 267.491 294 255.066 292 c 1
 264.844 338 l 1
 362.907 343 412.409 383 430.052 466 c 0
 441.316 519 416.606 558 377.606 558 c 0
 306.606 558 278.442 529 232.901 470 c 1
 189.114 471 l 1
 184.906 550 l 1
 188.756 554 l 1
 218.433 576 309.659 610 397.659 610 c 0
 519.659 610 590.433 576 570.452 482 c 0
 552.598 398 495.97 348 418.931 329 c 1
 418.293 326 l 1
 490.806 319 555.666 276 535.26 180 c 0
 505.715 41 372.262 -11 228.662 -11 c 0
 135.262 -11 79.8887 23 59.5654 45 c 1
 56.6279 50 l 1
 95.4199 129 l 1
 139.633 130 l 1
 160.092 71 166.715 41 241.715 41 c 0
EndSplineSet
AlternateSubs2: "'aalt' Alle Alternativen zeigen 1" three.oldstyle three.superior three.fitted
Substitution2: "'sups' Hochgestellte 1" three.superior
Substitution2: "'sinf' Wissenschaftliche Indices 1" three.inferior
Substitution2: "'pnum' Proportionalziffern 1" three.fitted
Substitution2: "'onum' Minuskelziffern 1" three.taboldstyle
EndChar

StartChar: four
Encoding: 52 52 13
Width: 545
VWidth: 487
Flags: HW
HStem: -3 21G<289 379 379 448> 148 65<119 301 438 517.133>
VStem: 301 137<2.77633 148 213 500.172>
LayerCount: 2
Fore
SplineSet
332.458 148 m 1
 108.458 148 l 2
 72.458 148 54.0332 146 55.2217 161 c 0
 55.4346 162 52.9766 182.9 75.999 207 c 0
 154.429 289 343.404 510 416.746 601 c 1
 418.384 604 l 1
 418.384 604 469.746 601 506.746 601 c 0
 542.746 601 574.384 604 574.384 604 c 1
 575.746 601 l 1
 554.993 541 550.867 531 534.075 452 c 2
 483.274 213 l 1
 555.274 213 l 2
 566.274 213 566.937 202 565.023 193 c 0
 562.473 181 541.458 148 527.458 148 c 2
 469.458 148 l 1
 452.879 70 452.753 60 448 0 c 1
 445.362 -3 l 1
 445.362 -3 415 0 379 0 c 0
 342 0 289.362 -3 289.362 -3 c 1
 289 0 l 1
 309.115 57 316.092 71 332.458 148 c 1
407.491 501 m 1
 164.274 213 l 1
 346.274 213 l 1
 407.491 501 l 1
EndSplineSet
AlternateSubs2: "'aalt' Alle Alternativen zeigen 1" four.oldstyle four.superior four.fitted
Substitution2: "'sups' Hochgestellte 1" four.superior
Substitution2: "'sinf' Wissenschaftliche Indices 1" four.inferior
Substitution2: "'pnum' Proportionalziffern 1" four.fitted
Substitution2: "'onum' Minuskelziffern 1" four.taboldstyle
EndChar

StartChar: five
Encoding: 53 53 14
Width: 545
VWidth: 487
Flags: HW
HStem: -11 50<155.413 277.023> 321 59<158.042 279.899> 502 97<171.595 412.469> 508 102<171.479 235.263 239.5 285.851 289.424 413>
VStem: 319 122<99.4002 276.695>
DStem2: 92 304 157 364 0.108982 0.994044<66.7264 213.492>
LayerCount: 2
Fore
SplineSet
259.662 -11 m 0
 183.662 -11 89.8887 23 69.5654 45 c 1
 67.6279 50 l 1
 105.42 129 l 1
 149.633 130 l 1
 170.092 71 193.29 39 252.29 39 c 0
 297.29 39 356.005 80 376.835 178 c 0
 395.753 267 372.23 321 311.23 321 c 0
 262.23 321 241.743 314 197.129 297 c 1
 156.617 304 l 1
 253.597 605 l 1
 287.959 602 347.321 599 384.321 599 c 0
 437.321 599 533.384 604 591.659 610 c 1
 597.021 607 l 1
 560.979 508 l 1
 519.129 504 444.703 502 414.703 502 c 0
 368.703 502 333.554 506 300.404 510 c 1
 254.37 364 l 1
 278.071 372 328.771 380 369.771 380 c 0
 481.771 380 543.279 293 522.661 196 c 0
 495.028 66 379.662 -11 259.662 -11 c 0
EndSplineSet
AlternateSubs2: "'aalt' Alle Alternativen zeigen 1" five.oldstyle five.superior five.fitted
Substitution2: "'sups' Hochgestellte 1" five.superior
Substitution2: "'sinf' Wissenschaftliche Indices 1" five.inferior
Substitution2: "'pnum' Proportionalziffern 1" five.fitted
Substitution2: "'onum' Minuskelziffern 1" five.taboldstyle
EndChar

StartChar: six
Encoding: 54 54 15
Width: 545
VWidth: 487
Flags: HW
HStem: -10 45<203.647 303.771> 314 47<177.112 303.745> 573 37<348.431 431>
VStem: 38 122<114.348 290.101> 337 125<91.4932 273.052>
LayerCount: 2
Fore
SplineSet
259.994 334 m 1
 292.032 353 349.732 361 379.732 361 c 0
 535.732 361 557.689 262 540.26 180 c 0
 522.618 97 431.874 -10 285.874 -10 c 0
 251.874 -10 182.938 -5 147.676 22 c 0
 101.903 56 64.3574 124 89.6514 243 c 0
 121.96 395 285.659 610 600.659 610 c 1
 593.669 563 l 1
 529.394 557 346.756 554 259.994 334 c 1
242.791 286 m 1
 239.24 274 233.139 250 231.014 240 c 0
 193.391 63 237.439 35 290.439 35 c 0
 325.439 35 372.941 75 393.772 173 c 0
 404.4 223 422.743 314 328.743 314 c 0
 310.743 314 281.53 313 242.791 286 c 1
EndSplineSet
AlternateSubs2: "'aalt' Alle Alternativen zeigen 1" six.oldstyle six.superior six.fitted
Substitution2: "'sups' Hochgestellte 1" six.superior
Substitution2: "'sinf' Wissenschaftliche Indices 1" six.inferior
Substitution2: "'pnum' Proportionalziffern 1" six.fitted
Substitution2: "'onum' Minuskelziffern 1" six.taboldstyle
EndChar

StartChar: seven
Encoding: 55 55 16
Width: 545
VWidth: 487
Flags: HMW
HStem: -13 22G<144 235> 511 89<120 359>
LayerCount: 2
Fore
SplineSet
459.365 491 m 1
 400.365 491 310.728 488 181.239 481 c 1
 186.428 496 198.78 540 201.969 555 c 0
 205.157 570 206.621 591 207.81 606 c 1
 248.534 600 377.321 599 526.321 599 c 0
 557.321 599 576.172 603 592.021 607 c 1
 601.771 587 l 1
 431.955 315 342.222 161 249.087 -9 c 1
 140.236 -13 l 1
 138.725 -6 l 1
 233.545 139 344.83 305 459.365 491 c 1
EndSplineSet
AlternateSubs2: "'aalt' Alle Alternativen zeigen 1" seven.oldstyle seven.superior seven.fitted
Substitution2: "'sups' Hochgestellte 1" seven.superior
Substitution2: "'sinf' Wissenschaftliche Indices 1" seven.inferior
Substitution2: "'pnum' Proportionalziffern 1" seven.fitted
Substitution2: "'onum' Minuskelziffern 1" seven.taboldstyle
EndChar

StartChar: nine
Encoding: 57 57 17
Width: 505
VWidth: 487
Flags: HW
HStem: -11 37<81 163.569> 238 47<208.255 334.888> 564 45<208.229 308.353>
VStem: 50 125<325.948 507.507> 352 122<308.899 484.652>
LayerCount: 2
Fore
SplineSet
379.327 265 m 1
 347.289 246 289.589 238 259.589 238 c 0
 103.589 238 81.6318 337 99.0615 419 c 0
 116.703 502 207.447 609 353.447 609 c 0
 387.447 609 456.384 604 491.646 577 c 0
 537.418 543 574.965 475 549.67 356 c 0
 517.361 204 353.662 -11 38.6621 -11 c 1
 45.6523 36 l 1
 109.928 42 292.565 45 379.327 265 c 1
396.53 313 m 1
 400.081 325 406.183 349 408.308 359 c 0
 445.931 536 401.882 564 348.882 564 c 0
 313.882 564 266.38 524 245.549 426 c 0
 234.921 376 216.578 285 310.578 285 c 0
 328.578 285 357.791 286 396.53 313 c 1
EndSplineSet
AlternateSubs2: "'aalt' Alle Alternativen zeigen 1" nine.oldstyle nine.superior nine.fitted
Substitution2: "'sups' Hochgestellte 1" nine.superior
Substitution2: "'sinf' Wissenschaftliche Indices 1" nine.inferior
Substitution2: "'pnum' Proportionalziffern 1" nine.fitted
Substitution2: "'onum' Minuskelziffern 1" nine.taboldstyle
Colour: ff00ff
EndChar

StartChar: colon
Encoding: 58 58 18
Width: 246
VWidth: 999
Flags: HW
HStem: 35 129<93.7166 171.842 93.7166 171.842> 298 129<93.7166 171.842 93.7166 171.842>
VStem: 67 130<57.9991 138.027 57.9991 138.027 320.999 401.027 320.999 401.027>
LayerCount: 2
Fore
SplineSet
137.521 360 m 1
 138.583 365 l 1
 158.598 398 180.849 418 222.037 433 c 1
 226.037 433 l 1
 260.273 420 275.235 401 280.583 365 c 1
 279.521 360 l 1
 256.806 319 233.979 301 196.066 292 c 1
 192.066 292 l 1
 152.979 301 139.593 318 137.521 360 c 1
81.6182 97 m 1
 82.6807 102 l 1
 102.695 135 124.946 155 166.135 170 c 1
 170.135 170 l 1
 204.371 157 219.333 138 224.681 102 c 1
 223.618 97 l 1
 200.903 56 178.077 38 140.164 29 c 1
 136.164 29 l 1
 97.0771 38 83.6904 55 81.6182 97 c 1
EndSplineSet
Colour: ff00ff
EndChar

StartChar: less
Encoding: 60 60 19
Width: 512
Flags: HW
HStem: 408 20G<416 471>
DStem2: 42 272 153 240 0.939793 0.341743<93.3813 428.46> 153 240 42 208 0.939793 -0.341743<0 335.079>
LayerCount: 2
Fore
SplineSet
204.014 240 m 1
 499.482 134 l 1
 482.053 52 l 1
 86.2119 208 l 1
 99.8154 272 l 1
 561.975 428 l 1
 544.545 346 l 1
 204.014 240 l 1
EndSplineSet
EndChar

StartChar: equal
Encoding: 61 61 20
Width: 551
Flags: HW
HStem: 123 70<59 493> 271 70<59 493>
LayerCount: 2
Fore
SplineSet
534.023 193 m 1
 519.145 123 l 1
 85.1445 123 l 1
 100.023 193 l 1
 534.023 193 l 1
565.481 341 m 1
 550.603 271 l 1
 116.603 271 l 1
 131.481 341 l 1
 565.481 341 l 1
EndSplineSet
AlternateSubs2: "'aalt' Alle Alternativen zeigen 1" equal.superior
Substitution2: "'sinf' Wissenschaftliche Indices 1" equal.inferior
Substitution2: "'sups' Hochgestellte 1" equal.superior
EndChar

StartChar: greater
Encoding: 62 62 21
Width: 512
Flags: HW
HStem: 408 20G<42 97>
LayerCount: 2
Fore
SplineSet
411.014 240 m 1
 115.545 346 l 1
 132.975 428 l 1
 528.815 272 l 1
 515.212 208 l 1
 53.0527 52 l 1
 70.4824 134 l 1
 411.014 240 l 1
EndSplineSet
Colour: ff00ff
EndChar

StartChar: question
Encoding: 63 63 22
Width: 464
VWidth: 487
Flags: HW
HStem: -11 123<141.564 218.965> 610 49<134.252 249.962>
VStem: 118 124<9.77582 88.1892> 157 46<174.052 312.285> 275 113<440.546 581.583>
LayerCount: 2
Fore
SplineSet
344.659 610 m 0
 288.659 610 237.244 561 201.679 516 c 1
 168.892 517 l 1
 169.046 593 l 1
 172.896 597 l 1
 201.754 617.5 291.575 659 364.075 659 c 0
 408.175 659 457.445 655.1 488.974 635 c 0
 530.462 608.6 541.968 559.7 530.979 508 c 0
 514.187 429 430.771 380 376.545 346 c 0
 343.096 324.6 307.192 302 291.463 228 c 2
 283.173 189 l 2
 281.686 182 254.984 174 246.984 174 c 0
 238.984 174 215.686 182 217.173 189 c 2
 225.888 230 l 2
 235.028 273 260.041 331.4 337.109 391 c 0
 384.975 428 394.413 467.7 402.129 504 c 0
 409.78 540 391.659 610 344.659 610 c 0
143.203 48 m 1
 144.266 53 l 1
 164.28 86 186.531 106 227.72 121 c 1
 231.72 121 l 1
 265.956 108 280.918 89 286.266 53 c 1
 285.203 48 l 1
 262.488 7 239.662 -11 201.749 -20 c 1
 197.749 -20 l 1
 158.662 -11 145.275 6 143.203 48 c 1
EndSplineSet
Colour: ff80cc
EndChar

StartChar: at
Encoding: 64 64 23
Width: 1068
Flags: HW
HStem: -170 49<435.509 699.945> 19 42<663 767.608> 30 47<467.725 559.656> 377 38<534.462 633.144> 584 47<435.721 652.987>
VStem: 92 114<110.363 336.661> 337 117<88.8325 253.701> 865 105<193.312 386.348>
LayerCount: 2
Fore
SplineSet
714.019 320 m 0
 721.458 355 702.134 377 677.134 377 c 0
 580.834 377 510.455 265.6 488.859 164 c 0
 478.869 117 479.367 77 526.367 77 c 0
 556.367 77 612.743 107 658.023 193 c 0
 675.038 226 708.917 296 714.019 320 c 0
715.941 75 m 0
 713.179 62 719.966 61 730.966 61 c 0
 767.966 61 892.42 129 923.028 273 c 0
 970.003 494 785.133 584 668.133 584 c 0
 513.133 584 303.563 459 254.463 228 c 0
 223.005 80 291.28 -121 535.28 -121 c 0
 612.28 -121 728.382 -97 801.223 -46 c 1
 812.372 -50 814.696 -72 813.933 -85 c 1
 739.518 -134 628.865 -170 505.865 -170 c 0
 268.865 -170 90.5117 -7 138.975 221 c 0
 182.975 428 434.123 631 687.123 631 c 0
 913.123 631 1071.18 476 1031 287 c 0
 1001.25 147 836.039 19 702.039 19 c 0
 632.039 19 621.69 55 626.154 76 c 1
 577.077 38 504.377 30 480.377 30 c 0
 364.377 30 361.869 117 370.584 158 c 0
 401.404 303 557.211 415 672.211 415 c 0
 720.211 415 775.598 398 788.134 377 c 1
 832.148 410 l 1
 856.811 399 l 1
 742.971 141 l 2
 731.544 115 718.28 86 715.941 75 c 0
EndSplineSet
EndChar

StartChar: A
Encoding: 65 65 24
Width: 701
Flags: HW
HStem: -3 21G<26 70.5 115 137.495 502.235 515.5 654 670.5> 221 53<212.237 446.333> 638 20G<267 451>
AnchorPoint: "unten_punkt" 249.044 -108 basechar 0
AnchorPoint: "unten_anhang" 61.7002 8 basechar 0
AnchorPoint: "top_akzent" 513.62 798 basechar 0
AnchorPoint: "top_punkt" 492.79 700 basechar 0
LayerCount: 2
Fore
SplineSet
246.893 219.2 m 1
 194.916 135.1 148.746 56.2002 120.362 -3 c 1
 109 0 87 0 76 0 c 0
 65 0 32 0 19.3623 -3 c 1
 167.337 218 311.675 436 454.862 658 c 1
 544.862 658 l 1
 590.312 439 649.83 98 678.362 -3 c 1
 662 0 605 0 588 0 c 0
 571 0 524 0 506.362 -3 c 1
 504.975 18.7002 499.217 93.7002 479.198 219.7 c 1
 446.647 220.4 412.075 221 379.975 221 c 0
 344.275 221 285.084 220.1 246.893 219.2 c 1
469.975 275.1 m 1
 459.145 338 445.061 411 427.003 494 c 1
 422.103 494 l 1
 282.244 275.9 l 1
 313.859 275.5 357.341 274 386.24 274 c 0
 409.94 274 441.447 274.5 469.975 275.1 c 1
EndSplineSet
Position2: "'cpsp' Versalabstaende 1" dx=2 dy=0 dh=5 dv=0
Substitution2: "'c2sc' Versale nach Kapitaelchen 1" a.sc
EndChar

StartChar: B
Encoding: 66 66 25
Width: 675
VWidth: 999
Flags: HW
HStem: -3 53<215.709 439.082> 322 53<245 401.023> 595 53<214.342 397.138>
VStem: 103 142<61.1856 322 375 585.479> 426 149<431.082 565.301> 473 161<105.896 265.022>
AnchorPoint: "unten_punkt" 265.044 -108 basechar 0
AnchorPoint: "unten_anhang" 270 0 basechar 0
AnchorPoint: "top_punkt" 450.79 700 basechar 0
AnchorPoint: "top_akzent" 470.62 798 basechar 0
LayerCount: 2
Fore
SplineSet
361.906 550 m 2
 324.709 375 l 1
 402.709 375 l 2
 485.709 375 512.723 408 528.239 481 c 0
 546.796 568.3 518.471 595 462.471 595 c 0
 381.471 595 368.921 583 361.906 550 c 2
313.443 322 m 1
 265.618 97 l 2
 258.604 64 272.628 50 342.628 50 c 0
 476.628 50 493.405 96 508.072 165 c 0
 523.206 236.2 523.443 322 406.443 322 c 2
 313.443 322 l 1
314.099 645 m 0
 377.099 645 441.736 648 476.736 648 c 0
 662.736 648 694.031 560 679.79 493 c 0
 668.1 438 604.834 385 548.521 360 c 1
 630.206 335 693.516 280 673.11 184 c 0
 654.83 98 559.362 -3 360.362 -3 c 0
 271.362 -3 249 0 177 0 c 0
 142 0 91.3623 -3 91.3623 -3 c 1
 91 0 l 1
 110.479 54 129.569 125 145.512 200 c 2
 197.588 445 l 2
 213.529 520 223.983 588 228.099 645 c 1
 230.736 648 l 1
 230.736 648 280.099 645 314.099 645 c 0
EndSplineSet
Position2: "'cpsp' Versalabstaende 1" dx=2 dy=0 dh=5 dv=0
Substitution2: "'c2sc' Versale nach Kapitaelchen 1" b.sc
EndChar

StartChar: C
Encoding: 67 67 26
Width: 691
VWidth: 999
Flags: HW
HStem: -10 60<314.335 503.017> 602 56<312.155 487.312>
VStem: 37 163<204.551 441.231>
AnchorPoint: "unten_punkt" 365.619 -110 basechar 0
AnchorPoint: "unten_anhang" 380.512 -7 basechar 0
AnchorPoint: "top_punkt" 534.79 700 basechar 0
AnchorPoint: "top_akzent" 555.62 798 basechar 0
LayerCount: 2
Fore
SplineSet
545.862 658 m 0
 667.862 658 754.297 613 754.297 613 c 1
 755.659 610 l 1
 733.381 560.7 722.468 531 708.027 480 c 1
 677.814 479 l 1
 654.244 561 609.959 602 519.959 602 c 0
 437.959 602 314.143 537 270.994 334 c 0
 241.023 193 302.628 50 411.628 50 c 0
 504.628 50 553.241 67 643.545 139 c 1
 660.318 105 l 1
 557.826 18 469.074 -10 379.874 -10 c 0
 295.074 -10 222.831 15.2002 175.903 56 c 0
 103.909 118.6 83.2314 217.5 103.955 315 c 0
 127.315 424.9 193.118 522.3 285.133 584 c 0
 358.006 632.8 454.862 658 545.862 658 c 0
EndSplineSet
Position2: "'cpsp' Versalabstaende 1" dx=2 dy=0 dh=5 dv=0
Substitution2: "'c2sc' Versale nach Kapitaelchen 1" c.sc
EndChar

StartChar: D
Encoding: 68 68 27
Width: 771
VWidth: 999
Flags: HW
HStem: -2 53<216.409 485.935> 595 53<217.556 448.867>
VStem: 101 144<64.2018 579.471> 563 165<184.471 417.062>
LayerCount: 2
Fore
SplineSet
266.468 101 m 2
 259.666 69 270.841 51 368.841 51 c 0
 509.841 51 580.43 82 623.366 284 c 0
 656.1 438 675.471 595 459.471 595 c 0
 410.471 595 368.283 580 360.844 545 c 2
 266.468 101 l 2
312.099 645 m 0
 388.099 645 432.736 648 508.736 648 c 0
 700.736 648 833.003 494 793.468 308 c 0
 741.179 62 529.575 -2 388.575 -2 c 0
 285.575 -2 258 0 175 0 c 0
 140 0 89.3623 -3 89.3623 -3 c 1
 89 0 l 1
 108.479 54 127.569 125 143.512 200 c 2
 195.588 445 l 2
 211.529 520 221.983 588 226.099 645 c 1
 228.736 648 l 1
 228.736 648 278.099 645 312.099 645 c 0
EndSplineSet
Position2: "'cpsp' Versalabstaende 1" dx=2 dy=0 dh=5 dv=0
Substitution2: "'c2sc' Versale nach Kapitaelchen 1" d.sc
EndChar

StartChar: E
Encoding: 69 69 28
Width: 584
VWidth: 999
Flags: HW
HStem: 0 73<244.435 487.022> 311 61<240 463.736> 577 68<244.435 479.755>
VStem: 96 144<74.1699 311 372 575.826>
AnchorPoint: "unten_anhang" 299.851 4 basechar 0
AnchorPoint: "unten_punkt" 276.257 -107 basechar 0
AnchorPoint: "top_punkt" 448.79 700 basechar 0
AnchorPoint: "top_akzent" 474.108 805 basechar 0
LayerCount: 2
Fore
SplineSet
282.512 200 m 2
 278.897 183 261.618 97 263.517 73 c 1
 397.517 73 554.193 95 554.193 95 c 1
 555.343 91 l 1
 552.643 83 543.777 46 541.652 36 c 0
 539.526 26 537.976 14 536 0 c 1
 533.362 -3 l 1
 517.787 -1 495 0 474 0 c 2
 170 0 l 2
 135 0 84.3623 -3 84.3623 -3 c 1
 84 0 l 1
 103.479 54 122.569 125 138.512 200 c 2
 190.588 445 l 2
 206.529 520 216.983 588 221.099 645 c 1
 223.736 648 l 1
 223.736 648 273.099 645 307.099 645 c 0
 337.099 645 601.099 645 601.099 645 c 2
 622.099 645 645.312 646 661.736 648 c 1
 663.099 645 l 1
 659.123 631 655.36 618 653.659 610 c 0
 651.746 601 647.646 577 646.944 569 c 1
 644.095 565 l 1
 644.095 565 504.646 577 370.646 577 c 1
 358.544 553 338.201 462 334.588 445 c 2
 319.071 372 l 1
 437.071 372 488.134 377 548.196 382 c 1
 550.559 379 l 1
 546.646 370 541.607 351 539.694 342 c 0
 537.781 333 534.53 313 534.617 304 c 1
 530.979 301 l 1
 463.468 308 354.105 311 306.105 311 c 1
 282.512 200 l 2
EndSplineSet
Position2: "'cpsp' Versalabstaende 1" dx=2 dy=0 dh=5 dv=0
Substitution2: "'c2sc' Versale nach Kapitaelchen 1" e.sc
EndChar

StartChar: F
Encoding: 70 70 29
Width: 539
VWidth: 999
Flags: HW
HStem: -3 21G<88 162 162 232> 316 51<222 438.024> 575 21G<230 508> 587 58<226.662 454.004>
VStem: 98 124<2.67992 316 367 585.479>
AnchorPoint: "unten_anhang" 154.787 -1 basechar 0
AnchorPoint: "unten_punkt" 197.406 -111 basechar 0
AnchorPoint: "top_punkt" 455.79 700 basechar 0
AnchorPoint: "top_akzent" 475.62 798 basechar 0
LayerCount: 2
Fore
SplineSet
600.099 645 m 2
 624.099 645 647.312 646 663.736 648 c 1
 665.099 645 l 1
 661.123 631 657.36 618 655.659 610 c 0
 653.746 601 649.646 577 648.944 569 c 1
 646.095 565 l 1
 646.095 565 506.646 577 372.646 577 c 1
 360.544 553 340.201 462 336.588 445 c 2
 321.071 372 l 1
 439.071 372 490.134 377 550.196 382 c 1
 552.559 379 l 1
 548.646 370 543.607 351 541.694 342 c 0
 539.781 333 536.53 313 536.617 304 c 1
 532.979 301 l 1
 465.468 308 356.105 311 308.105 311 c 1
 284.512 200 l 2
 268.569 125 256.115 57 252 0 c 1
 249.362 -3 l 1
 249.362 -3 206 0 172 0 c 0
 137 0 86.3623 -3 86.3623 -3 c 1
 86 0 l 1
 105.479 54 124.569 125 140.512 200 c 2
 192.588 445 l 2
 208.529 520 218.983 588 223.099 645 c 1
 225.736 648 l 1
 225.736 648 275.099 645 309.099 645 c 2
 600.099 645 l 2
EndSplineSet
Position2: "'cpsp' Versalabstaende 1" dx=2 dy=0 dh=5 dv=0
Substitution2: "'c2sc' Versale nach Kapitaelchen 1" f.sc
EndChar

StartChar: G
Encoding: 71 71 30
Width: 760
VWidth: 999
Flags: HW
HStem: -10 55<337.32 524.526> 602 56<309.401 496.285>
VStem: 39 158<214.24 438.594> 546 138<83.3557 304.327>
AnchorPoint: "unten_anhang" 381.425 2 basechar 0
AnchorPoint: "unten_punkt" 357.406 -111 basechar 0
AnchorPoint: "top_punkt" 527.79 700 basechar 0
AnchorPoint: "top_akzent" 548.62 798 basechar 0
LayerCount: 2
Fore
SplineSet
570.869 117 m 2
 586.811 192 597.139 250 601.255 307 c 1
 603.893 310 l 1
 603.893 310 651.255 307 685.255 307 c 0
 720.255 307 758.893 310 758.893 310 c 1
 759.255 307 l 1
 739.989 254 729.062 212 713.12 137 c 0
 706.233 104.6 707.137 90.5 711.643 83 c 1
 711.005 80 l 1
 631.474 23.4004 511.374 -10 394.874 -10 c 0
 312.574 -10 239.415 7.59961 188.203 48 c 0
 114.395 106.3 82.5312 204.8 104.255 307 c 0
 128.273 420 189.973 515.5 277.22 575 c 0
 357.91 630 451.862 658 551.862 658 c 0
 673.862 658 781.297 613 781.297 613 c 1
 782.659 610 l 1
 760.381 560.7 749.468 531 735.027 480 c 1
 704.814 479 l 1
 681.244 561 604.059 602 525.959 602 c 0
 390.959 602 300.728 488 266.506 327 c 0
 238.448 195 293.565 45 429.565 45 c 0
 483.565 45 522.841 51 563.643 83 c 1
 570.869 117 l 2
EndSplineSet
Position2: "'cpsp' Versalabstaende 1" dx=2 dy=0 dh=5 dv=0
Substitution2: "'c2sc' Versale nach Kapitaelchen 1" g.sc
EndChar

StartChar: grave
Encoding: 96 96 31
Width: 392
VWidth: 999
Flags: HW
LayerCount: 2
Fore
SplineSet
347.215 702 m 1
 389.857 578 l 2
 392.37 571 395.031 560 393.331 552 c 0
 391.418 543 374.931 536 365.931 536 c 0
 357.931 536 346.114 541.1 332.182 556 c 2
 233.5 661 l 1
 237.838 672 l 1
 247.751 681 291.64 704 327.64 704 c 0
 332.64 704 343.428 703 347.215 702 c 1
EndSplineSet
Substitution2: "'case' Versalformen 1" grave.cap
Colour: ff00ff
EndChar

StartChar: ograve
Encoding: 242 242 32
Width: 572
VWidth: 999
Flags: HW
HStem: -10 50<218.893 338.152> 389 50<203.272 331.488>
VStem: 38 128<111.605 310.233> 376 128<119.272 316.433>
LayerCount: 2
Fore
SplineSet
399.263 674 m 1
 441.906 550 l 2
 444.418 543 447.08 532 445.38 524 c 0
 443.467 515 426.979 508 417.979 508 c 0
 409.979 508 398.163 513.1 384.229 528 c 2
 285.548 633 l 1
 289.887 644 l 1
 299.8 653 343.688 676 379.688 676 c 0
 384.688 676 395.476 675 399.263 674 c 1
81.5742 205 m 0
 114.542 360.1 238.312 439 381.312 439 c 0
 550.312 439 606.27 340 579.487 214 c 0
 550.111 75.7998 436.874 -10 283.874 -10 c 0
 134.874 -10 53.3037 72 81.5742 205 c 0
363.685 389 m 0
 277.685 389 252.955 315 234.463 228 c 0
 218.096 151 204.502 40 308.502 40 c 0
 353.502 40 401.304 72 425.748 187 c 0
 455.293 326 448.685 389 363.685 389 c 0
EndSplineSet
Substitution2: "'smcp' Gemeine nach Kapitaelchen 1" ograve.sc
AlternateSubs2: "'aalt' Alle Alternativen zeigen 1" ograve.sc
Colour: ff00ff
EndChar

StartChar: oacute
Encoding: 243 243 33
Width: 572
VWidth: 999
Flags: HW
HStem: -10 50<237.208 349.521> 389 50<221.344 342.719> 507 171
VStem: 38 148<109.524 311.514> 213 184 386 148<111.265 318.426>
LayerCount: 2
Fore
SplineSet
447.688 676 m 1
 450.9 677 459.113 678 464.113 678 c 0
 494.113 678 520.138 664 526.012 654 c 1
 531.123 631 l 1
 388.167 523 l 2
 371.616 511 351.767 507 341.767 507 c 0
 333.767 507 322.467 515 323.742 521 c 0
 325.018 527 328.931 536 336.844 545 c 2
 447.688 676 l 1
81.5742 205 m 0
 114.542 360.1 238.312 439 381.312 439 c 0
 550.312 439 606.27 340 579.487 214 c 0
 550.111 75.7998 436.874 -10 283.874 -10 c 0
 134.874 -10 53.3037 72 81.5742 205 c 0
363.685 389 m 0
 277.685 389 252.955 315 234.463 228 c 0
 218.096 151 204.502 40 308.502 40 c 0
 353.502 40 401.304 72 425.748 187 c 0
 455.293 326 448.685 389 363.685 389 c 0
EndSplineSet
Substitution2: "'smcp' Gemeine nach Kapitaelchen 1" oacute.sc
AlternateSubs2: "'aalt' Alle Alternativen zeigen 1" oacute.sc
Colour: ff00ff
EndChar

StartChar: ocircumflex
Encoding: 244 244 34
Width: 572
VWidth: 999
Flags: HW
HStem: -10 50<237.208 349.521> 389 50<221.344 342.719>
VStem: 38 148<109.524 311.514> 386 148<111.265 318.426>
LayerCount: 2
Fore
SplineSet
543.954 522 m 1
 511.854 498 l 1
 468.742 521 440.355 538 410.22 575 c 1
 359.931 536 325.742 521 276.854 498 c 1
 254.954 522 l 1
 356.234 608 366.785 620 410.988 668 c 1
 450.988 668 l 1
 477.51 614 485.684 596 543.954 522 c 1
81.5742 205 m 0
 114.542 360.1 238.312 439 381.312 439 c 0
 550.312 439 606.27 340 579.487 214 c 0
 550.111 75.7998 436.874 -10 283.874 -10 c 0
 134.874 -10 53.3037 72 81.5742 205 c 0
363.685 389 m 0
 277.685 389 252.955 315 234.463 228 c 0
 218.096 151 204.502 40 308.502 40 c 0
 353.502 40 401.304 72 425.748 187 c 0
 455.293 326 448.685 389 363.685 389 c 0
EndSplineSet
Substitution2: "'smcp' Gemeine nach Kapitaelchen 1" ocircumflex.sc
AlternateSubs2: "'aalt' Alle Alternativen zeigen 1" ocircumflex.sc
Colour: ff00ff
EndChar

StartChar: otilde
Encoding: 245 245 35
Width: 572
VWidth: 999
Flags: HW
HStem: -10 50<237.208 349.521> 389 50<221.344 342.719> 513 66<298.778 385.61> 565 67<176.161 268.179>
VStem: 38 148<109.524 311.514> 130 36<521.639 551.509> 386 148<111.265 318.426> 401 36<598.092 625.75>
LayerCount: 2
Fore
SplineSet
475.07 579 m 0
 496.07 579 514.896 597 535.548 633 c 1
 569.636 624 l 1
 542.031 560 500.041 513 449.041 513 c 0
 411.041 513 399.592 525 385.993 541 c 0
 372.394 557 353.095 565 335.095 565 c 0
 306.095 565 290.269 547 275.679 516 c 1
 241.167 523 l 1
 269.771 587 304.336 632 352.336 632 c 0
 388.336 632 407.36 618 424.959 602 c 0
 442.771 587 456.07 579 475.07 579 c 0
81.5742 205 m 0
 114.542 360.1 238.312 439 381.312 439 c 0
 550.312 439 606.27 340 579.487 214 c 0
 550.111 75.7998 436.874 -10 283.874 -10 c 0
 134.874 -10 53.3037 72 81.5742 205 c 0
363.685 389 m 0
 277.685 389 252.955 315 234.463 228 c 0
 218.096 151 204.502 40 308.502 40 c 0
 353.502 40 401.304 72 425.748 187 c 0
 455.293 326 448.685 389 363.685 389 c 0
EndSplineSet
Substitution2: "'smcp' Gemeine nach Kapitaelchen 1" otilde.sc
AlternateSubs2: "'aalt' Alle Alternativen zeigen 1" otilde.sc
Colour: ff00ff
EndChar

StartChar: odieresis
Encoding: 246 246 36
Width: 572
VWidth: 999
Flags: HW
HStem: -10 50<237.208 349.521> 389 50<221.344 342.719> 515 113<147.23 236.003 336.997 425.77>
VStem: 38 148<109.524 311.514> 135 113<527.23 616.003> 325 113<527.23 616.003> 386 148<111.265 318.426>
LayerCount: 2
Fore
SplineSet
450.37 571 m 0
 457.81 606 491.761 634 526.761 634 c 0
 559.761 634 581.81 606 574.37 571 c 0
 567.355 538 533.191 509 500.191 509 c 0
 465.191 509 443.355 538 450.37 571 c 0
241.37 571 m 0
 248.81 606 282.761 634 315.761 634 c 0
 350.761 634 372.81 606 365.37 571 c 0
 358.355 538 324.191 509 289.191 509 c 0
 256.191 509 234.355 538 241.37 571 c 0
81.5742 205 m 0
 114.542 360.1 238.312 439 381.312 439 c 0
 550.312 439 606.27 340 579.487 214 c 0
 550.111 75.7998 436.874 -10 283.874 -10 c 0
 134.874 -10 53.3037 72 81.5742 205 c 0
363.685 389 m 0
 277.685 389 252.955 315 234.463 228 c 0
 218.096 151 204.502 40 308.502 40 c 0
 353.502 40 401.304 72 425.748 187 c 0
 455.293 326 448.685 389 363.685 389 c 0
EndSplineSet
Substitution2: "'smcp' Gemeine nach Kapitaelchen 1" odieresis.sc
AlternateSubs2: "'aalt' Alle Alternativen zeigen 1" odieresis.sc
Colour: ff00ff
EndChar

StartChar: divide
Encoding: 247 247 37
Width: 545
VWidth: 999
Flags: HW
HStem: 15.2 118.2<234.731 302.325> 198 70<72 472> 333.2 118.2<234.731 302.325>
VStem: 208.3 119<38.1509 107.028> 208.3 119<356.151 425.028>
LayerCount: 2
Fore
SplineSet
291.239 390.2 m 1
 292.132 394.4 l 1
 308.92 422.1 327.57 438.8 362.048 451.4 c 1
 365.348 451.4 l 1
 394.031 440.5 406.651 424.6 411.132 394.4 c 1
 410.239 390.2 l 1
 391.228 355.8 372.018 340.7 340.224 333.2 c 1
 336.924 333.2 l 1
 304.118 340.7 292.958 355 291.239 390.2 c 1
223.646 72.2002 m 1
 224.539 76.4004 l 1
 241.327 104.1 259.977 120.8 294.455 133.4 c 1
 297.755 133.4 l 1
 326.438 122.5 339.059 106.6 343.539 76.4004 c 1
 342.646 72.2002 l 1
 323.635 37.7998 304.425 22.7002 272.631 15.2002 c 1
 269.331 15.2002 l 1
 236.525 22.7002 225.364 37 223.646 72.2002 c 1
528.965 268 m 1
 514.086 198 l 1
 114.086 198 l 1
 128.965 268 l 1
 528.965 268 l 1
EndSplineSet
Colour: ff00ff
EndChar

StartChar: ugrave
Encoding: 249 249 38
Width: 603
VWidth: 999
Flags: HW
HStem: -10 64<226.889 326.154> -3 21<401 410.667 514.5 523> 412 20<74 143 143 212 378 447 447 516>
VStem: 84 118<78.6508 426.335> 388 118<106.355 426.335>
LayerCount: 2
Fore
SplineSet
391.263 674 m 1
 433.906 550 l 2
 436.418 543 439.08 532 437.38 524 c 0
 435.467 515 418.979 508 409.979 508 c 0
 401.979 508 390.163 513.1 376.229 528 c 2
 277.548 633 l 1
 281.887 644 l 1
 291.8 653 335.688 676 371.688 676 c 0
 376.688 676 387.476 675 391.263 674 c 1
391.604 64 m 1
 322.851 4 248.874 -10 207.874 -10 c 0
 108.874 -10 82.1152 57 97.7822 126 c 2
 125.927 249 l 2
 143.23 321 150.071 372 156.187 429 c 1
 158.824 432 l 1
 158.824 432 200.187 429 234.187 429 c 0
 269.187 429 309.824 432 309.824 432 c 1
 310.187 429 l 1
 292.559 379 282.368 324 263.927 249 c 2
 242.797 159 l 2
 223.566 77 250.241 67 280.241 67 c 0
 325.041 67 401.594 111 413.922 169 c 2
 430.927 249 l 2
 447.081 325 457.283 373 462.187 429 c 1
 464.824 432 l 1
 464.824 432 504.187 429 538.187 429 c 0
 573.187 429 615.824 432 615.824 432 c 1
 616.187 429 l 1
 595.921 376 584.868 324 568.927 249 c 2
 556.811 192 l 2
 540.869 117 534.14 43 533 0 c 1
 530.362 -3 l 1
 517.787 -1 470.1 0 457.5 0 c 0
 443 0 407.023 -1.2998 393.362 -3 c 0
 387.362 -3 384.575 -2 385 0 c 2
 393.604 64 l 1
 391.604 64 l 1
EndSplineSet
Substitution2: "'smcp' Gemeine nach Kapitaelchen 1" ugrave.sc
AlternateSubs2: "'aalt' Alle Alternativen zeigen 1" ugrave.sc
Colour: ff00ff
EndChar

StartChar: uacute
Encoding: 250 250 39
Width: 603
VWidth: 999
Flags: HW
HStem: -10 77<160.5 305.051> -3 21<391 400.667 524.5 533> 412 20<65 143 143 219 371 447 447 525> 507 171
VStem: 71 138<78.6508 426.332> 207 184 378 138<116.229 426.381>
LayerCount: 2
Fore
SplineSet
441.688 676 m 1
 444.9 677 453.113 678 458.113 678 c 0
 488.113 678 514.138 664 520.012 654 c 1
 525.123 631 l 1
 382.167 523 l 2
 365.616 511 345.767 507 335.767 507 c 0
 327.767 507 316.467 515 317.742 521 c 0
 319.018 527 322.931 536 330.844 545 c 2
 441.688 676 l 1
391.604 64 m 1
 322.851 4 248.874 -10 207.874 -10 c 0
 108.874 -10 82.1152 57 97.7822 126 c 2
 125.927 249 l 2
 143.23 321 150.071 372 156.187 429 c 1
 158.824 432 l 1
 158.824 432 200.187 429 234.187 429 c 0
 269.187 429 309.824 432 309.824 432 c 1
 310.187 429 l 1
 292.559 379 282.368 324 263.927 249 c 2
 242.797 159 l 2
 223.566 77 250.241 67 280.241 67 c 0
 325.041 67 401.594 111 413.922 169 c 2
 430.927 249 l 2
 447.081 325 457.283 373 462.187 429 c 1
 464.824 432 l 1
 464.824 432 504.187 429 538.187 429 c 0
 573.187 429 615.824 432 615.824 432 c 1
 616.187 429 l 1
 595.921 376 584.868 324 568.927 249 c 2
 556.811 192 l 2
 540.869 117 534.14 43 533 0 c 1
 530.362 -3 l 1
 517.787 -1 470.1 0 457.5 0 c 0
 443 0 407.023 -1.2998 393.362 -3 c 0
 387.362 -3 384.575 -2 385 0 c 2
 393.604 64 l 1
 391.604 64 l 1
EndSplineSet
Substitution2: "'smcp' Gemeine nach Kapitaelchen 1" uacute.sc
AlternateSubs2: "'aalt' Alle Alternativen zeigen 1" uacute.sc
Colour: ff00ff
EndChar

StartChar: ucircumflex
Encoding: 251 251 40
Width: 603
VWidth: 999
Flags: HW
HStem: -10 77<160.5 305.051> -3 21<391 400.667 524.5 533> 412 20<65 143 143 219 371 447 447 525>
VStem: 71 138<78.6508 426.332> 378 138<116.229 426.381>
LayerCount: 2
Fore
SplineSet
553.954 522 m 1
 521.854 498 l 1
 478.742 521 450.355 538 420.22 575 c 1
 369.931 536 335.742 521 286.854 498 c 1
 264.954 522 l 1
 366.234 608 376.785 620 420.988 668 c 1
 460.988 668 l 1
 487.51 614 495.684 596 553.954 522 c 1
391.604 64 m 1
 322.851 4 248.874 -10 207.874 -10 c 0
 108.874 -10 82.1152 57 97.7822 126 c 2
 125.927 249 l 2
 143.23 321 150.071 372 156.187 429 c 1
 158.824 432 l 1
 158.824 432 200.187 429 234.187 429 c 0
 269.187 429 309.824 432 309.824 432 c 1
 310.187 429 l 1
 292.559 379 282.368 324 263.927 249 c 2
 242.797 159 l 2
 223.566 77 250.241 67 280.241 67 c 0
 325.041 67 401.594 111 413.922 169 c 2
 430.927 249 l 2
 447.081 325 457.283 373 462.187 429 c 1
 464.824 432 l 1
 464.824 432 504.187 429 538.187 429 c 0
 573.187 429 615.824 432 615.824 432 c 1
 616.187 429 l 1
 595.921 376 584.868 324 568.927 249 c 2
 556.811 192 l 2
 540.869 117 534.14 43 533 0 c 1
 530.362 -3 l 1
 517.787 -1 470.1 0 457.5 0 c 0
 443 0 407.023 -1.2998 393.362 -3 c 0
 387.362 -3 384.575 -2 385 0 c 2
 393.604 64 l 1
 391.604 64 l 1
EndSplineSet
Substitution2: "'smcp' Gemeine nach Kapitaelchen 1" ucircumflex.sc
AlternateSubs2: "'aalt' Alle Alternativen zeigen 1" ucircumflex.sc
Colour: ff00ff
EndChar

StartChar: ebreve
Encoding: 277 277 41
Width: 499
VWidth: 999
Flags: HW
HStem: -10 68<220.441 371.884> 233 44<172 319.926> 390 49<211.137 303.525> 523 70<188.939 331.577>
VStem: 34 136<116.678 233 277 307.797> 121 33<633.075 669.182> 320 142<244.5 346.359> 369 32<634.158 669.281>
LayerCount: 2
Fore
SplineSet
298.751 681 m 1
 289.273 627 325.046 593 388.046 593 c 0
 435.046 593 497.147 617 513.751 681 c 1
 542.562 666 l 1
 510.244 561 424.167 523 373.167 523 c 0
 292.167 523 252.346 585 262.562 666 c 1
 298.751 681 l 1
230.878 277 m 1
 364.878 277 l 2
 374.878 277 382.066 292 383.979 301 c 0
 399.071 372 375.897 390 339.897 390 c 0
 309.197 390 258.07 364 230.878 277 c 1
453.318 105 m 1
 465.403 97.4004 477.492 87 474.304 72 c 1
 425.251 20 328.874 -10 256.874 -10 c 0
 194.274 -10 140.939 6.2998 110.439 35 c 0
 68.3564 74.5996 63.5449 139 79.0615 212 c 0
 109.458 355 245.312 439 351.312 439 c 0
 494.312 439 538.096 358 515.139 250 c 0
 512.801 239 504.525 233 493.525 233 c 2
 219.525 233 l 1
 188.28 86 244.328 58 301.328 58 c 0
 356.328 58 410.241 67 453.318 105 c 1
EndSplineSet
Colour: ff00ff
EndChar

StartChar: Edotaccent
Encoding: 278 278 42
Width: 584
VWidth: 999
Flags: HW
HStem: 0 73<244.435 487.022> 311 61<240 463.736> 577 68<244.435 479.755> 691 142<240.5 349.5>
VStem: 96 144<74.1699 311 372 575.826> 220 150<711.5 812.5>
LayerCount: 2
Fore
SplineSet
381.968 762 m 0
 390.471 802 430.06 833 472.06 833 c 0
 514.06 833 540.471 802 531.968 762 c 0
 523.466 722 483.877 691 441.877 691 c 0
 399.877 691 373.466 722 381.968 762 c 0
282.512 200 m 2
 278.897 183 261.618 97 263.517 73 c 1
 397.517 73 554.193 95 554.193 95 c 1
 555.343 91 l 1
 552.643 83 543.777 46 541.652 36 c 0
 539.526 26 537.976 14 536 0 c 1
 533.362 -3 l 1
 517.787 -1 495 0 474 0 c 2
 170 0 l 2
 135 0 84.3623 -3 84.3623 -3 c 1
 84 0 l 1
 103.479 54 122.569 125 138.512 200 c 2
 190.588 445 l 2
 206.529 520 216.983 588 221.099 645 c 1
 223.736 648 l 1
 223.736 648 273.099 645 307.099 645 c 0
 337.099 645 601.099 645 601.099 645 c 2
 622.099 645 645.312 646 661.736 648 c 1
 663.099 645 l 1
 659.123 631 655.36 618 653.659 610 c 0
 651.746 601 647.646 577 646.944 569 c 1
 644.095 565 l 1
 644.095 565 504.646 577 370.646 577 c 1
 358.544 553 338.201 462 334.588 445 c 2
 319.071 372 l 1
 437.071 372 488.134 377 548.196 382 c 1
 550.559 379 l 1
 546.646 370 541.607 351 539.694 342 c 0
 537.781 333 534.53 313 534.617 304 c 1
 530.979 301 l 1
 463.468 308 354.105 311 306.105 311 c 1
 282.512 200 l 2
EndSplineSet
Position2: "'cpsp' Versalabstaende 1" dx=2 dy=0 dh=5 dv=0
Colour: ff00ff
EndChar

StartChar: edotaccent
Encoding: 279 279 43
Width: 499
VWidth: 999
Flags: HW
HStem: -10 68<217.975 371.091> 243 44<161 327.997> 390 49<203.391 308.5> 532 138<197.092 296.908>
VStem: 32 126<127.31 243 287 299.028> 178 138<551.092 650.908> 328 127<254.5 342.567>
LayerCount: 2
Fore
SplineSet
300.021 607 m 0
 308.524 647 348.113 678 390.113 678 c 0
 432.113 678 458.524 647 450.021 607 c 0
 441.52 567 401.931 536 359.931 536 c 0
 317.931 536 291.52 567 300.021 607 c 0
230.878 277 m 1
 364.878 277 l 2
 374.878 277 382.066 292 383.979 301 c 0
 399.071 372 375.897 390 339.897 390 c 0
 309.197 390 258.07 364 230.878 277 c 1
453.318 105 m 1
 465.403 97.4004 477.492 87 474.304 72 c 1
 425.251 20 328.874 -10 256.874 -10 c 0
 194.274 -10 140.939 6.2998 110.439 35 c 0
 68.3564 74.5996 63.5449 139 79.0615 212 c 0
 109.458 355 245.312 439 351.312 439 c 0
 494.312 439 538.096 358 515.139 250 c 0
 512.801 239 504.525 233 493.525 233 c 2
 219.525 233 l 1
 188.28 86 244.328 58 301.328 58 c 0
 356.328 58 410.241 67 453.318 105 c 1
EndSplineSet
Colour: ff00ff
EndChar

StartChar: Eogonek
Encoding: 280 280 44
Width: 584
VWidth: 999
Flags: HW
HStem: -224 39<325.181 408.941> 0 25<394.256 430.88> 0 63<228.662 460.105> 316 51<224 440.426> 575 21<232 506> 587 58<228.662 453.27>
VStem: 96 128<64.202 316 367 585.479> 251 60<-173.091 -74.5789>
LayerCount: 2
Fore
SplineSet
492.029 -141 m 1
 458.016 -174 418.977 -193 384.977 -193 c 0
 362.177 -193 339.039 -188 325.378 -177 c 0
 310.192 -164.7 300.392 -144 306.131 -117 c 0
 318.587 -58.4004 354.801 -25.4004 413.4 0 c 1
 170 0 l 2
 135 0 84.3623 -3 84.3623 -3 c 1
 84 0 l 1
 103.479 54 122.569 125 138.512 200 c 2
 190.588 445 l 2
 206.529 520 216.983 588 221.099 645 c 1
 223.736 648 l 1
 223.736 648 273.099 645 307.099 645 c 0
 337.099 645 601.099 645 601.099 645 c 2
 622.099 645 645.312 646 661.736 648 c 1
 663.099 645 l 1
 659.123 631 655.36 618 653.659 610 c 0
 651.746 601 647.646 577 646.944 569 c 1
 644.095 565 l 1
 644.095 565 504.646 577 370.646 577 c 1
 358.544 553 338.201 462 334.588 445 c 2
 319.071 372 l 1
 437.071 372 488.134 377 548.196 382 c 1
 550.559 379 l 1
 546.646 370 541.607 351 539.694 342 c 0
 537.781 333 534.53 313 534.617 304 c 1
 530.979 301 l 1
 463.468 308 354.105 311 306.105 311 c 1
 282.512 200 l 2
 278.897 183 261.618 97 263.517 73 c 1
 397.517 73 554.193 95 554.193 95 c 1
 555.343 91 l 1
 552.643 83 543.777 46 541.652 36 c 0
 539.526 26 537.976 14 536 0 c 1
 533.362 -3 l 1
 519.445 -1.2002 499.758 -0.200195 480.7 0 c 1
 426.536 -8.2998 403.46 -63.7002 395.744 -100 c 0
 391.28 -121 391.329 -149 417.329 -149 c 0
 434.329 -149 458.155 -131 475.344 -116 c 1
 478.131 -117 l 1
 492.029 -141 l 1
EndSplineSet
Position2: "'cpsp' Versalabstaende 1" dx=2 dy=0 dh=5 dv=0
Substitution2: "'c2sc' Versale nach Kapitaelchen 1" eogonek.sc
Colour: ff80cc
EndChar

StartChar: eogonek
Encoding: 281 281 45
Width: 499
VWidth: 999
Flags: HW
HStem: -193 44<292.832 361.751> -10 68<217.975 371.091> 243 44<161 327.997> 390 49<203.391 308.5>
VStem: 32 126<127.31 243 287 299.028> 221 66<-143.553 -49.2913> 328 127<254.5 342.567>
LayerCount: 2
Fore
SplineSet
372.029 -141 m 1
 338.016 -174 292.977 -193 258.977 -193 c 0
 209.977 -193 176.141 -164 186.131 -117 c 0
 194.591 -77.2002 234.883 -39.5996 281.508 -8.90039 c 1
 273.06 -9.59961 264.874 -10 256.874 -10 c 0
 194.274 -10 140.939 6.2998 110.439 35 c 0
 68.3564 74.5996 63.5449 139 79.0615 212 c 0
 109.458 355 245.312 439 351.312 439 c 0
 494.312 439 538.096 358 515.139 250 c 0
 512.801 239 504.525 233 493.525 233 c 2
 219.525 233 l 1
 188.28 86 244.328 58 301.328 58 c 0
 356.328 58 410.241 67 453.318 105 c 1
 465.403 97.4004 477.492 87 474.304 72 c 1
 455.98 52.5996 431.216 36.2998 403.474 23.4004 c 1
 334.975 -22.7002 285.458 -54.2998 274.469 -106 c 0
 270.005 -127 271.329 -149 297.329 -149 c 0
 314.329 -149 338.155 -131 355.344 -116 c 1
 358.131 -117 l 1
 372.029 -141 l 1
230.878 277 m 1
 364.878 277 l 2
 374.878 277 382.066 292 383.979 301 c 0
 399.071 372 375.897 390 339.897 390 c 0
 309.197 390 258.07 364 230.878 277 c 1
EndSplineSet
AlternateSubs2: "'aalt' Alle Alternativen zeigen 1" eogonek.sc
Substitution2: "'smcp' Gemeine nach Kapitaelchen 1" eogonek.sc
Colour: ff00ff
EndChar

StartChar: Ecaron
Encoding: 282 282 46
Width: 584
VWidth: 999
Flags: HW
HStem: 0 63<228.662 460.105> 316 51<224 440.426> 575 21<232 506> 587 58<228.662 453.27>
VStem: 96 128<64.202 316 367 585.479>
LayerCount: 2
Fore
SplineSet
318.471 802 m 1
 341.06 833 l 1
 383.233 815 421.407 797 460.156 777 c 1
 506.407 797 554.233 815 604.06 833 c 1
 613.471 802 l 1
 560.818 766 502.679 723 455.389 684 c 1
 425.389 684 l 1
 395.104 725 354.605 765 318.471 802 c 1
282.512 200 m 2
 278.897 183 261.618 97 263.517 73 c 1
 397.517 73 554.193 95 554.193 95 c 1
 555.343 91 l 1
 552.643 83 543.777 46 541.652 36 c 0
 539.526 26 537.976 14 536 0 c 1
 533.362 -3 l 1
 517.787 -1 495 0 474 0 c 2
 170 0 l 2
 135 0 84.3623 -3 84.3623 -3 c 1
 84 0 l 1
 103.479 54 122.569 125 138.512 200 c 2
 190.588 445 l 2
 206.529 520 216.983 588 221.099 645 c 1
 223.736 648 l 1
 223.736 648 273.099 645 307.099 645 c 0
 337.099 645 601.099 645 601.099 645 c 2
 622.099 645 645.312 646 661.736 648 c 1
 663.099 645 l 1
 659.123 631 655.36 618 653.659 610 c 0
 651.746 601 647.646 577 646.944 569 c 1
 644.095 565 l 1
 644.095 565 504.646 577 370.646 577 c 1
 358.544 553 338.201 462 334.588 445 c 2
 319.071 372 l 1
 437.071 372 488.134 377 548.196 382 c 1
 550.559 379 l 1
 546.646 370 541.607 351 539.694 342 c 0
 537.781 333 534.53 313 534.617 304 c 1
 530.979 301 l 1
 463.468 308 354.105 311 306.105 311 c 1
 282.512 200 l 2
EndSplineSet
Position2: "'cpsp' Versalabstaende 1" dx=2 dy=0 dh=5 dv=0
Substitution2: "'c2sc' Versale nach Kapitaelchen 1" ecaron.sc
Colour: ff00ff
EndChar

StartChar: ecaron
Encoding: 283 283 47
Width: 499
VWidth: 999
Flags: HW
HStem: -10 68<220.441 371.884> 233 44<172 319.926> 390 49<211.137 303.525>
VStem: 34 136<116.678 233 277 307.797> 320 142<244.5 346.359>
LayerCount: 2
Fore
SplineSet
253.099 645 m 1
 284.138 664 l 1
 325.611 638 354.572 619 384.708 582 c 1
 434.998 621 469.611 638 519.138 664 c 1
 542.099 645 l 1
 441.819 559 425.206 542 381.003 494 c 1
 348.003 494 l 1
 321.481 548 311.37 571 253.099 645 c 1
230.878 277 m 1
 364.878 277 l 2
 374.878 277 382.066 292 383.979 301 c 0
 399.071 372 375.897 390 339.897 390 c 0
 309.197 390 258.07 364 230.878 277 c 1
453.318 105 m 1
 465.403 97.4004 477.492 87 474.304 72 c 1
 425.251 20 328.874 -10 256.874 -10 c 0
 194.274 -10 140.939 6.2998 110.439 35 c 0
 68.3564 74.5996 63.5449 139 79.0615 212 c 0
 109.458 355 245.312 439 351.312 439 c 0
 494.312 439 538.096 358 515.139 250 c 0
 512.801 239 504.525 233 493.525 233 c 2
 219.525 233 l 1
 188.28 86 244.328 58 301.328 58 c 0
 356.328 58 410.241 67 453.318 105 c 1
EndSplineSet
AlternateSubs2: "'aalt' Alle Alternativen zeigen 1" ecaron.sc
Substitution2: "'smcp' Gemeine nach Kapitaelchen 1" ecaron.sc
Colour: ff00ff
EndChar

StartChar: Gcircumflex
Encoding: 284 284 48
Width: 760
VWidth: 999
Flags: HW
HStem: -10 46<295.106 519.78> 611 47<271.555 476.844>
VStem: 32 103<213.43 430.807> 546 86<83.5114 304.327>
LayerCount: 2
Fore
SplineSet
692.978 715 m 1
 670.389 684 l 1
 628.215 702 590.041 720 551.292 740 c 1
 505.041 720 457.215 702 407.389 684 c 1
 397.978 715 l 1
 450.63 751 508.77 794 556.06 833 c 1
 586.06 833 l 1
 616.345 792 656.843 752 692.978 715 c 1
570.869 117 m 2
 586.811 192 597.139 250 601.255 307 c 1
 603.893 310 l 1
 603.893 310 651.255 307 685.255 307 c 0
 720.255 307 758.893 310 758.893 310 c 1
 759.255 307 l 1
 739.989 254 729.062 212 713.12 137 c 0
 706.233 104.6 707.137 90.5 711.643 83 c 1
 711.005 80 l 1
 631.474 23.4004 511.374 -10 394.874 -10 c 0
 312.574 -10 239.415 7.59961 188.203 48 c 0
 114.395 106.3 82.5312 204.8 104.255 307 c 0
 128.273 420 189.973 515.5 277.22 575 c 0
 357.91 630 451.862 658 551.862 658 c 0
 673.862 658 781.297 613 781.297 613 c 1
 782.659 610 l 1
 760.381 560.7 749.468 531 735.027 480 c 1
 704.814 479 l 1
 681.244 561 604.059 602 525.959 602 c 0
 390.959 602 300.728 488 266.506 327 c 0
 238.448 195 293.565 45 429.565 45 c 0
 483.565 45 522.841 51 563.643 83 c 1
 570.869 117 l 2
EndSplineSet
Position2: "'cpsp' Versalabstaende 1" dx=2 dy=0 dh=5 dv=0
Colour: ff00ff
EndChar

StartChar: gcircumflex
Encoding: 285 285 49
Width: 561
VWidth: 999
Flags: HW
HStem: -238 42<190.565 342.01> -18 77<181.025 292.771> -17 83<218.306 376.334> 141 40<211.742 310.178> 399 40<209.297 307.022>
VStem: 32 119<-160.853 -46.6704> 49 138<213.388 358.207> 54 117<65.722 113.5> 336 136<219.301 354.718> 400 135<-128.146 -41.5108>
LayerCount: 2
Fore
SplineSet
513.954 522 m 1
 481.854 498 l 1
 438.742 521 410.355 538 380.22 575 c 1
 329.931 536 295.742 521 246.854 498 c 1
 224.954 522 l 1
 326.234 608 336.785 620 380.988 668 c 1
 420.988 668 l 1
 447.51 614 455.684 596 513.954 522 c 1
533.429 289 m 0
 513.64 195.9 408.971 141 292.971 141 c 0
 238.471 141 230.949 148.9 217.925 154.9 c 1
 203.312 137.9 197.995 127 193.743 107 c 0
 184.604 64 213.541 59 241.541 59 c 0
 246.541 59 246.753 60 260.966 61 c 0
 284.604 64 308.028 66 325.028 66 c 0
 417.028 66 544.777 46 520.546 -68 c 0
 497.59 -176 303.411 -238 174.411 -238 c 0
 101.411 -238 -12.8496 -211 5.64258 -124 c 0
 10.9141 -99.2002 22.5459 -68 44.2227 -46 c 1
 71.1982 -32 114.871 -16.5996 139.362 -3 c 1
 112.062 5 60.8018 32 69.7295 74 c 0
 76.9561 108 142.608 144 183.072 165 c 1
 139.098 183 l 1
 120.724 201 97.2295 226.9 110.004 287 c 0
 130.409 383 239.312 439 347.312 439 c 0
 368.812 439 398.074 436 414.784 430.4 c 1
 490.213 434.3 566.641 434.9 615.312 439 c 1
 617.675 436 l 1
 613.762 427 610.424 416 608.511 407 c 0
 606.598 398 605.685 389 605.771 380 c 1
 602.134 377 l 1
 567.844 379.4 532.556 385.1 502.861 385.6 c 1
 529.498 364.6 540.762 323.5 533.429 289 c 0
395.304 279 m 0
 411.245 354 397.811 399 337.811 399 c 0
 285.811 399 260.757 347 251.192 302 c 0
 237.589 238 235.473 181 301.473 181 c 0
 336.473 181 380.212 208 395.304 279 c 0
181.812 -15 m 1
 150.072 -42 135.93 -70.9004 128.895 -104 c 0
 114.44 -172 177.339 -196 211.339 -196 c 0
 297.339 -196 367.691 -152 380.657 -91 c 0
 395.366 -21.7998 328.387 -17 272.387 -17 c 0
 258.587 -17 231.674 -18 202.174 -18 c 0
 193.174 -18 188.042 -15.7998 181.812 -15 c 1
EndSplineSet
Colour: ff00ff
EndChar

StartChar: Gbreve
Encoding: 286 286 50
Width: 760
VWidth: 999
Flags: HW
HStem: -10 55<337.32 524.526> 602 56<309.401 496.285> 705 80<327.099 468.943>
VStem: 39 158<214.24 438.594> 263 28<817.906 835> 507 27<819.862 835.074> 546 138<83.3557 304.327>
LayerCount: 2
Fore
SplineSet
725.06 833 m 1
 702.968 762 621.853 705 548.853 705 c 0
 468.853 705 417.181 763 426.06 833 c 1
 458.76 841 l 1
 460.533 807 507.856 785 565.856 785 c 0
 619.856 785 681.533 807 696.76 841 c 1
 725.06 833 l 1
570.869 117 m 2
 586.811 192 597.139 250 601.255 307 c 1
 603.893 310 l 1
 603.893 310 651.255 307 685.255 307 c 0
 720.255 307 758.893 310 758.893 310 c 1
 759.255 307 l 1
 739.989 254 729.062 212 713.12 137 c 0
 706.233 104.6 707.137 90.5 711.643 83 c 1
 711.005 80 l 1
 631.474 23.4004 511.374 -10 394.874 -10 c 0
 312.574 -10 239.415 7.59961 188.203 48 c 0
 114.395 106.3 82.5312 204.8 104.255 307 c 0
 128.273 420 189.973 515.5 277.22 575 c 0
 357.91 630 451.862 658 551.862 658 c 0
 673.862 658 781.297 613 781.297 613 c 1
 782.659 610 l 1
 760.381 560.7 749.468 531 735.027 480 c 1
 704.814 479 l 1
 681.244 561 604.059 602 525.959 602 c 0
 390.959 602 300.728 488 266.506 327 c 0
 238.448 195 293.565 45 429.565 45 c 0
 483.565 45 522.841 51 563.643 83 c 1
 570.869 117 l 2
EndSplineSet
Position2: "'cpsp' Versalabstaende 1" dx=2 dy=0 dh=5 dv=0
Substitution2: "'c2sc' Versale nach Kapitaelchen 1" gbreve.sc
Colour: ff00ff
EndChar

StartChar: gbreve
Encoding: 287 287 51
Width: 561
VWidth: 999
Flags: HW
HStem: -238 42<190.565 342.01> -18 77<181.025 292.771> -17 83<218.306 376.334> 141 40<211.742 310.178> 399 40<209.297 307.022> 523 70<189.939 332.577>
VStem: 32 119<-160.853 -46.6704> 49 138<213.388 358.207> 54 117<65.722 113.5> 122 33<633.075 669.182> 336 136<219.301 354.718> 370 32<634.158 669.281> 400 135<-128.146 -41.5108>
LayerCount: 2
Fore
SplineSet
299.751 681 m 1
 290.273 627 326.046 593 389.046 593 c 0
 436.046 593 498.147 617 514.751 681 c 1
 543.562 666 l 1
 511.244 561 425.167 523 374.167 523 c 0
 293.167 523 253.346 585 263.562 666 c 1
 299.751 681 l 1
533.429 289 m 0
 513.64 195.9 408.971 141 292.971 141 c 0
 238.471 141 230.949 148.9 217.925 154.9 c 1
 203.312 137.9 197.995 127 193.743 107 c 0
 184.604 64 213.541 59 241.541 59 c 0
 246.541 59 246.753 60 260.966 61 c 0
 284.604 64 308.028 66 325.028 66 c 0
 417.028 66 544.777 46 520.546 -68 c 0
 497.59 -176 303.411 -238 174.411 -238 c 0
 101.411 -238 -12.8496 -211 5.64258 -124 c 0
 10.9141 -99.2002 22.5459 -68 44.2227 -46 c 1
 71.1982 -32 114.871 -16.5996 139.362 -3 c 1
 112.062 5 60.8018 32 69.7295 74 c 0
 76.9561 108 142.608 144 183.072 165 c 1
 139.098 183 l 1
 120.724 201 97.2295 226.9 110.004 287 c 0
 130.409 383 239.312 439 347.312 439 c 0
 368.812 439 398.074 436 414.784 430.4 c 1
 490.213 434.3 566.641 434.9 615.312 439 c 1
 617.675 436 l 1
 613.762 427 610.424 416 608.511 407 c 0
 606.598 398 605.685 389 605.771 380 c 1
 602.134 377 l 1
 567.844 379.4 532.556 385.1 502.861 385.6 c 1
 529.498 364.6 540.762 323.5 533.429 289 c 0
395.304 279 m 0
 411.245 354 397.811 399 337.811 399 c 0
 285.811 399 260.757 347 251.192 302 c 0
 237.589 238 235.473 181 301.473 181 c 0
 336.473 181 380.212 208 395.304 279 c 0
181.812 -15 m 1
 150.072 -42 135.93 -70.9004 128.895 -104 c 0
 114.44 -172 177.339 -196 211.339 -196 c 0
 297.339 -196 367.691 -152 380.657 -91 c 0
 395.366 -21.7998 328.387 -17 272.387 -17 c 0
 258.587 -17 231.674 -18 202.174 -18 c 0
 193.174 -18 188.042 -15.7998 181.812 -15 c 1
EndSplineSet
AlternateSubs2: "'aalt' Alle Alternativen zeigen 1" gbreve.sc
Substitution2: "'smcp' Gemeine nach Kapitaelchen 1" gbreve.sc
Colour: ff00ff
EndChar

StartChar: Gdotaccent
Encoding: 288 288 52
Width: 760
VWidth: 999
Flags: HW
HStem: -10 55<337.32 524.526> 602 56<309.401 496.285> 691 142<340.5 449.5>
VStem: 39 158<214.24 438.594> 320 150<711.5 812.5> 546 138<83.3557 304.327>
LayerCount: 2
Fore
SplineSet
481.968 762 m 0
 490.471 802 530.06 833 572.06 833 c 0
 614.06 833 640.471 802 631.968 762 c 0
 623.466 722 583.877 691 541.877 691 c 0
 499.877 691 473.466 722 481.968 762 c 0
570.869 117 m 2
 586.811 192 597.139 250 601.255 307 c 1
 603.893 310 l 1
 603.893 310 651.255 307 685.255 307 c 0
 720.255 307 758.893 310 758.893 310 c 1
 759.255 307 l 1
 739.989 254 729.062 212 713.12 137 c 0
 706.233 104.6 707.137 90.5 711.643 83 c 1
 711.005 80 l 1
 631.474 23.4004 511.374 -10 394.874 -10 c 0
 312.574 -10 239.415 7.59961 188.203 48 c 0
 114.395 106.3 82.5312 204.8 104.255 307 c 0
 128.273 420 189.973 515.5 277.22 575 c 0
 357.91 630 451.862 658 551.862 658 c 0
 673.862 658 781.297 613 781.297 613 c 1
 782.659 610 l 1
 760.381 560.7 749.468 531 735.027 480 c 1
 704.814 479 l 1
 681.244 561 604.059 602 525.959 602 c 0
 390.959 602 300.728 488 266.506 327 c 0
 238.448 195 293.565 45 429.565 45 c 0
 483.565 45 522.841 51 563.643 83 c 1
 570.869 117 l 2
EndSplineSet
Position2: "'cpsp' Versalabstaende 1" dx=2 dy=0 dh=5 dv=0
Colour: ff00ff
EndChar

StartChar: gdotaccent
Encoding: 289 289 53
Width: 561
VWidth: 999
Flags: HW
HStem: -238 42<190.565 342.01> -18 77<181.025 292.771> -17 83<218.306 376.334> 141 40<211.742 310.178> 399 40<209.297 307.022> 536 142<209.5 318.5>
VStem: 32 119<-160.853 -46.6704> 49 138<213.388 358.207> 54 117<65.722 113.5> 189 150<556.5 657.5> 336 136<219.301 354.718> 400 135<-128.146 -41.5108>
LayerCount: 2
Fore
SplineSet
318.021 607 m 0
 326.524 647 366.113 678 408.113 678 c 0
 450.113 678 476.524 647 468.021 607 c 0
 459.52 567 419.931 536 377.931 536 c 0
 335.931 536 309.52 567 318.021 607 c 0
533.429 289 m 0
 513.64 195.9 408.971 141 292.971 141 c 0
 238.471 141 230.949 148.9 217.925 154.9 c 1
 203.312 137.9 197.995 127 193.743 107 c 0
 184.604 64 213.541 59 241.541 59 c 0
 246.541 59 246.753 60 260.966 61 c 0
 284.604 64 308.028 66 325.028 66 c 0
 417.028 66 544.777 46 520.546 -68 c 0
 497.59 -176 303.411 -238 174.411 -238 c 0
 101.411 -238 -12.8496 -211 5.64258 -124 c 0
 10.9141 -99.2002 22.5459 -68 44.2227 -46 c 1
 71.1982 -32 114.871 -16.5996 139.362 -3 c 1
 112.062 5 60.8018 32 69.7295 74 c 0
 76.9561 108 142.608 144 183.072 165 c 1
 139.098 183 l 1
 120.724 201 97.2295 226.9 110.004 287 c 0
 130.409 383 239.312 439 347.312 439 c 0
 368.812 439 398.074 436 414.784 430.4 c 1
 490.213 434.3 566.641 434.9 615.312 439 c 1
 617.675 436 l 1
 613.762 427 610.424 416 608.511 407 c 0
 606.598 398 605.685 389 605.771 380 c 1
 602.134 377 l 1
 567.844 379.4 532.556 385.1 502.861 385.6 c 1
 529.498 364.6 540.762 323.5 533.429 289 c 0
395.304 279 m 0
 411.245 354 397.811 399 337.811 399 c 0
 285.811 399 260.757 347 251.192 302 c 0
 237.589 238 235.473 181 301.473 181 c 0
 336.473 181 380.212 208 395.304 279 c 0
181.812 -15 m 1
 150.072 -42 135.93 -70.9004 128.895 -104 c 0
 114.44 -172 177.339 -196 211.339 -196 c 0
 297.339 -196 367.691 -152 380.657 -91 c 0
 395.366 -21.7998 328.387 -17 272.387 -17 c 0
 258.587 -17 231.674 -18 202.174 -18 c 0
 193.174 -18 188.042 -15.7998 181.812 -15 c 1
EndSplineSet
Colour: ff00ff
EndChar

StartChar: Gcommaaccent
Encoding: 290 290 54
Width: 760
VWidth: 999
Flags: HW
HStem: -243 30<309.114 389.834> -144 102<331.25 400.163> -10 55<337.32 524.526> 602 56<309.401 496.285>
VStem: 39 158<214.24 438.594> 403 65<-202.409 -145.496> 546 138<83.3557 304.327>
LayerCount: 2
Fore
SplineSet
295.382 -97 m 1
 296.232 -93 l 1
 304.759 -67 334.223 -46 371.072 -42 c 1
 377.072 -42 l 1
 398.463 -44.4004 417.944 -50.5996 428.334 -69 c 0
 439.31 -88.4004 442.961 -117.8 436.754 -147 c 0
 421.237 -220 338.349 -243 262.349 -243 c 1
 256.411 -238 257.812 -222 263.726 -213 c 1
 328.726 -213 360.701 -199 364.527 -181 c 0
 369.203 -159 359.952 -145.6 344.392 -144 c 0
 305.242 -140 291.431 -125 295.382 -97 c 1
570.869 117 m 2
 586.811 192 597.139 250 601.255 307 c 1
 603.893 310 l 1
 603.893 310 651.255 307 685.255 307 c 0
 720.255 307 758.893 310 758.893 310 c 1
 759.255 307 l 1
 739.989 254 729.062 212 713.12 137 c 0
 706.233 104.6 707.137 90.5 711.643 83 c 1
 711.005 80 l 1
 631.474 23.4004 511.374 -10 394.874 -10 c 0
 312.574 -10 239.415 7.59961 188.203 48 c 0
 114.395 106.3 82.5312 204.8 104.255 307 c 0
 128.273 420 189.973 515.5 277.22 575 c 0
 357.91 630 451.862 658 551.862 658 c 0
 673.862 658 781.297 613 781.297 613 c 1
 782.659 610 l 1
 760.381 560.7 749.468 531 735.027 480 c 1
 704.814 479 l 1
 681.244 561 604.059 602 525.959 602 c 0
 390.959 602 300.728 488 266.506 327 c 0
 238.448 195 293.565 45 429.565 45 c 0
 483.565 45 522.841 51 563.643 83 c 1
 570.869 117 l 2
EndSplineSet
Position2: "'cpsp' Versalabstaende 1" dx=2 dy=0 dh=5 dv=0
Colour: ff00ff
EndChar

StartChar: gcommaaccent
Encoding: 291 291 55
Width: 561
VWidth: 999
Flags: HW
HStem: -238 42<190.565 342.01> -18 77<181.025 292.771> -17 83<218.306 376.334> 141 40<211.742 310.178> 399 40<209.297 307.022> 497 113<243.626 311.5> 690 30<287.751 335.327>
VStem: 32 119<-160.853 -46.6704> 49 138<213.388 358.207> 54 117<65.722 113.5> 178 65<571.5 655.449> 336 136<219.301 354.718> 400 135<-128.146 -41.5108>
LayerCount: 2
Fore
SplineSet
450.819 559 m 1
 449.969 555 l 1
 441.442 529 406.491 501 369.641 497 c 1
 363.641 497 l 1
 319.703 502 293.418 543 305.534 600 c 0
 318.713 662 404.915 710 483.041 720 c 1
 489.978 715 487.577 699 481.664 690 c 1
 412.9 677 381.587 652 377.761 634 c 0
 373.085 612 382.659 610 398.659 610 c 1
 437.384 604 454.771 587 450.819 559 c 1
533.429 289 m 0
 513.64 195.9 408.971 141 292.971 141 c 0
 238.471 141 230.949 148.9 217.925 154.9 c 1
 203.312 137.9 197.995 127 193.743 107 c 0
 184.604 64 213.541 59 241.541 59 c 0
 246.541 59 246.753 60 260.966 61 c 0
 284.604 64 308.028 66 325.028 66 c 0
 417.028 66 544.777 46 520.546 -68 c 0
 497.59 -176 303.411 -238 174.411 -238 c 0
 101.411 -238 -12.8496 -211 5.64258 -124 c 0
 10.9141 -99.2002 22.5459 -68 44.2227 -46 c 1
 71.1982 -32 114.871 -16.5996 139.362 -3 c 1
 112.062 5 60.8018 32 69.7295 74 c 0
 76.9561 108 142.608 144 183.072 165 c 1
 139.098 183 l 1
 120.724 201 97.2295 226.9 110.004 287 c 0
 130.409 383 239.312 439 347.312 439 c 0
 368.812 439 398.074 436 414.784 430.4 c 1
 490.213 434.3 566.641 434.9 615.312 439 c 1
 617.675 436 l 1
 613.762 427 610.424 416 608.511 407 c 0
 606.598 398 605.685 389 605.771 380 c 1
 602.134 377 l 1
 567.844 379.4 532.556 385.1 502.861 385.6 c 1
 529.498 364.6 540.762 323.5 533.429 289 c 0
395.304 279 m 0
 411.245 354 397.811 399 337.811 399 c 0
 285.811 399 260.757 347 251.192 302 c 0
 237.589 238 235.473 181 301.473 181 c 0
 336.473 181 380.212 208 395.304 279 c 0
181.812 -15 m 1
 150.072 -42 135.93 -70.9004 128.895 -104 c 0
 114.44 -172 177.339 -196 211.339 -196 c 0
 297.339 -196 367.691 -152 380.657 -91 c 0
 395.366 -21.7998 328.387 -17 272.387 -17 c 0
 258.587 -17 231.674 -18 202.174 -18 c 0
 193.174 -18 188.042 -15.7998 181.812 -15 c 1
EndSplineSet
Colour: ff00ff
EndChar

StartChar: Hcircumflex
Encoding: 292 292 56
Width: 788
VWidth: 999
Flags: HW
HStem: -3 21<91 175 175 259 539 623 623 707> 311 52<237 563> 628 20<91 175 175 259 539 623 623 707> 745 149
VStem: 103 144<2.67992 642.32> 244 295 551 144<2.67992 642.32>
LayerCount: 2
Fore
SplineSet
703.944 776 m 1
 681.354 745 l 1
 639.181 763 601.007 781 562.258 801 c 1
 516.007 781 468.181 763 418.354 745 c 1
 408.944 776 l 1
 461.596 812 519.736 855 567.025 894 c 1
 597.025 894 l 1
 627.311 853 667.809 813 703.944 776 c 1
645.588 445 m 2
 661.529 520 671.983 588 676.099 645 c 1
 678.736 648 l 1
 678.736 648 726.099 645 760.099 645 c 0
 795.099 645 843.736 648 843.736 648 c 1
 844.099 645 l 1
 824.834 592 805.529 520 789.588 445 c 2
 737.512 200 l 2
 721.569 125 711.115 57 707 0 c 1
 704.362 -3 l 1
 704.362 -3 657 0 623 0 c 0
 588 0 539.362 -3 539.362 -3 c 1
 539 0 l 1
 558.479 54 577.569 125 593.512 200 c 2
 617.105 311 l 1
 313.105 311 l 1
 289.512 200 l 2
 273.569 125 263.115 57 259 0 c 1
 256.362 -3 l 1
 256.362 -3 209 0 175 0 c 0
 140 0 91.3623 -3 91.3623 -3 c 1
 91 0 l 1
 110.479 54 129.569 125 145.512 200 c 2
 197.588 445 l 2
 213.529 520 223.983 588 228.099 645 c 1
 230.736 648 l 1
 230.736 648 278.099 645 312.099 645 c 0
 347.099 645 395.736 648 395.736 648 c 1
 396.099 645 l 1
 376.834 592 357.529 520 341.588 445 c 2
 324.158 363 l 1
 628.158 363 l 1
 645.588 445 l 2
EndSplineSet
Position2: "'cpsp' Versalabstaende 1" dx=2 dy=0 dh=5 dv=0
Colour: ff00ff
EndChar

StartChar: hcircumflex
Encoding: 293 293 57
Width: 618
VWidth: 999
Flags: HW
HStem: -3 21<74 155 155 230 386 471 471 540> 362 77<310.364 440> 678 20<212.465 228.167> 745 149
VStem: 86 138<2.6647 307.95 351 659.981> 197 295 392 138<2.6647 348.673>
LayerCount: 2
Fore
SplineSet
186.752 474 m 2
 202.906 550 213.336 619.3 214.713 662 c 1
 217.351 665 l 1
 258.488 668 346.139 688 373.364 698 c 1
 379.664 698 381.727 695 380.239 688 c 0
 359.509 626.7 346.22 575 330.278 500 c 2
 317.1 438 l 1
 294.607 351 l 1
 298.183 349 l 1
 356.723 408 437.312 439 488.312 439 c 0
 578.312 439 610.984 381 591.854 291 c 2
 568.26 180 l 2
 552.105 104 543.115 57 540 0 c 1
 537.362 -3 l 1
 537.362 -3 505 0 471 0 c 0
 436 0 386.362 -3 386.362 -3 c 1
 386 0 l 1
 403.266 53 414.318 105 430.26 180 c 2
 449.178 269 l 2
 464.694 342 443.945 362 416.945 362 c 0
 380.945 362 332.568 332 283.941 282 c 1
 262.26 180 l 2
 246.105 104 237.115 57 230 0 c 1
 227.362 -3 l 1
 227.362 -3 189.3 0 155 0 c 0
 120 0 74.3623 -3 74.3623 -3 c 1
 74 0 l 1
 93.8721 53.5 108.318 105 124.26 180 c 2
 186.752 474 l 2
656.944 776 m 1
 634.354 745 l 1
 592.181 763 554.007 781 515.258 801 c 1
 469.007 781 421.181 763 371.354 745 c 1
 361.944 776 l 1
 414.596 812 472.736 855 520.025 894 c 1
 550.025 894 l 1
 580.311 853 620.809 813 656.944 776 c 1
EndSplineSet
Colour: ff00ff
EndChar

StartChar: Hbar
Encoding: 294 294 58
Width: 788
VWidth: 999
Flags: HW
HStem: -3 21<91 175 175 259 539 623 623 707> 311 52<237 563> 512 44<41 761> 628 20<91 175 175 259 539 623 623 707>
VStem: 103 144<2.67992 642.32> 551 144<2.67992 642.32>
LayerCount: 2
Fore
SplineSet
628.158 363 m 1
 645.588 445 l 2
 650.477 468 654.938 490.4 658.729 512 c 1
 356.929 512 l 1
 351.596 490.2 346.434 467.8 341.588 445 c 2
 324.158 363 l 1
 628.158 363 l 1
617.105 311 m 1
 313.105 311 l 1
 289.512 200 l 2
 273.569 125 263.115 57 259 0 c 1
 256.362 -3 l 1
 256.362 -3 209 0 175 0 c 0
 140 0 91.3623 -3 91.3623 -3 c 1
 91 0 l 1
 110.479 54 129.569 125 145.512 200 c 2
 197.588 445 l 2
 202.477 468 206.938 490.4 210.729 512 c 1
 149.829 512 l 1
 159.182 556 l 1
 217.882 556 l 1
 222.662 587.9 226.096 617.7 228.099 645 c 1
 230.736 648 l 1
 230.736 648 278.099 645 312.099 645 c 0
 347.099 645 395.736 648 395.736 648 c 1
 396.099 645 l 1
 386.715 619.2 377.375 588.9 368.382 556 c 1
 665.882 556 l 1
 670.662 587.9 674.096 617.7 676.099 645 c 1
 678.736 648 l 1
 678.736 648 726.099 645 760.099 645 c 0
 795.099 645 843.736 648 843.736 648 c 1
 844.099 645 l 1
 834.715 619.2 825.375 588.9 816.382 556 c 1
 879.182 556 l 1
 869.829 512 l 1
 804.929 512 l 1
 799.596 490.2 794.434 467.8 789.588 445 c 2
 737.512 200 l 2
 721.569 125 711.115 57 707 0 c 1
 704.362 -3 l 1
 704.362 -3 657 0 623 0 c 0
 588 0 539.362 -3 539.362 -3 c 1
 539 0 l 1
 558.479 54 577.569 125 593.512 200 c 2
 617.105 311 l 1
EndSplineSet
Position2: "'cpsp' Versalabstaende 1" dx=2 dy=0 dh=5 dv=0
Colour: ff80cc
EndChar

StartChar: hbar
Encoding: 295 295 59
Width: 618
VWidth: 999
Flags: HW
HStem: -3 21<74 155 155 230 386 471 471 540> 362 77<310.364 440> 523 51<-9 338> 678 20<212.465 228.167>
VStem: 86 138<2.6647 307.95 351 659.981> 392 138<2.6647 348.673>
LayerCount: 2
Fore
SplineSet
102.167 523 m 1
 113.008 574 l 1
 142.604 572.1 172.964 570.5 204.551 569.5 c 1
 210.373 606.3 213.975 638.3 214.713 662 c 1
 217.351 665 l 1
 258.488 668 346.139 688 373.364 698 c 1
 379.664 698 381.727 695 380.239 688 c 0
 366.467 647.2 356.008 610.7 345.802 568.8 c 1
 381.894 569.7 419.834 571.3 460.008 574 c 1
 449.167 523 l 1
 412.319 525.6 374.681 527.3 336.372 528.2 c 1
 334.338 519.1 332.361 509.8 330.278 500 c 2
 317.1 438 l 1
 294.607 351 l 1
 298.183 349 l 1
 356.723 408 437.312 439 488.312 439 c 0
 578.312 439 610.984 381 591.854 291 c 2
 568.26 180 l 2
 552.105 104 543.115 57 540 0 c 1
 537.362 -3 l 1
 537.362 -3 505 0 471 0 c 0
 436 0 386.362 -3 386.362 -3 c 1
 386 0 l 1
 403.266 53 414.318 105 430.26 180 c 2
 449.178 269 l 2
 464.694 342 443.945 362 416.945 362 c 0
 380.945 362 332.568 332 283.941 282 c 1
 262.26 180 l 2
 246.105 104 237.115 57 230 0 c 1
 227.362 -3 l 1
 227.362 -3 189.3 0 155 0 c 0
 120 0 74.3623 -3 74.3623 -3 c 1
 74 0 l 1
 93.8721 53.5 108.318 105 124.26 180 c 2
 186.752 474 l 2
 190.663 492.4 194.289 510.4 197.466 527.7 c 1
 166.254 526.7 134.413 525.1 102.167 523 c 1
EndSplineSet
Colour: ff80cc
EndChar

StartChar: Itilde
Encoding: 296 296 60
Width: 351
VWidth: 999
Flags: HW
HStem: -3 21<94 178 178 262> 628 20<94 178 178 262> 714 66<185.778 272.61> 766 67<63.1606 155.179>
VStem: 17 36<722.639 752.509> 106 144<2.67992 642.32> 288 36<799.092 826.75>
LayerCount: 2
Fore
SplineSet
404.794 780 m 0
 425.794 780 444.62 798 465.272 834 c 1
 499.359 825 l 1
 471.756 761 429.766 714 378.766 714 c 0
 340.766 714 329.316 726 315.717 742 c 0
 302.118 758 282.818 766 264.818 766 c 0
 235.818 766 219.992 748 205.403 717 c 1
 170.891 724 l 1
 199.494 788 234.06 833 282.06 833 c 0
 318.06 833 337.084 819 354.683 803 c 0
 372.494 788 385.794 780 404.794 780 c 0
200.588 445 m 2
 216.529 520 226.983 588 231.099 645 c 1
 233.736 648 l 1
 233.736 648 281.099 645 315.099 645 c 0
 350.099 645 398.736 648 398.736 648 c 1
 399.099 645 l 1
 379.834 592 360.529 520 344.588 445 c 2
 292.512 200 l 2
 276.569 125 266.115 57 262 0 c 1
 259.362 -3 l 1
 259.362 -3 212 0 178 0 c 0
 143 0 94.3623 -3 94.3623 -3 c 1
 94 0 l 1
 113.479 54 132.569 125 148.512 200 c 2
 200.588 445 l 2
EndSplineSet
Position2: "'cpsp' Versalabstaende 1" dx=2 dy=0 dh=5 dv=0
Colour: ff00ff
EndChar

StartChar: itilde
Encoding: 297 297 61
Width: 316
VWidth: 999
Flags: HW
HStem: -3 21<78 95 223 240> 419 20<218.5 234> 513 66<162.6 240.749> 565 67<52.2445 135.061>
VStem: 10.7 32.4<521.639 551.509> 90 138<2.6647 408.973> 254.6 32.4<598.092 625.75>
LayerCount: 2
Fore
SplineSet
333.57 579 m 0
 352.471 579 369.796 597 389.148 633 c 1
 419.636 624 l 1
 393.432 560 354.642 513 308.741 513 c 0
 274.541 513 264.492 525 252.593 541 c 0
 240.694 557 223.494 565 207.295 565 c 0
 181.194 565 166.568 547 152.779 516 c 1
 121.867 523 l 1
 148.971 587 181.036 632 224.235 632 c 0
 256.636 632 273.46 618 288.959 602 c 0
 304.671 587 316.471 579 333.57 579 c 0
139.951 235 m 2
 155.893 310 159.221 368 160.36 411 c 1
 164.211 415 l 1
 204.849 418 292.187 429 319.312 439 c 1
 325.312 439 327.675 436 326.187 429 c 0
 308.221 368 297.293 326 281.352 251 c 2
 266.26 180 l 2
 250.105 104 244.115 57 240 0 c 1
 237.362 -3 l 1
 207.787 -1 193 0 159 0 c 0
 124 0 109.787 -1 79.3623 -3 c 1
 78 0 l 1
 97.4785 54 112.318 105 128.26 180 c 2
 139.951 235 l 2
EndSplineSet
Colour: ff00ff
EndChar

StartChar: Imacron
Encoding: 298 298 62
Width: 351
VWidth: 999
Flags: HW
HStem: -3 21<94 178 178 262> 628 20<94 178 178 262> 744 60<16.837 324.084>
VStem: 13 315<744.849 803.524> 106 144<2.67992 642.32>
LayerCount: 2
Fore
SplineSet
460.143 744 m 2
 186.142 744 l 2
 175.142 744 174.118 758 176.031 767 c 0
 178.582 779 195.896 804 208.896 804 c 2
 484.896 804 l 2
 494.896 804 495.92 790 494.219 782 c 0
 491.456 769 474.143 744 460.143 744 c 2
200.588 445 m 2
 216.529 520 226.983 588 231.099 645 c 1
 233.736 648 l 1
 233.736 648 281.099 645 315.099 645 c 0
 350.099 645 398.736 648 398.736 648 c 1
 399.099 645 l 1
 379.834 592 360.529 520 344.588 445 c 2
 292.512 200 l 2
 276.569 125 266.115 57 262 0 c 1
 259.362 -3 l 1
 259.362 -3 212 0 178 0 c 0
 143 0 94.3623 -3 94.3623 -3 c 1
 94 0 l 1
 113.479 54 132.569 125 148.512 200 c 2
 200.588 445 l 2
EndSplineSet
Position2: "'cpsp' Versalabstaende 1" dx=2 dy=0 dh=5 dv=0
Colour: ff00ff
EndChar

StartChar: imacron
Encoding: 299 299 63
Width: 316
VWidth: 999
Flags: HW
HStem: -3 21<80 149 149 218> 419 20<196.5 212> 538 44<5.57884 256.164>
VStem: 4.6 252.9<538.205 582> 90 118<2.6647 408.973>
LayerCount: 2
Fore
SplineSet
392.855 530 m 2
 146.255 530 l 2
 136.355 530 135.73 544 137.644 553 c 0
 140.194 565 156.309 590 168.009 590 c 2
 416.408 590 l 2
 425.408 590 426.032 576 424.332 568 c 0
 421.569 555 405.455 530 392.855 530 c 2
139.951 235 m 2
 155.893 310 159.221 368 160.36 411 c 1
 164.211 415 l 1
 204.849 418 292.187 429 319.312 439 c 1
 325.312 439 327.675 436 326.187 429 c 0
 308.221 368 297.293 326 281.352 251 c 2
 266.26 180 l 2
 250.105 104 244.115 57 240 0 c 1
 237.362 -3 l 1
 207.787 -1 193 0 159 0 c 0
 124 0 109.787 -1 79.3623 -3 c 1
 78 0 l 1
 97.4785 54 112.318 105 128.26 180 c 2
 139.951 235 l 2
EndSplineSet
Colour: ff00ff
EndChar

StartChar: Ibreve
Encoding: 300 300 64
Width: 351
VWidth: 999
Flags: HW
HStem: -3 21<94 178 178 262> 628 20<94 178 178 262> 705 80<100.019 256.064>
VStem: 29 31<817.906 834.806> 106 144<2.67992 642.32> 298 30<819.862 834.867>
LayerCount: 2
Fore
SplineSet
505.06 833 m 1
 482.968 762 401.853 705 328.853 705 c 0
 248.853 705 197.181 763 206.06 833 c 1
 238.76 841 l 1
 240.533 807 287.856 785 345.856 785 c 0
 399.856 785 461.533 807 476.76 841 c 1
 505.06 833 l 1
200.588 445 m 2
 216.529 520 226.983 588 231.099 645 c 1
 233.736 648 l 1
 233.736 648 281.099 645 315.099 645 c 0
 350.099 645 398.736 648 398.736 648 c 1
 399.099 645 l 1
 379.834 592 360.529 520 344.588 445 c 2
 292.512 200 l 2
 276.569 125 266.115 57 262 0 c 1
 259.362 -3 l 1
 259.362 -3 212 0 178 0 c 0
 143 0 94.3623 -3 94.3623 -3 c 1
 94 0 l 1
 113.479 54 132.569 125 148.512 200 c 2
 200.588 445 l 2
EndSplineSet
Position2: "'cpsp' Versalabstaende 1" dx=2 dy=0 dh=5 dv=0
Colour: ff00ff
EndChar

StartChar: ibreve
Encoding: 301 301 65
Width: 316
VWidth: 999
Flags: HW
HStem: -3 21<80 149 149 218> 419 20<196.5 212> 503 57<70.2712 193.508>
VStem: 10.9 23.4<609.805 641.769> 90 118<2.6647 408.973> 229.6 24.3<611.333 641.63>
LayerCount: 2
Fore
SplineSet
186.125 655 m 1
 176.446 601 207.92 567 264.619 567 c 0
 306.92 567 363.321 591 379.625 655 c 1
 405.236 640 l 1
 373.918 535 295.641 497 249.74 497 c 0
 176.841 497 142.319 559 153.236 640 c 1
 186.125 655 l 1
139.951 235 m 2
 155.893 310 159.221 368 160.36 411 c 1
 164.211 415 l 1
 204.849 418 292.187 429 319.312 439 c 1
 325.312 439 327.675 436 326.187 429 c 0
 308.221 368 297.293 326 281.352 251 c 2
 266.26 180 l 2
 250.105 104 244.115 57 240 0 c 1
 237.362 -3 l 1
 207.787 -1 193 0 159 0 c 0
 124 0 109.787 -1 79.3623 -3 c 1
 78 0 l 1
 97.4785 54 112.318 105 128.26 180 c 2
 139.951 235 l 2
EndSplineSet
Colour: ff00ff
EndChar

StartChar: Iogonek
Encoding: 302 302 66
Width: 351
VWidth: 999
Flags: HW
HStem: -225 39<73.1814 157.134> -3 21<96 170 170 244> -1 25<142.256 178.88> 628 20<96 170 170 244>
VStem: -1 60<-174.091 -75.5789> 106 128<2.67992 642.32>
LayerCount: 2
Fore
SplineSet
262.029 -141 m 1
 228.016 -174 188.977 -193 154.977 -193 c 0
 132.177 -193 109.039 -188 95.3779 -177 c 0
 80.1924 -164.7 70.3916 -144 76.1309 -117 c 0
 88.5869 -58.4004 124.723 -25.2998 183.3 0 c 1
 181.5 0 179.7 0 178 0 c 0
 143 0 94.3623 -3 94.3623 -3 c 1
 94 0 l 1
 113.479 54 132.569 125 148.512 200 c 2
 200.588 445 l 2
 216.529 520 226.983 588 231.099 645 c 1
 233.736 648 l 1
 233.736 648 281.099 645 315.099 645 c 0
 350.099 645 398.736 648 398.736 648 c 1
 399.099 645 l 1
 379.834 592 360.529 520 344.588 445 c 2
 292.512 200 l 2
 276.761 125.9 266.355 58.5996 262.125 2 c 1
 263.213 1 l 2
 262.812 1 262.513 1 262.112 1 c 2
 262 0 l 1
 259.362 -3 l 1
 259.362 -3 252.147 -2.59961 241.375 -2 c 1
 193.854 -14.7998 173.014 -65.7998 165.744 -100 c 0
 161.28 -121 161.329 -149 187.329 -149 c 0
 204.329 -149 228.155 -131 245.344 -116 c 1
 248.131 -117 l 1
 262.029 -141 l 1
EndSplineSet
Position2: "'cpsp' Versalabstaende 1" dx=2 dy=0 dh=5 dv=0
Colour: ff80cc
EndChar

StartChar: iogonek
Encoding: 303 303 67
Width: 316
VWidth: 999
Flags: HW
HStem: -193 44<161.48 228.62> -3 21<78 95 223 240> 419 20<218.5 234> 536 142<105.5 214.5>
VStem: 71 86<-146.871 -45.1739> 85 150<556.5 657.5> 90 138<2.6647 408.973>
LayerCount: 2
Fore
SplineSet
232.029 -141 m 1
 198.016 -174 158.977 -193 124.977 -193 c 0
 102.177 -193 79.0391 -188 65.3779 -177 c 0
 50.1924 -164.7 40.3916 -144 46.1309 -117 c 0
 58.5869 -58.4004 94.8223 -25.2998 153.4 0 c 1
 122.379 -0.0996094 108.066 -1.09961 79.3623 -3 c 1
 78 0 l 1
 97.4785 54 112.318 105 128.26 180 c 2
 139.951 235 l 2
 155.893 310 159.221 368 160.36 411 c 1
 164.211 415 l 1
 204.849 418 292.187 429 319.312 439 c 1
 325.312 439 327.675 436 326.187 429 c 0
 308.221 368 297.293 326 281.352 251 c 2
 266.26 180 l 2
 250.105 104 244.115 57 240 0 c 1
 237.362 -3 l 1
 228.39 -2.40039 220.718 -1.7998 213.502 -1.40039 c 1
 164.473 -13.2998 143.12 -65.2998 135.744 -100 c 0
 131.28 -121 131.329 -149 157.329 -149 c 0
 174.329 -149 198.155 -131 215.344 -116 c 1
 218.131 -117 l 1
 232.029 -141 l 1
214.021 607 m 0
 222.524 647 262.113 678 304.113 678 c 0
 346.113 678 372.524 647 364.021 607 c 0
 355.52 567 315.931 536 273.931 536 c 0
 231.931 536 205.52 567 214.021 607 c 0
EndSplineSet
Colour: ff80cc
EndChar

StartChar: Idotaccent
Encoding: 304 304 68
Width: 351
VWidth: 999
Flags: HW
HStem: -3 21<94 178 178 262> 628 20<94 178 178 262> 691 142<123.5 232.5>
VStem: 103 150<711.5 812.5> 106 144<2.67992 642.32>
LayerCount: 2
Fore
SplineSet
264.968 762 m 0
 273.471 802 313.06 833 355.06 833 c 0
 397.06 833 423.471 802 414.968 762 c 0
 406.466 722 366.877 691 324.877 691 c 0
 282.877 691 256.466 722 264.968 762 c 0
200.588 445 m 2
 216.529 520 226.983 588 231.099 645 c 1
 233.736 648 l 1
 233.736 648 281.099 645 315.099 645 c 0
 350.099 645 398.736 648 398.736 648 c 1
 399.099 645 l 1
 379.834 592 360.529 520 344.588 445 c 2
 292.512 200 l 2
 276.569 125 266.115 57 262 0 c 1
 259.362 -3 l 1
 259.362 -3 212 0 178 0 c 0
 143 0 94.3623 -3 94.3623 -3 c 1
 94 0 l 1
 113.479 54 132.569 125 148.512 200 c 2
 200.588 445 l 2
EndSplineSet
Substitution2: "'c2sc' Versale nach Kapitaelchen 1" idotaccent.sc
Position2: "'cpsp' Versalabstaende 1" dx=2 dy=0 dh=5 dv=0
Colour: ff00ff
EndChar

StartChar: afii10057
Encoding: 1032 1032 69
Width: 385
VWidth: 999
Flags: HW
HStem: -10 60<57.8935 169.935> 628 20G<200 253 253 306>
VStem: 210 86<132.814 642.32>
AnchorPoint: "top_akzent" 423.32 806 basechar 0
AnchorPoint: "top_punkt" 404.679 723 basechar 0
LayerCount: 2
Fore
SplineSet
264.84 258 m 2
 304.588 445 l 2
 320.529 520 332.983 588 337.099 645 c 1
 339.736 648 l 1
 339.736 648 356.099 645 390.099 645 c 0
 425.099 645 442.736 648 442.736 648 c 1
 443.099 645 l 1
 423.834 592 406.529 520 390.588 445 c 2
 355.516 280 l 2
 331.178 165.5 314.517 135.1 247.028 66 c 0
 194.372 12.0996 135.874 -10 72.874 -10 c 0
 53.874 -10 36.7246 -6 29.7871 -1 c 1
 29.4248 2 l 1
 44.4639 21 62.1152 57 74.8545 84 c 1
 86.0674 85 l 1
 92.8164 65 107.628 50 136.628 50 c 0
 215.628 50 246.135 170 264.84 258 c 2
EndSplineSet
EndChar

StartChar: afii10061
Encoding: 1036 1036 70
Width: 632
VWidth: 999
Flags: HW
HStem: -3 21<96 149 149 202> -2 29<566 583> 323 43<187 280.713> 590 61<426.699 532.056> 628 20<96 149 149 202> 698 122
VStem: 106 86<2.67992 642.32> 288 201
LayerCount: 2
Fore
SplineSet
200.588 445 m 2
 216.529 520 226.983 588 231.099 645 c 1
 233.736 648 l 1
 233.736 648 281.099 645 315.099 645 c 0
 350.099 645 398.736 648 398.736 648 c 1
 399.099 645 l 1
 379.834 592 360.529 520 344.588 445 c 2
 330.07 376.7 l 1
 374.811 407 402.576 468 459.867 531 c 0
 516.367 593.1 588.862 658 666.862 658 c 0
 693.862 658 697.225 655 721.736 648 c 1
 725.461 642 l 1
 677.119 551 l 1
 664.481 548 l 1
 647.457 562 631.944 569 603.944 569 c 0
 580.944 569 540.906 550 494.703 502 c 0
 437.72 442.8 404.521 360 357.27 340 c 1
 356.632 337 l 1
 426.081 325 439.908 296.9 479.376 237 c 0
 543.415 139.8 530.918 89 596 0 c 1
 592.149 -4 l 1
 579.575 -2 541 0 516 0 c 0
 490 0 489.575 -2 466.149 -4 c 1
 434.517 73 423.869 117 406.922 169 c 0
 387.046 229.8 371.997 278.5 313.831 300.3 c 1
 292.512 200 l 2
 276.569 125 266.115 57 262 0 c 1
 259.362 -3 l 1
 259.362 -3 212 0 178 0 c 0
 143 0 94.3623 -3 94.3623 -3 c 1
 94 0 l 1
 113.479 54 132.569 125 148.512 200 c 2
 200.588 445 l 2
638.18 970 m 1
 661.605 951.3 675.127 918 677.963 889 c 1
 668.008 875.1 l 1
 506.635 831 l 2
 483.074 824.6 473.821 822 465.722 822 c 0
 457.621 822 453.122 838 455.035 847 c 0
 456.523 854 459.981 861.8 475.137 871 c 2
 638.18 970 l 1
EndSplineSet
LCarets2: 1 0 
Colour: ff00ff
EndChar

StartChar: uni040D
Encoding: 1037 1037 71
Width: 700
VWidth: 999
Flags: HW
HStem: -2 29<20 52 242 274 427 459 649 682> 618 28<20 52 242 274 426 459 649 681>
VStem: 106 81<35.9534 78 134 609.354> 514 81<36.3852 505 561 608.905>
DStem2: 187 134 187 78 0.608002 0.793935<0 493.367>
LayerCount: 2
Fore
SplineSet
493.18 970 m 1
 614.137 871 l 2
 625.381 861.8 625.523 854 624.035 847 c 0
 622.122 838 610.821 822 602.722 822 c 0
 594.621 822 586.475 824.6 565.635 831 c 2
 423.008 875.1 l 1
 418.963 889 l 1
 434.127 918 461.805 951.3 493.18 970 c 1
200.588 445 m 2
 216.529 520 226.983 588 231.099 645 c 1
 233.736 648 l 1
 233.736 648 281.099 645 315.099 645 c 0
 350.099 645 398.736 648 398.736 648 c 1
 399.099 645 l 1
 379.834 592 360.529 520 344.588 445 c 2
 295.976 216.3 l 1
 626.62 554.3 l 1
 631.528 586.8 635.09 617.2 637.099 645 c 1
 639.736 648 l 1
 639.736 648 687.099 645 721.099 645 c 0
 756.099 645 804.736 648 804.736 648 c 1
 805.099 645 l 1
 785.834 592 766.529 520 750.588 445 c 2
 698.512 200 l 2
 682.569 125 672.115 57 668 0 c 1
 665.362 -3 l 1
 665.362 -3 618 0 584 0 c 0
 549 0 500.362 -3 500.362 -3 c 1
 500 0 l 1
 519.479 54 538.569 125 554.512 200 c 2
 606.588 445 l 2
 610.69 464.3 614.386 483.1 617.775 501.4 c 1
 284.579 160.8 l 1
 273.132 101.3 265.369 46.9004 262 0 c 1
 259.362 -3 l 1
 259.362 -3 212 0 178 0 c 0
 143 0 94.3623 -3 94.3623 -3 c 1
 94 0 l 1
 113.479 54 132.569 125 148.512 200 c 2
 200.588 445 l 2
EndSplineSet
LCarets2: 1 0 
Colour: ff00ff
EndChar

StartChar: afii10062
Encoding: 1038 1038 72
Width: 580
VWidth: 999
Flags: HW
HStem: -22 62<133 229.447> 618 28<1 51.985 192 235 391 425 520.846 579> 697 31<266.536 357.309>
VStem: 187 70<735.681 802.162> 366 70<734.774 802.125>
DStem2: 170 575 88 559 0.41865 -0.908148<-32.5036 379.947> 283 136 342 161 0.370296 0.928914<-102.293 0 103.423 504.868>
LayerCount: 2
Fore
SplineSet
376.222 161 m 2
 305.399 54.0996 239.324 -22 149.324 -22 c 0
 107.324 -22 66.2129 1 73.0146 33 c 0
 78.9658 61 98.8545 84 130.854 84 c 0
 144.854 84 165.367 77 172.816 65 c 0
 177.903 56 190.565 45 204.565 45 c 0
 247.265 45 271.139 81.0996 307.996 138.3 c 1
 264.548 339.9 206.39 567.8 183.736 648 c 1
 200.099 645 226.099 645 243.099 645 c 0
 260.099 645 281.099 645 298.736 648 c 1
 300.96 618 324.022 470.1 374.745 242.5 c 1
 466.638 386.9 564.941 546.4 613.736 648 c 1
 625.099 645 652.099 645 663.099 645 c 0
 674.099 645 686.099 645 698.736 648 c 1
 376.222 161 l 2
470.48 755 m 0
 503.48 755 525.094 772 528.707 789 c 0
 529.77 794 530.045 800 530.471 802 c 0
 533.658 817 556.847 832 579.847 832 c 0
 606.847 832 613.871 818 609.833 799 c 0
 598.779 747 527.766 714 461.766 714 c 0
 395.766 714 338.779 747 349.833 799 c 0
 353.871 818 366.847 832 393.847 832 c 0
 416.847 832 433.658 817 430.471 802 c 0
 430.045 800 427.77 794 426.707 789 c 0
 423.094 772 437.48 755 470.48 755 c 0
EndSplineSet
LCarets2: 1 0 
Colour: ff00ff
EndChar

StartChar: afii10020
Encoding: 1043 1043 73
Width: 563
VWidth: 999
Flags: HW
HStem: -3 21<88 142 142 195> 591 54<189.662 412.584>
VStem: 99 86<2.67992 589.791>
LayerCount: 2
Fore
SplineSet
339.462 435 m 2
 289.512 200 l 2
 273.569 125 260.266 53 257 0 c 1
 255.362 -3 l 1
 255.362 -3 208 0 173 0 c 0
 139 0 93.3623 -3 93.3623 -3 c 1
 92 0 l 1
 112.115 57 129.569 125 145.512 200 c 2
 197.588 445 l 2
 213.529 520 226.621 591 230.099 645 c 1
 231.736 648 l 1
 231.736 648 280.099 645 314.099 645 c 2
 618.099 645 l 2
 639.099 645 662.312 646 678.736 648 c 1
 680.099 645 l 1
 676.123 631 671.297 613 669.172 603 c 0
 667.046 593 659.756 554 659.056 546 c 1
 656.206 542 l 1
 656.206 542 508.882 564 374.882 564 c 1
 362.78 540 343.075 452 339.462 435 c 2
EndSplineSet
Colour: ff00ff
EndChar

StartChar: afii10021
Encoding: 1044 1044 74
Width: 708
VWidth: 999
Flags: HW
HStem: 0 44<192.009 452.856> 601 44<276.411 452.674>
VStem: 39 36<-138 -59.5127> 461 86<60.1801 586.818> 570 36<-138 -59.5127>
LayerCount: 2
Fore
SplineSet
434.353 44 m 2
 452.353 44 460.628 50 465.541 59 c 0
 477.643 83 499.897 183 503.512 200 c 2
 555.588 445 l 2
 559.201 462 579.882 564 577.983 588 c 1
 572.896 597 569.746 601 554.746 601 c 2
 440.746 601 l 2
 413.746 601 401.621 591 394.307 566 c 0
 364.739 465 327.732 361 301.279 293 c 0
 254.41 176 208.367 77 203.903 56 c 0
 201.353 44 214.353 44 228.353 44 c 2
 434.353 44 l 2
178 0 m 2
 98 0 72.1836 -65 45.667 -138 c 1
 43.0293 -141 l 1
 11.0293 -141 l 1
 9.66699 -138 l 1
 29.3379 11 l 2
 31.4639 21 38.1641 29 63.8018 32 c 0
 84.4121 34.4004 104.802 32 121.99 47 c 0
 153.517 73 186.82 145 251.979 301 c 1
 298.211 415 332.104 518 345.495 581 c 0
 350.172 603 351.848 625 353.099 645 c 1
 354.736 648 l 1
 354.736 648 381.099 645 415.099 645 c 2
 641.099 645 l 2
 675.099 645 693.736 648 693.736 648 c 1
 694.099 645 l 1
 674.621 591 657.529 520 641.588 445 c 2
 589.512 200 l 2
 566.13 90 561.439 35 594.802 32 c 0
 619.334 29.7998 622.464 21 620.338 11 c 2
 576.667 -138 l 1
 574.029 -141 l 1
 542.029 -141 l 1
 540.667 -138 l 1
 545.184 -65 547 0 467 0 c 2
 178 0 l 2
EndSplineSet
EndChar

StartChar: afii10024
Encoding: 1046 1046 75
Width: 924
VWidth: 999
Flags: HW
HStem: -4 21G<35 44.5 147 181 743 777 879.5 889> -3 21<409 483 483 557> 312 45<364.57 424 500 559.43> 569 89<70.0289 172.306 751.694 853.971> 628 20<409 483 483 557>
VStem: 419 128<2.67992 642.32>
LayerCount: 2
Fore
SplineSet
284.922 169 m 0
 247.869 117 219.517 73 157.149 -4 c 1
 135.575 -2 136 0 111 0 c 0
 88 0 50.5752 -2 37.1494 -4 c 1
 35 0 l 1
 133.918 89 142.758 140 244.376 237 c 0
 307.129 297 331.081 325 402.632 337 c 1
 403.27 340 l 1
 366.521 360 369.062 443 339.703 502 c 0
 315.806 550 285.944 569 263.944 569 c 0
 236.944 569 219.457 562 197.481 548 c 1
 187.119 551 l 1
 178.461 642 l 1
 184.736 648 l 1
 211.225 655 214.862 658 240.862 658 c 0
 314.862 658 356.946 593 384.867 531 c 0
 424.211 443.7 411.384 360.3 494.904 357.1 c 1
 513.588 445 l 2
 529.529 520 539.983 588 544.099 645 c 1
 546.736 648 l 1
 546.736 648 594.099 645 628.099 645 c 0
 663.099 645 711.736 648 711.736 648 c 1
 712.099 645 l 1
 692.834 592 673.529 520 657.588 445 c 2
 643.687 379.6 l 1
 684.197 410.7 711.38 469.9 764.867 531 c 0
 819.146 593 888.862 658 962.862 658 c 0
 988.862 658 991.225 655 1014.74 648 c 1
 1018.46 642 l 1
 971.119 551 l 1
 959.481 548 l 1
 943.457 562 928.944 569 901.944 569 c 0
 879.944 569 842.006 550 797.703 502 c 0
 743.263 443 710.521 360 665.27 340 c 1
 664.632 337 l 1
 731.081 325 743.129 297 780.376 237 c 0
 840.758 140 827.918 89 889 0 c 1
 885.149 -4 l 1
 872.575 -2 836 0 813 0 c 0
 788 0 787.575 -2 765.149 -4 c 1
 735.517 73 725.869 117 710.922 169 c 0
 693.012 228.7 679.015 276.7 626.576 299.1 c 1
 605.512 200 l 2
 589.569 125 579.115 57 575 0 c 1
 572.362 -3 l 1
 572.362 -3 525 0 491 0 c 0
 456 0 407.362 -3 407.362 -3 c 1
 407 0 l 1
 426.479 54 445.569 125 461.512 200 c 2
 485.232 311.6 l 1
 381.526 303.1 340.646 245.8 284.922 169 c 0
EndSplineSet
Colour: ff80cc
EndChar

StartChar: afii10025
Encoding: 1047 1047 76
Width: 542
VWidth: 999
Flags: HW
HStem: -12 37<172.536 324.196> 336 37<158.005 306.843> 469 21G<49 91> 624 34<165.85 309.892>
VStem: 49 30<470.533 513.383> 375 80<432.684 569.184> 405 92<100.605 254.446>
LayerCount: 2
Fore
SplineSet
253.313 25 m 0
 323.313 25 419.454 68 442.41 176 c 0
 453.25 227 437.419 336 320.419 336 c 2
 247.419 336 l 2
 236.419 336 230.907 343 233.245 354 c 0
 235.583 365 244.283 373 255.283 373 c 2
 302.283 373 l 2
 421.283 373 470.863 451 482.554 506 c 0
 496.795 573 443.636 624 381.636 624 c 0
 258.636 624 219.906 550 178.689 469 c 1
 149.114 471 l 1
 206.312 646 l 1
 293.312 646 330.862 658 390.862 658 c 0
 483.862 658 584.872 611 564.68 516 c 0
 547.887 437 494.26 387 416.521 360 c 1
 483.27 340 560.555 299 537.811 192 c 0
 505.715 41 360.449 -12 242.449 -12 c 0
 161.449 -12 119.039 19 93.1396 43 c 0
 70.6035 64 55.3428 91 61.082 118 c 0
 66.6084 144 82.0723 165 105.072 165 c 0
 133.072 165 140.309 152 144.507 120 c 0
 152.541 59 177.313 25 253.313 25 c 0
EndSplineSet
EndChar

StartChar: afii10026
Encoding: 1048 1048 77
Width: 700
VWidth: 999
Flags: HW
HStem: -3 21<96 170 170 244 502 576 576 650> 628 20<96 170 170 244 502 576 576 650>
VStem: 106 128<2.67992 642.32> 512 128<2.67992 642.32>
DStem2: 187 134 187 78 0.608002 0.793935<0 493.367>
LayerCount: 2
Fore
SplineSet
200.588 445 m 2
 216.529 520 226.983 588 231.099 645 c 1
 233.736 648 l 1
 233.736 648 281.099 645 315.099 645 c 0
 350.099 645 398.736 648 398.736 648 c 1
 399.099 645 l 1
 379.834 592 360.529 520 344.588 445 c 2
 295.976 216.3 l 1
 626.62 554.3 l 1
 631.528 586.8 635.09 617.2 637.099 645 c 1
 639.736 648 l 1
 639.736 648 687.099 645 721.099 645 c 0
 756.099 645 804.736 648 804.736 648 c 1
 805.099 645 l 1
 785.834 592 766.529 520 750.588 445 c 2
 698.512 200 l 2
 682.569 125 672.115 57 668 0 c 1
 665.362 -3 l 1
 665.362 -3 618 0 584 0 c 0
 549 0 500.362 -3 500.362 -3 c 1
 500 0 l 1
 519.479 54 538.569 125 554.512 200 c 2
 606.588 445 l 2
 610.69 464.3 614.386 483.1 617.775 501.4 c 1
 284.579 160.8 l 1
 273.132 101.3 265.369 46.9004 262 0 c 1
 259.362 -3 l 1
 259.362 -3 212 0 178 0 c 0
 143 0 94.3623 -3 94.3623 -3 c 1
 94 0 l 1
 113.479 54 132.569 125 148.512 200 c 2
 200.588 445 l 2
EndSplineSet
EndChar

StartChar: afii10027
Encoding: 1049 1049 78
Width: 700
VWidth: 999
Flags: HW
HStem: -2 29<20 52 242 274 427 459 649 682> 618 28<20 52 242 274 426 459 649 681> 697 31<305.536 396.309>
VStem: 106 81<35.9534 78 134 609.354> 226 70<735.681 802.162> 405 70<734.774 802.125> 514 81<36.3852 505 561 608.905>
DStem2: 187 134 187 78 0.608002 0.793935<0 493.367>
LayerCount: 2
Fore
SplineSet
200.588 445 m 2
 216.529 520 226.983 588 231.099 645 c 1
 233.736 648 l 1
 233.736 648 281.099 645 315.099 645 c 0
 350.099 645 398.736 648 398.736 648 c 1
 399.099 645 l 1
 379.834 592 360.529 520 344.588 445 c 2
 295.976 216.3 l 1
 626.62 554.3 l 1
 631.528 586.8 635.09 617.2 637.099 645 c 1
 639.736 648 l 1
 639.736 648 687.099 645 721.099 645 c 0
 756.099 645 804.736 648 804.736 648 c 1
 805.099 645 l 1
 785.834 592 766.529 520 750.588 445 c 2
 698.512 200 l 2
 682.569 125 672.115 57 668 0 c 1
 665.362 -3 l 1
 665.362 -3 618 0 584 0 c 0
 549 0 500.362 -3 500.362 -3 c 1
 500 0 l 1
 519.479 54 538.569 125 554.512 200 c 2
 606.588 445 l 2
 610.69 464.3 614.386 483.1 617.775 501.4 c 1
 284.579 160.8 l 1
 273.132 101.3 265.369 46.9004 262 0 c 1
 259.362 -3 l 1
 259.362 -3 212 0 178 0 c 0
 143 0 94.3623 -3 94.3623 -3 c 1
 94 0 l 1
 113.479 54 132.569 125 148.512 200 c 2
 200.588 445 l 2
510.48 755 m 0
 543.48 755 565.094 772 568.707 789 c 0
 569.77 794 570.045 800 570.471 802 c 0
 573.658 817 596.847 832 619.847 832 c 0
 646.847 832 653.871 818 649.833 799 c 0
 638.779 747 567.766 714 501.766 714 c 0
 435.766 714 378.779 747 389.833 799 c 0
 393.871 818 406.847 832 433.847 832 c 0
 456.847 832 473.658 817 470.471 802 c 0
 470.045 800 467.77 794 466.707 789 c 0
 463.094 772 477.48 755 510.48 755 c 0
EndSplineSet
LCarets2: 1 0 
Colour: ff00ff
EndChar

StartChar: afii10033
Encoding: 1055 1055 79
Width: 804
VWidth: 999
Flags: HW
HStem: -3 21<90 144 144 197 511 564 564 618> 601 44<195.326 512.674>
VStem: 101 86<2.67992 586.818> 521 86<2.67992 586.818>
LayerCount: 2
Fore
SplineSet
779.099 645 m 2
 813.099 645 849.736 648 849.736 648 c 1
 850.099 645 l 1
 830.621 591 813.529 520 797.588 445 c 2
 745.512 200 l 2
 729.569 125 718.115 57 714 0 c 1
 711.362 -3 l 1
 711.362 -3 676 0 642 0 c 0
 607 0 549.362 -3 549.362 -3 c 1
 549 0 l 1
 568.266 53 585.569 125 601.512 200 c 2
 653.588 445 l 2
 657.201 462 674.481 548 672.582 572 c 1
 667.495 581 664.346 585 649.346 585 c 2
 403.346 585 l 2
 388.346 585 383.495 581 374.582 572 c 1
 362.481 548 343.201 462 339.588 445 c 2
 287.512 200 l 2
 271.569 125 258.266 53 255 0 c 1
 253.362 -3 l 1
 253.362 -3 209 0 174 0 c 0
 140 0 91.3623 -3 91.3623 -3 c 1
 90 0 l 1
 110.115 57 127.569 125 143.512 200 c 2
 195.588 445 l 2
 211.529 520 224.621 591 228.099 645 c 1
 229.736 648 l 1
 229.736 648 277.099 645 311.099 645 c 2
 779.099 645 l 2
EndSplineSet
Colour: ff00ff
EndChar

StartChar: afii10034
Encoding: 1056 1056 80
Width: 603
VWidth: 999
Flags: HW
HStem: -3 21<93 165 165 239> 282 43<229.825 382.127> 609 43<199.753 387.631>
VStem: 103 126<2.67992 292 328.76 600.25> 420 139<404.457 553.964>
LayerCount: 2
Fore
SplineSet
354.031 560 m 2
 306.206 335 l 1
 317.719 328 358.081 325 383.081 325 c 0
 447.181 325 500.008 367 521.477 468 c 0
 546.771 587 502.384 604 443.384 604 c 0
 371.384 604 360.195 589 354.031 560 c 2
187.588 445 m 2
 203.529 520 213.983 588 218.099 645 c 1
 220.736 648 l 1
 220.736 648 268.099 645 302.099 645 c 0
 332.099 645 454.587 652 480.587 652 c 0
 551.687 652 604.289 642.6 634.36 618 c 0
 682.07 579 684.019 522.3 676.303 486 c 0
 658.235 401 565.24 274 383.24 274 c 0
 348.24 274 315.878 277 295.366 284 c 1
 277.512 200 l 2
 261.569 125 251.115 57 247 0 c 1
 244.362 -3 l 1
 244.362 -3 199 0 165 0 c 0
 130 0 81.3623 -3 81.3623 -3 c 1
 81 0 l 1
 100.479 54 119.569 125 135.512 200 c 2
 187.588 445 l 2
EndSplineSet
Colour: ff00ff
EndChar

StartChar: afii10035
Encoding: 1057 1057 81
Width: 691
VWidth: 999
Flags: HW
HStem: -10 60<292.337 479.108> 602 56<291.317 481.844>
VStem: 37 145<196.877 427.375>
LayerCount: 2
Fore
SplineSet
545.862 658 m 0
 667.862 658 754.297 613 754.297 613 c 1
 755.659 610 l 1
 733.381 560.7 722.468 531 708.027 480 c 1
 677.814 479 l 1
 654.244 561 609.959 602 519.959 602 c 0
 437.959 602 314.143 537 270.994 334 c 0
 241.023 193 302.628 50 411.628 50 c 0
 504.628 50 553.241 67 643.545 139 c 1
 660.318 105 l 1
 557.826 18 469.074 -10 379.874 -10 c 0
 295.074 -10 222.831 15.2002 175.903 56 c 0
 103.909 118.6 83.2314 217.5 103.955 315 c 0
 127.315 424.9 193.118 522.3 285.133 584 c 0
 358.006 632.8 454.862 658 545.862 658 c 0
EndSplineSet
Colour: ff00ff
EndChar

StartChar: afii10036
Encoding: 1058 1058 82
Width: 602
VWidth: 999
Flags: HW
HStem: -3 21<217 291 291 365> 577 68<17.7551 222.338 359.662 564.245>
VStem: 227 128<2.67992 575.82>
LayerCount: 2
Fore
SplineSet
321.675 436 m 2
 325.288 453 343.418 543 341.52 567 c 1
 207.52 567 132.844 545 132.844 545 c 1
 131.693 549 l 1
 136.882 564 148.147 617 152.099 645 c 1
 154.736 648 l 1
 170.312 646 193.099 645 214.099 645 c 2
 662.099 645 l 2
 683.099 645 706.312 646 722.736 648 c 1
 724.099 645 l 1
 716.147 617 704.882 564 703.693 549 c 1
 700.844 545 l 1
 700.844 545 635.52 567 501.52 567 c 1
 489.418 543 469.288 453 465.675 436 c 2
 415.512 200 l 2
 399.569 125 387.115 57 383 0 c 1
 380.362 -3 l 1
 380.362 -3 335 0 301 0 c 0
 266 0 219.362 -3 219.362 -3 c 1
 219 0 l 1
 238.479 54 255.569 125 271.512 200 c 2
 321.675 436 l 2
EndSplineSet
Colour: ff00ff
EndChar

StartChar: afii10037
Encoding: 1059 1059 83
Width: 580
VWidth: 999
Flags: HW
HStem: -22 67<133 228.079> 628 20G<54.5 65.8588 152.5 165.28 462.421 482 552.006 555>
DStem2: 278.595 138.281 342 161 0.410131 0.912027<-105.377 13.9628 113.393 328.053>
LayerCount: 2
Fore
SplineSet
376.222 161 m 2
 305.399 54.0996 239.324 -22 149.324 -22 c 0
 107.324 -22 66.2129 1 73.0146 33 c 0
 78.9658 61 98.8545 84 130.854 84 c 0
 144.854 84 165.367 77 172.816 65 c 0
 177.903 56 190.565 45 204.565 45 c 0
 247.265 45 271.139 81.0996 307.996 138.3 c 1
 264.548 339.9 206.39 567.8 183.736 648 c 1
 200.099 645 226.099 645 243.099 645 c 0
 260.099 645 281.099 645 298.736 648 c 1
 300.96 618 324.022 470.1 374.745 242.5 c 1
 466.638 386.9 564.941 546.4 613.736 648 c 1
 625.099 645 652.099 645 663.099 645 c 0
 674.099 645 686.099 645 698.736 648 c 1
 376.222 161 l 2
EndSplineSet
EndChar

StartChar: afii10039
Encoding: 1061 1061 84
Width: 643
VWidth: 999
Flags: HW
HStem: -2 28<4 61 169 190 398 420 570 617> 586 27<411 444 538 597>
DStem2: 122 99 155 73 0.593199 0.805056<-35.2356 230.04 328.87 586.289> 191 543 249 326 0.578967 -0.815351<-35.4928 216.477 291.97 559.314>
LayerCount: 2
Fore
SplineSet
605.362 -3 m 1
 588 0 545 0 527 0 c 0
 509 0 446 0 427.362 -3 c 1
 400.899 82.7998 377.497 154.3 348.153 233.6 c 1
 284.66 159.3 219.619 79.5996 157.362 -3 c 1
 147 0 118 0 106 0 c 0
 95 0 54 0 42.3623 -3 c 1
 319.982 307.6 l 1
 284.728 397.2 240.089 502.4 175.736 648 c 1
 192.099 645 255.099 645 272.099 645 c 0
 289.099 645 332.099 645 350.736 648 c 1
 365.28 594.1 389.327 529.4 429.608 429.1 c 1
 512.221 520.9 544.861 559.2 611.736 648 c 1
 622.099 645 663.099 645 674.099 645 c 0
 685.099 645 715.099 645 726.736 648 c 1
 457.986 358.9 l 1
 605.362 -3 l 1
EndSplineSet
Colour: ff00ff
EndChar

StartChar: afii10040
Encoding: 1062 1062 85
Width: 639
VWidth: 999
Flags: HW
HStem: 0 44<183.144 451.533> 628 20G<78 132 132 185 448 501 501 555>
VStem: 89 86<60.1801 642.32> 458 86<46.9378 642.32> 566 36<-138 -59.6869>
LayerCount: 2
Fore
SplineSet
586.512 200 m 2
 563.13 90 557.64 35 590.802 32 c 0
 615.234 29.7998 618.4 20.7002 616.338 11 c 2
 572.667 -138 l 1
 570.029 -141 l 1
 538.029 -141 l 1
 536.667 -138 l 1
 541.199 -65.4004 542.7 0 463 0 c 2
 132 0 l 2
 98 0 79.3623 -3 79.3623 -3 c 1
 79 0 l 1
 98.4785 54 115.569 125 131.512 200 c 2
 183.588 445 l 2
 199.529 520 210.983 588 215.099 645 c 1
 217.736 648 l 1
 217.736 648 235.099 645 269.099 645 c 0
 304.099 645 321.736 648 321.736 648 c 1
 322.099 645 l 1
 302.834 592 285.529 520 269.588 445 c 2
 217.512 200 l 2
 213.897 183 193.643 83 195.541 59 c 0
 196.628 50 202.353 44 220.353 44 c 2
 431.353 44 l 2
 449.353 44 457.628 50 462.541 59 c 0
 474.643 83 496.897 183 500.512 200 c 2
 552.588 445 l 2
 568.529 520 581.834 592 585.099 645 c 1
 586.736 648 l 1
 586.736 648 603.099 645 638.099 645 c 0
 672.099 645 690.736 648 690.736 648 c 1
 692.099 645 l 1
 671.983 588 654.529 520 638.588 445 c 2
 586.512 200 l 2
EndSplineSet
EndChar

StartChar: afii10041
Encoding: 1063 1063 86
Width: 633
VWidth: 999
Flags: HW
HStem: -3 21<436 510 510 584> 244 64<213.903 364.049> 628 20G<84 137 137 190 436 510 510 584>
VStem: 94 86<340.66 642.32> 446 128<2.67992 642.32>
LayerCount: 2
Fore
SplineSet
274.588 445 m 2
 268.636 417 l 2
 251.206 335 285.468 308 357.468 308 c 0
 385.968 308 449.297 311.9 521.032 353 c 1
 540.588 445 l 2
 556.529 520 566.983 588 571.099 645 c 1
 573.736 648 l 1
 573.736 648 621.099 645 655.099 645 c 0
 690.099 645 738.736 648 738.736 648 c 1
 739.099 645 l 1
 719.834 592 700.529 520 684.588 445 c 2
 632.512 200 l 2
 616.569 125 606.115 57 602 0 c 1
 599.362 -3 l 1
 599.362 -3 552 0 518 0 c 0
 483 0 434.362 -3 434.362 -3 c 1
 434 0 l 1
 453.479 54 472.569 125 488.512 200 c 2
 511.659 308.9 l 1
 429.259 259.5 359.063 244 301.864 244 c 0
 187.864 244 162.656 323 183.699 422 c 2
 188.588 445 l 2
 204.529 520 216.983 588 221.099 645 c 1
 223.736 648 l 1
 223.736 648 240.099 645 274.099 645 c 0
 309.099 645 326.736 648 326.736 648 c 1
 327.099 645 l 1
 307.834 592 290.529 520 274.588 445 c 2
EndSplineSet
EndChar

StartChar: afii10042
Encoding: 1064 1064 87
Width: 960
VWidth: 999
Flags: HW
HStem: 0 44<197.144 430.533 531.144 766.533> 628 20G<92 146 146 199 426 480 480 533 763 816 816 870>
VStem: 103 86<60.1801 642.32> 437 86<60.1801 642.32> 773 86<47.6754 642.32>
LayerCount: 2
Fore
SplineSet
901.512 200 m 2
 885.869 125 873.115 57 869 0 c 1
 866.362 -3 l 1
 866.362 -3 850 0 816 0 c 2
 147 0 l 2
 112 0 93.3623 -3 93.3623 -3 c 1
 93 0 l 1
 112.479 54 129.569 125 145.512 200 c 2
 197.588 445 l 2
 213.529 520 224.983 588 229.099 645 c 1
 231.736 648 l 1
 231.736 648 249.099 645 283.099 645 c 0
 318.099 645 335.736 648 335.736 648 c 1
 336.099 645 l 1
 316.834 592 299.529 520 283.588 445 c 2
 231.512 200 l 2
 227.897 183 207.643 83 209.541 59 c 0
 210.628 50 216.353 44 234.353 44 c 2
 410.353 44 l 2
 428.353 44 436.628 50 441.541 59 c 0
 453.643 83 475.897 183 479.512 200 c 2
 531.588 445 l 2
 547.529 520 558.983 588 563.099 645 c 1
 565.736 648 l 1
 565.736 648 583.099 645 617.099 645 c 0
 652.099 645 669.736 648 669.736 648 c 1
 670.099 645 l 1
 650.834 592 633.529 520 617.588 445 c 2
 565.512 200 l 2
 561.897 183 541.643 83 543.541 59 c 0
 544.628 50 550.353 44 568.353 44 c 2
 746.353 44 l 2
 764.353 44 772.628 50 777.541 59 c 0
 789.643 83 811.897 183 815.512 200 c 2
 867.588 445 l 2
 883.529 520 896.834 592 900.099 645 c 1
 901.736 648 l 1
 901.736 648 918.099 645 953.099 645 c 0
 987.099 645 1005.74 648 1005.74 648 c 1
 1007.1 645 l 1
 986.983 588 969.529 520 953.588 445 c 2
 901.512 200 l 2
EndSplineSet
EndChar

StartChar: afii10043
Encoding: 1065 1065 88
Width: 948
VWidth: 999
Flags: HW
HStem: 0 44<197.144 430.533 531.144 766.533> 628 20G<92 146 146 199 426 480 480 533 763 816 816 870>
VStem: 103 86<60.1801 642.32> 437 86<60.1801 642.32> 773 86<46.9378 642.32> 881 36<-138 -59.6869>
LayerCount: 2
Fore
SplineSet
147 0 m 2
 112 0 93.3623 -3 93.3623 -3 c 1
 93 0 l 1
 112.479 54 129.569 125 145.512 200 c 2
 197.588 445 l 2
 213.529 520 224.983 588 229.099 645 c 1
 231.736 648 l 1
 231.736 648 249.099 645 283.099 645 c 0
 318.099 645 335.736 648 335.736 648 c 1
 336.099 645 l 1
 316.834 592 299.529 520 283.588 445 c 2
 231.512 200 l 2
 227.897 183 207.643 83 209.541 59 c 0
 210.628 50 216.353 44 234.353 44 c 2
 410.353 44 l 2
 428.353 44 436.628 50 441.541 59 c 0
 453.643 83 475.897 183 479.512 200 c 2
 531.588 445 l 2
 547.529 520 558.983 588 563.099 645 c 1
 565.736 648 l 1
 565.736 648 583.099 645 617.099 645 c 0
 652.099 645 669.736 648 669.736 648 c 1
 670.099 645 l 1
 650.834 592 633.529 520 617.588 445 c 2
 565.512 200 l 2
 561.897 183 541.643 83 543.541 59 c 0
 544.628 50 550.353 44 568.353 44 c 2
 746.353 44 l 2
 764.353 44 772.628 50 777.541 59 c 0
 789.643 83 811.897 183 815.512 200 c 2
 867.588 445 l 2
 883.529 520 896.834 592 900.099 645 c 1
 901.736 648 l 1
 901.736 648 918.099 645 953.099 645 c 0
 987.099 645 1005.74 648 1005.74 648 c 1
 1007.1 645 l 1
 986.983 588 969.529 520 953.588 445 c 2
 901.512 200 l 2
 878.13 90 872.739 35 905.802 32 c 0
 930.234 29.7998 933.4 20.7002 931.338 11 c 2
 887.667 -138 l 1
 885.029 -141 l 1
 853.029 -141 l 1
 851.667 -138 l 1
 856.199 -65.4004 857.7 0 778 0 c 2
 147 0 l 2
EndSplineSet
EndChar

StartChar: afii10044
Encoding: 1066 1066 89
Width: 717
VWidth: 999
Flags: HW
HStem: -2 35<330.629 502.725> 329 44<348 522.728> 569 21G<50 254> 581 64<52.7551 257.32>
VStem: 262 86<37.7419 329 373 578.197> 587 94<103.061 266.903>
LayerCount: 2
Fore
SplineSet
417.931 329 m 1
 365.854 84 l 2
 358.841 51 357.015 33 412.015 33 c 0
 564.015 33 612.72 121 625.897 183 c 0
 638.651 243 630.931 329 502.931 329 c 2
 417.931 329 l 1
439.099 645 m 2
 477.099 645 494.736 648 494.736 648 c 1
 495.099 645 l 1
 475.834 592 460.63 520 442.588 445 c 1
 427.283 373 l 1
 485.283 373 l 2
 731.283 373 738.815 272 719.897 183 c 0
 684.4 16 523.575 -2 402.575 -2 c 0
 366.575 -2 336 0 307 0 c 0
 273 0 252.362 -3 252.362 -3 c 1
 252 0 l 1
 271.479 54 288.569 125 304.512 200 c 2
 356.588 445 l 2
 360.001 462 379.394 557 377.495 581 c 1
 243.495 581 172.944 569 172.944 569 c 1
 171.795 573 l 1
 176.983 588 183.147 617 187.099 645 c 1
 189.736 648 l 1
 205.312 646 228.099 645 249.099 645 c 2
 439.099 645 l 2
EndSplineSet
EndChar

StartChar: afii10045
Encoding: 1067 1067 90
Width: 786
VWidth: 999
Flags: HW
HStem: -2 21<588 662 662 736> -2 35<171.629 343.725> 329 44<189 363.728> 628 20<92 146 146 199> 629 20<588 662 662 736>
VStem: 103 86<37.7419 329 373 642.32> 428 94<103.061 266.903> 598 128<3.67992 643.32>
LayerCount: 2
Fore
SplineSet
692.8 446 m 2
 708.742 521 719.195 589 723.312 646 c 1
 725.949 649 l 1
 725.949 649 773.312 646 807.312 646 c 0
 842.312 646 890.949 649 890.949 649 c 1
 891.312 646 l 1
 872.046 593 852.742 521 836.8 446 c 2
 784.724 201 l 2
 768.782 126 758.328 58 754.213 1 c 1
 751.575 -2 l 1
 751.575 -2 704.213 1 670.213 1 c 0
 635.213 1 586.575 -2 586.575 -2 c 1
 586.213 1 l 1
 605.69 55 624.782 126 640.724 201 c 2
 692.8 446 l 2
148 0 m 0
 114 0 93.3623 -3 93.3623 -3 c 1
 93 0 l 1
 112.479 54 129.569 125 145.512 200 c 2
 197.588 445 l 2
 213.529 520 224.983 588 229.099 645 c 1
 231.736 648 l 1
 231.736 648 249.099 645 283.099 645 c 0
 318.099 645 335.736 648 335.736 648 c 1
 336.099 645 l 1
 316.834 592 299.529 520 283.588 445 c 2
 268.283 373 l 1
 326.283 373 l 2
 572.283 373 579.815 272 560.897 183 c 0
 525.4 16 364.575 -2 243.575 -2 c 0
 207.575 -2 177 0 148 0 c 0
258.931 329 m 1
 206.854 84 l 2
 199.841 51 198.015 33 253.015 33 c 0
 405.015 33 453.72 121 466.897 183 c 0
 479.651 243 471.931 329 343.931 329 c 2
 258.931 329 l 1
EndSplineSet
Colour: ff00ff
EndChar

StartChar: afii10046
Encoding: 1068 1068 91
Width: 558
VWidth: 999
Flags: HW
HStem: -2 35<171.629 343.725> 329 44<189 363.728> 628 20G<92 146 146 199>
VStem: 103 86<37.7419 329 373 642.32> 428 94<103.061 266.903>
LayerCount: 2
Fore
SplineSet
148 0 m 0
 114 0 93.3623 -3 93.3623 -3 c 1
 93 0 l 1
 112.479 54 129.569 125 145.512 200 c 2
 197.588 445 l 2
 213.529 520 224.983 588 229.099 645 c 1
 231.736 648 l 1
 231.736 648 249.099 645 283.099 645 c 0
 318.099 645 335.736 648 335.736 648 c 1
 336.099 645 l 1
 316.834 592 299.529 520 283.588 445 c 2
 268.283 373 l 1
 326.283 373 l 2
 572.283 373 579.815 272 560.897 183 c 0
 525.4 16 364.575 -2 243.575 -2 c 0
 207.575 -2 177 0 148 0 c 0
258.931 329 m 1
 206.854 84 l 2
 199.841 51 198.015 33 253.015 33 c 0
 405.015 33 453.72 121 466.897 183 c 0
 479.651 243 471.931 329 343.931 329 c 2
 258.931 329 l 1
EndSplineSet
EndChar

StartChar: afii10047
Encoding: 1069 1069 92
Width: 604
VWidth: 999
Flags: HMW
HStem: -12 34<194 359> 273 56<309 422> 311 49<155 284> 621 37<189 346>
VStem: 472 89<186 307 344 460>
LayerCount: 2
Fore
SplineSet
537.255 307 m 1
 475.028 273 431.028 273 418.028 273 c 0
 356.028 273 321.105 311 262.105 311 c 0
 224.105 311 204.704 295 196.704 295 c 0
 192.704 295 188.342 298 190.255 307 c 0
 195.568 332 264.521 360 323.521 360 c 0
 389.521 360 411.931 329 469.931 329 c 0
 498.931 329 523.206 335 544.119 344 c 1
 577.906 550 483.998 621 402.998 621 c 0
 307.998 621 212.78 540 168.501 454 c 1
 139.351 458 l 1
 161.616 511 179.606 558 193.297 613 c 1
 251.935 616 313.862 658 418.862 658 c 0
 583.862 658 677.906 550 631.781 333 c 0
 585.019 113 442.449 -12 272.449 -12 c 0
 186.449 -12 137.039 19 111.14 43 c 0
 88.6035 64 74.1934 95 79.9316 122 c 0
 85.458 148 101.072 165 119.072 165 c 0
 148.072 165 157.309 152 160.507 120 c 0
 169.203 48 218.464 21 290.464 21 c 0
 417.464 21 506.922 169 537.255 307 c 1
EndSplineSet
EndChar

StartChar: afii10048
Encoding: 1070 1070 93
Width: 905
VWidth: 999
Flags: HW
HStem: -12 39<517.224 661.561> -3 21<96 170 170 244> 302 44<187 285> 619 39<495.321 644.165> 628 20<96 170 170 244>
VStem: 106 128<2.67992 642.32> 285 96<193.326 302 346 446.919> 770 96<190.805 458.298>
LayerCount: 2
Fore
SplineSet
693.572 619 m 0
 609.572 619 495.143 537 450.506 327 c 0
 409.695 135 489.739 27 597.739 27 c 0
 700.739 27 797.845 131 835.893 310 c 0
 880.104 518 818.572 619 693.572 619 c 0
200.588 445 m 2
 216.529 520 226.983 588 231.099 645 c 1
 233.736 648 l 1
 233.736 648 281.099 645 315.099 645 c 0
 350.099 645 398.736 648 398.736 648 c 1
 399.099 645 l 1
 379.834 592 360.529 520 344.588 445 c 2
 323.545 346 l 1
 359.545 346 l 1
 410.592 525 556.862 658 712.862 658 c 0
 880.862 658 978.018 527 935.931 329 c 0
 893.42 129 749.449 -12 571.449 -12 c 0
 413.449 -12 309.956 108 349.192 302 c 1
 314.192 302 l 1
 292.512 200 l 2
 276.569 125 266.115 57 262 0 c 1
 259.362 -3 l 1
 259.362 -3 212 0 178 0 c 0
 143 0 94.3623 -3 94.3623 -3 c 1
 94 0 l 1
 113.479 54 132.569 125 148.512 200 c 2
 200.588 445 l 2
EndSplineSet
EndChar

StartChar: afii10049
Encoding: 1071 1071 94
Width: 561
VWidth: 999
Flags: HW
HStem: -3 21G<0 12 112.5 127.5 370 423 423 476> 286 44<273.038 380> 613 39<216.656 397.701>
VStem: 71 97<391.218 564.52> 380 86<2.67992 286 330 603.161>
LayerCount: 2
Fore
SplineSet
427.297 613 m 0
 366.297 613 294.684 596 269.602 478 c 0
 243.032 353 305.144 330 402.144 330 c 2
 450.144 330 l 1
 500.944 569 l 2
 507.108 598 498.297 613 427.297 613 c 0
282.967 300 m 1
 263.851 305.1 250.269 311.3 238.593 318 c 0
 190.332 345 155.385 397 172.814 479 c 0
 183.442 529 209.157 570 252.384 604 c 0
 309.949 649 373.587 652 436.587 652 c 0
 461.587 652 530.099 645 560.099 645 c 0
 594.099 645 611.736 648 611.736 648 c 1
 613.099 645 l 1
 592.983 588 576.529 520 560.588 445 c 2
 508.512 200 l 2
 492.569 125 479.479 54 476 0 c 1
 474.362 -3 l 1
 474.362 -3 458 0 423 0 c 0
 389 0 371.362 -3 371.362 -3 c 1
 370 0 l 1
 390.115 57 406.569 125 422.512 200 c 2
 440.791 286 l 1
 415.892 286 394.119 286.6 375.031 287.6 c 1
 339.538 254.7 302.179 214.9 266.41 176 c 0
 200.185 103.9 139.589 31 121.362 -3 c 1
 103 0 73 0 54 0 c 0
 34 0 22 0 1.3623 -3 c 1
 0 0 l 1
 62.1523 56.7002 201.291 215.9 282.967 300 c 1
EndSplineSet
EndChar

StartChar: afii10089
Encoding: 1095 1095 95
Width: 510
VWidth: 999
Flags: HW
HStem: -3 21<323 373 373 423> 137 44<162.252 301.419> 412 20G<57 107 107 157 323 373 373 423>
VStem: 68 80<195.691 426.366> 333 80<2.66468 426.335>
LayerCount: 2
Fore
SplineSet
129.854 291 m 0
 145.902 366.5 144.921 376 148.187 429 c 1
 149.824 432 l 1
 149.824 432 163.187 429 198.187 429 c 0
 232.187 429 246.824 432 246.824 432 c 1
 248.187 429 l 1
 228.071 372 226.221 368 210.279 293 c 0
 193.699 215 193.473 181 255.473 181 c 0
 303.473 181 342.417 192.5 380.4 223 c 1
 386.139 250 l 2
 401.23 321 411.709 375 414.187 429 c 1
 415.824 432 l 1
 415.824 432 429.187 429 464.187 429 c 0
 498.187 429 512.824 432 512.824 432 c 1
 514.187 429 l 1
 493.071 372 483.081 325 466.139 250 c 1
 451.048 179 l 2
 435.105 104 426.115 57 423 0 c 1
 420.362 -3 l 1
 420.362 -3 407 0 373 0 c 0
 338 0 323.362 -3 323.362 -3 c 1
 323 0 l 1
 343.457 53.9004 355.276 104.8 370.941 178.5 c 1
 326.89 150.5 292.12 137 233.12 137 c 0
 135.12 137 107.323 185 129.854 291 c 0
EndSplineSet
EndChar

StartChar: afii10090
Encoding: 1096 1096 96
Width: 807
VWidth: 999
Flags: HW
HStem: 0 41<185.326 354.674 451.326 622.533> 412 20G<87 137 137 187 353 403 403 453 619 670 670 720>
VStem: 97 80<55.1837 426.335> 363 80<55.1837 426.335> 629 80<43.5547 426.335>
CounterMasks: 1 38
LayerCount: 2
Fore
SplineSet
751.512 200 m 2
 735.676 125.5 722.479 54 719 0 c 1
 717.362 -3 l 1
 717.362 -3 700 0 666 0 c 2
 140 0 l 2
 106 0 87.3623 -3 87.3623 -3 c 1
 87 0 l 1
 106.479 54 123.569 125 139.512 200 c 2
 150.139 250 l 2
 166.081 325 175.071 372 178.187 429 c 1
 180.824 432 l 1
 180.824 432 194.187 429 228.187 429 c 0
 263.187 429 277.824 432 277.824 432 c 1
 278.187 429 l 1
 257.709 375 245.868 324 230.139 250 c 2
 219.512 200 l 2
 215.897 183 194.579 78 196.479 54 c 1
 201.565 45 204.715 41 219.715 41 c 2
 337.715 41 l 2
 352.715 41 357.565 45 366.479 54 c 1
 378.579 78 401.897 183 405.512 200 c 2
 416.139 250 l 2
 432.081 325 441.071 372 444.187 429 c 1
 446.824 432 l 1
 446.824 432 460.187 429 494.187 429 c 0
 529.187 429 543.824 432 543.824 432 c 1
 544.187 429 l 1
 523.709 375 511.868 324 496.139 250 c 2
 485.512 200 l 2
 481.897 183 460.579 78 462.479 54 c 1
 467.565 45 470.715 41 485.715 41 c 2
 617.715 41 l 2
 632.715 41 623.565 45 632.479 54 c 1
 644.579 78 667.897 183 671.512 200 c 2
 681.927 249 l 2
 698.081 325 706.571 372 710.187 429 c 1
 712.824 432 l 1
 712.824 432 726.887 429 761.187 429 c 0
 796.187 429 810.824 432 810.824 432 c 1
 811.187 429 l 1
 791.315 375.5 777.89 324.1 761.927 249 c 2
 751.512 200 l 2
EndSplineSet
EndChar

StartChar: afii10091
Encoding: 1097 1097 97
Width: 813
VWidth: 999
Flags: HW
HStem: 0 41<185.326 354.674 451.326 622.533> 412 20G<87 137 137 187 353 403 403 453 619 670 670 720>
VStem: 97 80<55.1837 426.335> 363 80<55.1837 426.335> 629 80<41.465 426.335> 731 36<-125 -51.0881>
LayerCount: 2
Fore
SplineSet
140 0 m 2
 106 0 87.3623 -3 87.3623 -3 c 1
 87 0 l 1
 106.479 54 123.569 125 139.512 200 c 2
 150.139 250 l 2
 166.081 325 175.071 372 178.187 429 c 1
 180.824 432 l 1
 180.824 432 194.187 429 228.187 429 c 0
 263.187 429 277.824 432 277.824 432 c 1
 278.187 429 l 1
 257.709 375 245.868 324 230.139 250 c 2
 219.512 200 l 2
 215.897 183 194.579 78 196.479 54 c 1
 201.565 45 204.715 41 219.715 41 c 2
 337.715 41 l 2
 352.715 41 357.565 45 366.479 54 c 1
 378.579 78 401.897 183 405.512 200 c 2
 416.139 250 l 2
 432.081 325 441.071 372 444.187 429 c 1
 446.824 432 l 1
 446.824 432 460.187 429 494.187 429 c 0
 529.187 429 543.824 432 543.824 432 c 1
 544.187 429 l 1
 523.709 375 511.868 324 496.139 250 c 2
 485.512 200 l 2
 481.897 183 460.579 78 462.479 54 c 1
 467.565 45 470.715 41 485.715 41 c 2
 617.715 41 l 2
 632.715 41 623.565 45 632.479 54 c 1
 644.579 78 667.897 183 671.512 200 c 2
 681.927 249 l 2
 698.081 325 706.571 372 710.187 429 c 1
 712.824 432 l 1
 712.824 432 726.887 429 761.187 429 c 0
 796.187 429 810.824 432 810.824 432 c 1
 811.187 429 l 1
 791.315 375.5 777.89 324.1 761.927 249 c 2
 751.512 200 l 2
 728.13 90 722.739 35 755.802 32 c 0
 780.234 29.7998 783.4 20.7002 781.338 11 c 2
 740.431 -125 l 1
 737.793 -128 l 1
 705.793 -128 l 1
 704.431 -125 l 1
 708.962 -52.4004 707.7 0 628 0 c 2
 140 0 l 2
EndSplineSet
EndChar

StartChar: afii10092
Encoding: 1098 1098 98
Width: 539
VWidth: 999
Flags: HW
HStem: -2 36<257.183 402.245> 219 37<273 402.262> 374 55<34.7075 190>
VStem: 193 80<40.3429 219 256 372.311> 428 80<60.92 197.087>
LayerCount: 2
Fore
SplineSet
454.782 126 m 0
 466.048 179 457.55 219 386.55 219 c 2
 319.55 219 l 1
 289.792 79 l 2
 282.353 44 297.227 34 343.227 34 c 0
 393.227 34 437.353 44 454.782 126 c 0
246.139 250 m 2
 261.23 321 269.496 374 269.496 374 c 1
 144.496 374 111.158 363 111.158 363 c 1
 109.796 366 l 1
 114.771 380 119.66 403 123.187 429 c 1
 125.612 431 l 1
 140.399 430 161.187 429 180.187 429 c 2
 324.187 429 l 2
 358.187 429 372.824 432 372.824 432 c 1
 374.187 429 l 1
 353.071 372 343.994 334 328.052 259 c 2
 327.414 256 l 1
 384.414 256 l 2
 480.414 256 556.888 230 536.908 136 c 0
 519.053 52 445.575 -2 334.575 -2 c 0
 294.775 -2 272.8 0 233 0 c 0
 198 0 183.362 -3 183.362 -3 c 1
 183 0 l 1
 203.479 54 215.318 105 231.048 179 c 2
 246.139 250 l 2
EndSplineSet
EndChar

StartChar: afii10093
Encoding: 1099 1099 99
Width: 681
VWidth: 999
Flags: HW
HStem: -3 21<496 546 546 596> -2 36<165.183 310.245> 219 37<181 310.262> 412 20<91 141 141 191 496 546 546 596>
VStem: 101 80<40.3429 219 256 426.342> 336 80<60.92 197.087> 506 80<2.66468 426.335>
LayerCount: 2
Fore
SplineSet
559.139 250 m 2
 574.23 321 584.709 375 587.187 429 c 1
 588.824 432 l 1
 588.824 432 602.187 429 637.187 429 c 0
 671.187 429 685.824 432 685.824 432 c 1
 687.187 429 l 1
 666.071 372 656.081 325 639.139 250 c 1
 624.048 179 l 2
 608.105 104 599.115 57 596 0 c 1
 593.362 -3 l 1
 593.362 -3 580 0 546 0 c 0
 511 0 496.362 -3 496.362 -3 c 1
 496 0 l 1
 516.479 54 528.318 105 544.048 179 c 2
 559.139 250 l 2
362.782 126 m 0
 374.048 179 365.55 219 294.55 219 c 2
 227.55 219 l 1
 197.792 79 l 2
 190.353 44 205.227 34 251.227 34 c 0
 301.227 34 345.353 44 362.782 126 c 0
236.052 259 m 2
 235.414 256 l 1
 292.414 256 l 2
 388.414 256 464.888 230 444.907 136 c 0
 427.053 52 353.575 -2 242.575 -2 c 0
 202.774 -2 180.8 0 141 0 c 0
 106 0 91.3623 -3 91.3623 -3 c 1
 91 0 l 1
 111.479 54 123.318 105 139.048 179 c 2
 154.139 250 l 2
 169.23 321 179.709 375 182.187 429 c 1
 183.824 432 l 1
 183.824 432 197.187 429 232.187 429 c 0
 266.187 429 280.824 432 280.824 432 c 1
 282.187 429 l 1
 261.071 372 251.994 334 236.052 259 c 2
EndSplineSet
Colour: ff00ff
EndChar

StartChar: afii10094
Encoding: 1100 1100 100
Width: 447
VWidth: 999
Flags: HW
HStem: -2 36<165.183 310.245> 219 37<181 310.262> 412 20G<91 141 141 191>
VStem: 101 80<40.3429 219 256 426.342> 336 80<60.92 197.087>
LayerCount: 2
Fore
SplineSet
362.782 126 m 0
 374.048 179 365.55 219 294.55 219 c 2
 227.55 219 l 1
 197.792 79 l 2
 190.353 44 205.227 34 251.227 34 c 0
 301.227 34 345.353 44 362.782 126 c 0
236.052 259 m 2
 235.414 256 l 1
 292.414 256 l 2
 388.414 256 464.888 230 444.907 136 c 0
 427.053 52 353.575 -2 242.575 -2 c 0
 202.774 -2 180.8 0 141 0 c 0
 106 0 91.3623 -3 91.3623 -3 c 1
 91 0 l 1
 111.479 54 123.318 105 139.048 179 c 2
 154.139 250 l 2
 169.23 321 179.709 375 182.187 429 c 1
 183.824 432 l 1
 183.824 432 197.187 429 232.187 429 c 0
 266.187 429 280.824 432 280.824 432 c 1
 282.187 429 l 1
 261.071 372 251.994 334 236.052 259 c 2
EndSplineSet
EndChar

StartChar: afii10095
Encoding: 1101 1101 101
Width: 434
VWidth: 999
Flags: HMW
HStem: -10 31<133.489 237.744> 180 49<160.832 302.074> 207 41<92.6331 188.46> 408 31<122.738 236.146>
VStem: 314 77<116.594 208 230.421 318.818>
LayerCount: 2
Fore
SplineSet
363.163 236 m 1
 371.68 309 358.723 408 268.723 408 c 0
 188.723 408 155.607 351 128.642 290 c 1
 102.491 294 l 1
 117.844 338 128.071 372 141.762 427 c 1
 211.762 427 214.312 439 285.312 439 c 0
 408.312 439 462.206 335 438.825 225 c 0
 405.454 68 281.874 -10 175.874 -10 c 0
 93.874 -10 44.2266 34 55.2803 86 c 0
 58.2559 100 73.4443 115 91.4443 115 c 0
 102.444 115 123.594 111 121.579 78 c 0
 120.353 44 146.464 21 189.464 21 c 0
 283.464 21 341.633 130 358.212 208 c 1
 333.661 196 297.26 180 266.26 180 c 0
 222.26 180 198.999 207 163.999 207 c 0
 151.999 207 140.937 202 132.937 202 c 0
 126.937 202 127.85 211 128.699 215 c 0
 131.888 230 180.714 248 223.714 248 c 0
 268.714 248 281.676 229 319.676 229 c 0
 335.676 229 350.101 231 363.163 236 c 1
EndSplineSet
EndChar

StartChar: afii10096
Encoding: 1102 1102 102
Width: 686
VWidth: 999
Flags: HW
HStem: -10 40<417.354 526.87> -3 21<83 133 133 183> 198 39<171 268> 401 38<398.927 505.267> 412 20<83 133 133 183>
VStem: 93 80<2.66468 426.335> 268 85<110.436 198 237 323.327> 564 85<107.458 329.038>
LayerCount: 2
Fore
SplineSet
534.235 401 m 0
 460.235 401 419.53 313 401.038 226 c 0
 384.671 149 387.377 30 481.377 30 c 0
 522.377 30 575.266 53 603.323 185 c 0
 634.356 331 612.235 401 534.235 401 c 0
146.139 250 m 2
 161.23 321 171.709 375 174.187 429 c 1
 175.824 432 l 1
 175.824 432 189.187 429 224.187 429 c 0
 258.187 429 272.824 432 272.824 432 c 1
 274.187 429 l 1
 253.071 372 243.081 325 226.139 250 c 1
 223.376 237 l 1
 319.376 237 l 1
 354.67 356 437.312 439 552.312 439 c 0
 696.312 439 717.23 321 695.125 217 c 0
 673.869 117 594.874 -10 455.874 -10 c 0
 327.874 -10 290.618 97 310.086 198 c 1
 215.086 198 l 1
 211.048 179 l 2
 195.105 104 186.115 57 183 0 c 1
 180.362 -3 l 1
 180.362 -3 167 0 133 0 c 0
 98 0 83.3623 -3 83.3623 -3 c 1
 83 0 l 1
 103.479 54 115.318 105 131.048 179 c 2
 146.139 250 l 2
EndSplineSet
EndChar

StartChar: afii10097
Encoding: 1103 1103 103
Width: 429
VWidth: 999
Flags: HW
HStem: -3 30<10 25> 195 35<206.934 268> 204 26<157.163 165> 402 30<151.259 285.062>
VStem: 38 85<253.842 371.816> 268 80<2.65817 195 230 398.777>
LayerCount: 2
Fore
SplineSet
316.888 230 m 1
 345.796 366 l 2
 352.598 398 338.447 402 299.447 402 c 0
 225.447 402 201.221 368 191.23 321 c 0
 180.603 271 194.888 230 251.888 230 c 2
 316.888 230 l 1
401.352 251 m 2
 385.835 178 l 2
 370.956 108 360.479 54 358 0 c 1
 356.362 -3 l 1
 356.362 -3 343 0 308 0 c 0
 274 0 259.362 -3 259.362 -3 c 1
 258 0 l 1
 279.115 57 288.193 95 303.922 169 c 2
 309.448 195 l 1
 284.448 195 l 2
 244.448 195 209.82 145 176.854 84 c 0
 154.14 43 118.213 1 83 0 c 2
 9.3623 -3 l 1
 7 0 l 1
 11.0391 19 l 2
 12.5264 26 18.7393 27 22.7393 27 c 2
 30.9512 28 l 2
 58.5889 31 106.83 98 128.907 136 c 0
 153.622 177 179.086 198 208.361 204 c 1
 153.361 204 88.8008 239 103.893 310 c 0
 110.057 339 147.824 432 308.824 432 c 0
 345.824 432 363.187 429 399.187 429 c 0
 434.187 429 448.824 432 448.824 432 c 1
 449.187 429 l 1
 428.709 375 416.868 324 401.352 251 c 2
EndSplineSet
EndChar

StartChar: uni04AE
Encoding: 1198 1198 104
Width: 653
VWidth: 999
Flags: HW
HStem: -3 21<242.42 247 376 381.566> 628 20<24.5 36 163.5 199.5 475.375 507 545.5 599.5>
VStem: 246 130<41.9429 329>
LayerCount: 2
Fore
SplineSet
470.859 304.2 m 1
 450.495 205.1 419.902 48 413.362 -3 c 1
 398 0 346 0 331 0 c 0
 316 0 265 0 248.362 -3 c 1
 265.859 52.5 293.528 177.5 314.475 275.1 c 1
 290.212 340.2 180.983 588 153.736 648 c 1
 170.099 645 234.099 645 251.099 645 c 0
 268.099 645 312.099 645 329.736 648 c 1
 359.345 548.3 395.421 458.8 433.189 357.5 c 1
 506.909 445.1 590.542 549.7 658.736 648 c 1
 670.099 645 708.099 645 721.099 645 c 0
 733.099 645 750.099 645 763.736 648 c 1
 615.996 477.5 528.963 380.9 470.859 304.2 c 1
EndSplineSet
Colour: ff00ff
EndChar

StartChar: uni04C0
Encoding: 1216 1216 105
Width: 351
VWidth: 999
Flags: HW
HStem: -3 21<96 170 170 244> 628 20<96 170 170 244>
VStem: 106 128<2.67992 642.32>
LayerCount: 2
Fore
SplineSet
200.588 445 m 2
 216.529 520 226.983 588 231.099 645 c 1
 233.736 648 l 1
 233.736 648 281.099 645 315.099 645 c 0
 350.099 645 398.736 648 398.736 648 c 1
 399.099 645 l 1
 379.834 592 360.529 520 344.588 445 c 2
 292.512 200 l 2
 276.569 125 266.115 57 262 0 c 1
 259.362 -3 l 1
 259.362 -3 212 0 178 0 c 0
 143 0 94.3623 -3 94.3623 -3 c 1
 94 0 l 1
 113.479 54 132.569 125 148.512 200 c 2
 200.588 445 l 2
EndSplineSet
Colour: ff00ff
EndChar

StartChar: uni04D0
Encoding: 1232 1232 106
Width: 701
VWidth: 999
Flags: HW
HStem: -3 21<24 68.5 92 115.444 500.087 513.5 590 606.5> 230 44<188.935 310> 638 20<265 387> 698 31<283.585 374.415>
VStem: 204 69<735.873 804.004> 385 69<737.589 804.004>
LayerCount: 2
Fore
SplineSet
489.692 756 m 0
 522.692 756 544.307 773 547.92 790 c 0
 548.982 795 549.258 801 549.683 803 c 0
 552.871 818 576.06 833 599.06 833 c 0
 626.06 833 633.084 819 629.045 800 c 0
 617.992 748 546.978 715 480.978 715 c 0
 414.978 715 357.992 748 369.045 800 c 0
 373.084 819 386.06 833 413.06 833 c 0
 436.06 833 452.871 818 449.683 803 c 0
 449.258 801 446.982 795 445.92 790 c 0
 442.307 773 456.692 756 489.692 756 c 0
246.893 219.2 m 1
 194.916 135.1 148.746 56.2002 120.362 -3 c 1
 109 0 87 0 76 0 c 0
 65 0 32 0 19.3623 -3 c 1
 167.337 218 311.675 436 454.862 658 c 1
 544.862 658 l 1
 590.312 439 649.83 98 678.362 -3 c 1
 662 0 605 0 588 0 c 0
 571 0 524 0 506.362 -3 c 1
 504.975 18.7002 499.217 93.7002 479.198 219.7 c 1
 446.647 220.4 412.075 221 379.975 221 c 0
 344.275 221 285.084 220.1 246.893 219.2 c 1
469.975 275.1 m 1
 459.145 338 445.061 411 427.003 494 c 1
 422.103 494 l 1
 282.244 275.9 l 1
 313.859 275.5 357.341 274 386.24 274 c 0
 409.94 274 441.447 274.5 469.975 275.1 c 1
EndSplineSet
LCarets2: 1 0 
Colour: ff00ff
EndChar

StartChar: uni04D1
Encoding: 1233 1233 107
Width: 516
VWidth: 999
Flags: HW
HStem: -10 51<138.029 242.079 327.5 409.584> 394 45<147.308 264.843> 503 31<170.971 245.548>
VStem: 42 81<56.8026 162.903> 87 73<540.553 619.612> 256 73<541.079 620.243> 293 79<81.0426 223 264.049 363.236>
DStem2: 199 243 212 202 0.972687 0.232119<-72.434 85.8176>
LayerCount: 2
Fore
SplineSet
358.188 222 m 1
 273.724 201 l 2
 220.718 187.8 198.417 143.1 190.743 107 c 0
 185.005 80 200.628 50 230.628 50 c 0
 258.628 50 283.966 61 311.854 84 c 0
 320.464 91.0996 333.656 116 336.42 129 c 2
 358.188 222 l 1
454.005 80 m 0
 446.99 47 467.353 44 507.353 44 c 1
 512.29 39 513.438 31.7002 512.889 23 c 1
 478 0 425.975 -10 386.874 -10 c 0
 343.874 -10 325.488 7 320.203 48 c 1
 318.203 48 l 1
 263.638 3 207.975 -10 168.874 -10 c 0
 98.874 -10 40.1641 29 54.8301 98 c 0
 69.2842 166 138.125 217 239.014 240 c 1
 362.603 271 l 2
 365.815 272 369.666 276 371.153 283 c 0
 387.542 360.1 367.834 385 323.834 385 c 0
 278.834 385 228.67 356 184.042 306 c 1
 151.255 307 l 1
 147.196 382 l 1
 151.047 386 l 1
 179.511 407 272.312 439 344.312 439 c 0
 392.54 439.6 460.168 427.5 485.831 399.1 c 0
 508.16 374.3 512.652 337.1 499.878 277 c 0
 497.54 266 460.169 109 454.005 80 c 0
459.408 590 m 0
 447.718 535 376.854 498 312.854 498 c 0
 247.854 498 195.931 536 207.408 590 c 0
 212.085 612 236.485 628 259.485 628 c 0
 281.485 628 294.447 609 291.046 593 c 0
 290.408 590 289.983 588 288.346 585 c 0
 286.708 582 286.07 579 285.646 577 c 0
 280.969 555 292.568 539 322.568 539 c 0
 351.568 539 370.756 554 375.433 576 c 0
 376.07 579 376.708 582 376.346 585 c 0
 375.771 587 376.195 589 376.834 592 c 0
 380.447 609 406.485 628 424.485 628 c 0
 448.485 628 464.935 616 459.408 590 c 0
EndSplineSet
LCarets2: 1 0 
Colour: ff00ff
EndChar

StartChar: uni04D2
Encoding: 1234 1234 108
Width: 701
VWidth: 999
Flags: HW
HStem: -3 21<26 70.5 115 138.444 502.087 515.5 634 650.5> 221 53<212.237 446.333> 638 20<267 431> 712 92<212.347 289.653 372.347 449.653>
VStem: 205 92<719.347 796.653> 365 92<719.347 796.653>
LayerCount: 2
Fore
SplineSet
546.692 756 m 0
 554.132 791 588.084 819 623.084 819 c 0
 656.084 819 678.132 791 670.692 756 c 0
 663.679 723 629.515 694 596.515 694 c 0
 561.515 694 539.679 723 546.692 756 c 0
337.692 756 m 0
 345.132 791 379.084 819 412.084 819 c 0
 447.084 819 469.132 791 461.692 756 c 0
 454.679 723 420.515 694 385.515 694 c 0
 352.515 694 330.679 723 337.692 756 c 0
246.893 219.2 m 1
 194.916 135.1 148.746 56.2002 120.362 -3 c 1
 109 0 87 0 76 0 c 0
 65 0 32 0 19.3623 -3 c 1
 167.337 218 311.675 436 454.862 658 c 1
 544.862 658 l 1
 590.312 439 649.83 98 678.362 -3 c 1
 662 0 605 0 588 0 c 0
 571 0 524 0 506.362 -3 c 1
 504.975 18.7002 499.217 93.7002 479.198 219.7 c 1
 446.647 220.4 412.075 221 379.975 221 c 0
 344.275 221 285.084 220.1 246.893 219.2 c 1
469.975 275.1 m 1
 459.145 338 445.061 411 427.003 494 c 1
 422.103 494 l 1
 282.244 275.9 l 1
 313.859 275.5 357.341 274 386.24 274 c 0
 409.94 274 441.447 274.5 469.975 275.1 c 1
EndSplineSet
LCarets2: 1 0 
Colour: ff00ff
EndChar

StartChar: uni04D3
Encoding: 1235 1235 109
Width: 516
VWidth: 999
Flags: HW
HStem: -10 60<134 255.262 367.5 464.115> 385 54<171.557 288.207> 527 92<94.3474 171.653 254.347 331.653>
VStem: 42 119<59.5392 158.158> 87 92<534.347 611.653> 247 92<534.347 611.653> 311 118<89.0564 219 268.049 360.659>
DStem2: 218 247 231 198 0.972082 0.234641<-58.6762 83.8337>
LayerCount: 2
Fore
SplineSet
410.37 571 m 0
 417.81 606 451.761 634 486.761 634 c 0
 519.761 634 541.81 606 534.37 571 c 0
 527.355 538 493.191 509 460.191 509 c 0
 425.191 509 403.355 538 410.37 571 c 0
201.37 571 m 0
 208.81 606 242.761 634 275.761 634 c 0
 310.761 634 332.81 606 325.37 571 c 0
 318.355 538 284.191 509 249.191 509 c 0
 216.191 509 194.355 538 201.37 571 c 0
358.188 222 m 1
 273.724 201 l 2
 220.718 187.8 198.417 143.1 190.743 107 c 0
 185.005 80 200.628 50 230.628 50 c 0
 258.628 50 283.966 61 311.854 84 c 0
 320.464 91.0996 333.656 116 336.42 129 c 2
 358.188 222 l 1
454.005 80 m 0
 446.99 47 467.353 44 507.353 44 c 1
 512.29 39 513.438 31.7002 512.889 23 c 1
 478 0 425.975 -10 386.874 -10 c 0
 343.874 -10 325.488 7 320.203 48 c 1
 318.203 48 l 1
 263.638 3 207.975 -10 168.874 -10 c 0
 98.874 -10 40.1641 29 54.8301 98 c 0
 69.2842 166 138.125 217 239.014 240 c 1
 362.603 271 l 2
 365.815 272 369.666 276 371.153 283 c 0
 387.542 360.1 367.834 385 323.834 385 c 0
 278.834 385 228.67 356 184.042 306 c 1
 151.255 307 l 1
 147.196 382 l 1
 151.047 386 l 1
 179.511 407 272.312 439 344.312 439 c 0
 392.54 439.6 460.168 427.5 485.831 399.1 c 0
 508.16 374.3 512.652 337.1 499.878 277 c 0
 497.54 266 460.169 109 454.005 80 c 0
EndSplineSet
LCarets2: 1 0 
Colour: ff00ff
EndChar

StartChar: uni04D4
Encoding: 1236 1236 110
Width: 842
VWidth: 999
Flags: HW
HStem: -2 29<4 35 167 201 342 374> 0 39<514.23 740.226> 266 39<271 429> 329 34<512 654.005> 605 40<517.062 711.984> 618 28<296 333>
VStem: 429 83<40.8651 266 305 329 363 597.745> 671 33<247 312.081 407 445>
DStem2: 102.87 85 148 68 0.46188 0.886943<-25.6807 228.955 272.783 581.116>
LayerCount: 2
Fore
SplineSet
250.538 213.3 m 1
 192.502 130.8 141.441 54.2998 107.362 -3 c 1
 96 0 74 0 63 0 c 0
 52 0 11 0 -1.6377 -3 c 1
 147.512 200 299.447 402 494.673 647.7 c 1
 529.142 645.2 l 1
 577.142 645.2 l 1
 615.199 645 l 1
 859.099 645 l 2
 880.099 645 903.312 646 919.736 648 c 1
 921.099 645 l 1
 917.123 631 912.085 612 910.384 604 c 0
 908.471 595 905.433 576 904.732 568 c 1
 901.882 564 l 1
 901.882 564 776.771 574.3 671.071 574.3 c 0
 659.371 574.3 649.15 574.2 640.207 574 c 1
 628.852 515.4 614.666 444.9 600.405 373.1 c 1
 699.075 373.9 751.531 378.4 806.409 383 c 1
 808.771 380 l 1
 804.858 371 800.67 356 798.757 347 c 0
 796.844 338 792.53 313 792.617 304 c 1
 788.979 301 l 1
 733.013 306.8 644.25 309.8 588.142 310.7 c 1
 570.56 221.4 554.152 134.8 544.149 70.7998 c 1
 646.535 74.5 811.343 91 811.343 91 c 1
 812.492 87 l 1
 809.792 79 803.479 54 801.353 44 c 0
 799.227 34 795.976 14 794 0 c 1
 791.362 -3 l 1
 775.787 -1 753 0 732 0 c 2
 535 0 l 1
 523.5 0 l 1
 440 0 l 2
 423 0 402 0 384.362 -3 c 1
 389.867 22.9004 408.596 109.6 431.257 214.8 c 1
 419.278 214.9 407.3 215 395.699 215 c 0
 362.3 215 291.63 214.2 250.538 213.3 c 1
442.941 269.3 m 1
 461.946 357.3 482.481 452.5 499.898 533.5 c 1
 487.898 533.5 l 1
 425.23 453.2 355.685 360.3 291.339 270.7 c 1
 326.533 270.2 376.578 269 402.178 269 c 0
 414.277 269 428.299 269.1 442.941 269.3 c 1
EndSplineSet
Colour: ff00ff
EndChar

StartChar: uni04D5
Encoding: 1237 1237 111
Width: 771
VWidth: 999
Flags: HW
HStem: -10 50<135.407 255.127 438.656 562.972> 218 40<209.155 296 375 554.771> 394 45<146.355 264.956 426.84 534.254>
VStem: 39 82<54.0916 159.063> 296 78<112.964 215> 562 84<266.765 365.2>
LayerCount: 2
Fore
SplineSet
355.637 210 m 1
 207.086 198 185.371 157 174.531 106 c 0
 164.966 61 188.202 40 216.502 40 c 0
 256.502 40 301.866 61 325.256 100 c 0
 336.082 118 345.009 160 355.637 210 c 1
504.84 258 m 1
 660.54 266 673.076 245 686.042 306 c 0
 692.844 338 682.747 394 629.747 394 c 0
 566.647 394 521.23 321 504.84 258 c 1
302.747 394 m 0
 253.747 394 194.27 340 155.704 295 c 1
 125.917 296 l 1
 125.283 373 l 1
 129.134 377 l 1
 160.385 397 242.312 439 322.312 439 c 0
 361.312 439 462.187 429 469.096 358 c 1
 513.936 409 587.312 439 650.312 439 c 0
 700.412 439 742.648 430.7 768.148 410 c 0
 806.28 379.1 814.016 329.4 809.68 309 c 0
 803.091 278 793.502 247 772.25 227 c 1
 728.999 207 643.699 215 493.212 208 c 1
 470.681 102 527.628 50 586.628 50 c 0
 645.628 50 692.304 72 732.743 107 c 1
 742.972 102.9 751.096 93.5996 754.854 84 c 1
 711.377 30 630.874 -10 557.874 -10 c 0
 457.874 -10 421.227 34 404.541 59 c 1
 356.551 12 261.874 -10 201.874 -10 c 0
 85.874 -10 30.0146 33 44.4678 101 c 0
 54.2461 147 88.084 186.7 155.487 214 c 0
 209.764 236 280.554 249.6 365.202 255 c 1
 384.183 349 382.747 394 302.747 394 c 0
EndSplineSet
Colour: ff00ff
EndChar

StartChar: uni04D6
Encoding: 1238 1238 112
Width: 584
VWidth: 999
Flags: HW
HStem: -2 29<14 50> 0 39<183.683 419.99> 323 38<182 352.245> 416 20<367 392.5> 605 40<183.485 390.274> 618 28<14 50> 698 31<228.536 319.309>
VStem: 101 81<40.3443 323 361 603.225> 149 70<736.681 803.162> 328 70<735.774 803.125> 361 34<252 316.054 403 436> 438 29<499.793 534.346> 489 31<128.12 166.129>
LayerCount: 2
Fore
SplineSet
434.692 756 m 0
 467.692 756 489.307 773 492.92 790 c 0
 493.982 795 494.258 801 494.683 803 c 0
 497.871 818 521.06 833 544.06 833 c 0
 571.06 833 578.084 819 574.045 800 c 0
 562.992 748 491.978 715 425.978 715 c 0
 359.978 715 302.992 748 314.045 800 c 0
 318.084 819 331.06 833 358.06 833 c 0
 381.06 833 397.871 818 394.683 803 c 0
 394.258 801 391.982 795 390.92 790 c 0
 387.307 773 401.692 756 434.692 756 c 0
282.512 200 m 2
 278.897 183 261.618 97 263.517 73 c 1
 397.517 73 554.193 95 554.193 95 c 1
 555.343 91 l 1
 552.643 83 543.777 46 541.652 36 c 0
 539.526 26 537.976 14 536 0 c 1
 533.362 -3 l 1
 517.787 -1 495 0 474 0 c 2
 170 0 l 2
 135 0 84.3623 -3 84.3623 -3 c 1
 84 0 l 1
 103.479 54 122.569 125 138.512 200 c 2
 190.588 445 l 2
 206.529 520 216.983 588 221.099 645 c 1
 223.736 648 l 1
 223.736 648 273.099 645 307.099 645 c 0
 337.099 645 601.099 645 601.099 645 c 2
 622.099 645 645.312 646 661.736 648 c 1
 663.099 645 l 1
 659.123 631 655.36 618 653.659 610 c 0
 651.746 601 647.646 577 646.944 569 c 1
 644.095 565 l 1
 644.095 565 504.646 577 370.646 577 c 1
 358.544 553 338.201 462 334.588 445 c 2
 319.071 372 l 1
 437.071 372 488.134 377 548.196 382 c 1
 550.559 379 l 1
 546.646 370 541.607 351 539.694 342 c 0
 537.781 333 534.53 313 534.617 304 c 1
 530.979 301 l 1
 463.468 308 354.105 311 306.105 311 c 1
 282.512 200 l 2
EndSplineSet
LCarets2: 1 0 
Colour: ff00ff
EndChar

StartChar: uni04D7
Encoding: 1239 1239 113
Width: 499
VWidth: 999
Flags: HW
HStem: -10 59<197.345 335.48> 243 44<125 319.997> 399 40<175.584 290.389> 503 31<188.971 263.548>
VStem: 34 88<132.133 243 287 305.396> 105 73<540.553 619.612> 274 73<541.079 620.243> 320 89<254.5 358.106>
LayerCount: 2
Fore
SplineSet
230.878 277 m 1
 364.878 277 l 2
 374.878 277 382.066 292 383.979 301 c 0
 399.071 372 375.897 390 339.897 390 c 0
 309.197 390 258.07 364 230.878 277 c 1
453.318 105 m 1
 465.403 97.4004 477.492 87 474.304 72 c 1
 425.251 20 328.874 -10 256.874 -10 c 0
 194.274 -10 140.939 6.2998 110.439 35 c 0
 68.3564 74.5996 63.5449 139 79.0615 212 c 0
 109.458 355 245.312 439 351.312 439 c 0
 494.312 439 538.096 358 515.139 250 c 0
 512.801 239 504.525 233 493.525 233 c 2
 219.525 233 l 1
 188.28 86 244.328 58 301.328 58 c 0
 356.328 58 410.241 67 453.318 105 c 1
477.408 590 m 0
 465.718 535 394.854 498 330.854 498 c 0
 265.854 498 213.931 536 225.408 590 c 0
 230.085 612 254.485 628 277.485 628 c 0
 299.485 628 312.447 609 309.046 593 c 0
 308.408 590 307.983 588 306.346 585 c 0
 304.708 582 304.07 579 303.646 577 c 0
 298.969 555 310.568 539 340.568 539 c 0
 369.568 539 388.756 554 393.433 576 c 0
 394.07 579 394.708 582 394.346 585 c 0
 393.771 587 394.195 589 394.834 592 c 0
 398.447 609 424.485 628 442.485 628 c 0
 466.485 628 482.935 616 477.408 590 c 0
EndSplineSet
LCarets2: 1 0 
Colour: ff00ff
EndChar

StartChar: uni04D8
Encoding: 1240 1240 114
Width: 644
VWidth: 999
Flags: HW
HStem: -12 34<246.269 393.278> 216 44<122 511> 624 34<207.892 368.818>
VStem: 521 90<221.919 443.038>
LayerCount: 2
Fore
SplineSet
208.167 523 m 1
 190.269 547 l 1
 284.998 621 339.862 658 449.862 658 c 0
 664.862 658 714.09 485 680.293 326 c 0
 638.845 131 506.449 -12 313.449 -12 c 0
 121.449 -12 78.082 118 97.2646 260 c 1
 575.265 260 l 1
 578.603 271 581.153 283 584.129 297 c 0
 623.665 483 561.636 624 426.636 624 c 0
 333.636 624 272.22 575 208.167 523 c 1
167.912 216 m 1
 171.28 86 229.676 22 327.676 22 c 0
 433.676 22 517.656 116 556.912 216 c 1
 167.912 216 l 1
EndSplineSet
Colour: ff00ff
EndChar

StartChar: afii10846
Encoding: 1241 1241 115
Width: 450
VWidth: 999
Flags: HW
HStem: -11 40<137.611 252.416> 141 44<108.003 303> 379 59<92.52 230.655>
VStem: 19 89<69.8942 173.5> 306 88<185 295.867>
LayerCount: 2
Fore
SplineSet
288.096 151 m 1
 154.096 151 l 2
 144.096 151 136.907 136 134.995 127 c 0
 119.903 56 143.077 38 179.077 38 c 0
 209.777 38 260.903 64 288.096 151 c 1
65.6562 323 m 1
 53.5713 330.6 41.4814 341 44.6699 356 c 1
 93.7227 408 190.1 438 262.1 438 c 0
 324.7 438 378.035 421.7 408.535 393 c 0
 450.617 353.4 455.429 289 439.912 216 c 0
 409.517 73 273.662 -11 167.662 -11 c 0
 24.6621 -11 -19.1211 70 3.83496 178 c 0
 6.17285 189 14.4482 195 25.4482 195 c 2
 299.448 195 l 1
 330.694 342 274.646 370 217.646 370 c 0
 162.646 370 108.733 361 65.6562 323 c 1
EndSplineSet
Colour: ff00ff
EndChar

StartChar: uni04DA
Encoding: 1242 1242 116
Width: 644
VWidth: 999
Flags: HW
HStem: -12 34<246.269 393.278> 216 44<122 511> 624 34<207.892 368.818> 706 90<192.481 269.519 382.301 458.653>
VStem: 186 90<712.481 789.519> 375 91<713.347 789.699> 521 90<221.919 443.038>
LayerCount: 2
Fore
SplineSet
208.167 523 m 1
 190.269 547 l 1
 284.998 621 339.862 658 449.862 658 c 0
 664.862 658 714.09 485 680.293 326 c 0
 638.845 131 506.449 -12 313.449 -12 c 0
 121.449 -12 78.082 118 97.2646 260 c 1
 575.265 260 l 1
 578.603 271 581.153 283 584.129 297 c 0
 623.665 483 561.636 624 426.636 624 c 0
 333.636 624 272.22 575 208.167 523 c 1
167.912 216 m 1
 171.28 86 229.676 22 327.676 22 c 0
 433.676 22 517.656 116 556.912 216 c 1
 167.912 216 l 1
537.307 773 m 0
 544.746 808 578.697 836 613.697 836 c 0
 647.697 836 670.746 808 663.307 773 c 0
 656.079 739 621.128 711 587.128 711 c 0
 552.128 711 530.079 739 537.307 773 c 0
317.307 773 m 0
 324.746 808 358.697 836 393.697 836 c 0
 428.697 836 450.746 808 443.307 773 c 0
 436.079 739 402.128 711 367.128 711 c 0
 332.128 711 310.079 739 317.307 773 c 0
EndSplineSet
LCarets2: 1 0 
Colour: ff00ff
EndChar

StartChar: uni04DB
Encoding: 1243 1243 117
Width: 450
VWidth: 999
Flags: HW
HStem: -11 40<137.611 252.416> 141 44<108.003 303> 379 59<92.52 230.655> 527 92<94.3474 171.653 254.347 331.653>
VStem: 19 89<69.8942 173.5> 87 92<534.347 611.653> 247 92<534.347 611.653> 306 88<185 295.867>
LayerCount: 2
Fore
SplineSet
288.096 151 m 1
 154.096 151 l 2
 144.096 151 136.907 136 134.995 127 c 0
 119.903 56 143.077 38 179.077 38 c 0
 209.777 38 260.903 64 288.096 151 c 1
65.6562 323 m 1
 53.5713 330.6 41.4814 341 44.6699 356 c 1
 93.7227 408 190.1 438 262.1 438 c 0
 324.7 438 378.035 421.7 408.535 393 c 0
 450.617 353.4 455.429 289 439.912 216 c 0
 409.517 73 273.662 -11 167.662 -11 c 0
 24.6621 -11 -19.1211 70 3.83496 178 c 0
 6.17285 189 14.4482 195 25.4482 195 c 2
 299.448 195 l 1
 330.694 342 274.646 370 217.646 370 c 0
 162.646 370 108.733 361 65.6562 323 c 1
389.37 571 m 0
 396.81 606 430.761 634 465.761 634 c 0
 498.761 634 520.81 606 513.37 571 c 0
 506.355 538 472.191 509 439.191 509 c 0
 404.191 509 382.355 538 389.37 571 c 0
180.37 571 m 0
 187.81 606 221.761 634 254.761 634 c 0
 289.761 634 311.81 606 304.37 571 c 0
 297.355 538 263.191 509 228.191 509 c 0
 195.191 509 173.355 538 180.37 571 c 0
EndSplineSet
LCarets2: 1 0 
Colour: ff00ff
EndChar

StartChar: uni04E0
Encoding: 1248 1248 118
Width: 608
VWidth: 999
Flags: HW
HStem: -211 37<215 357> 605 39<141 167 167 446>
VStem: 475 89<-42 146>
DStem2: 250 252 367 288 0.48636 0.873758<88.8042 404.592>
LayerCount: 2
Fore
SplineSet
304.099 645 m 2
 659.099 645 l 2
 680.099 645 685.823 639 684.123 631 c 0
 681.998 621 672.597 605 660.408 590 c 2
 428.216 288 l 1
 556.478 261 598.435 162 574.841 51 c 0
 545.295 -88 387.15 -211 227.15 -211 c 0
 147.15 -211 4.58984 -176 18.6191 -110 c 0
 23.5078 -87 39.2471 -60 73.2471 -60 c 0
 100.247 -60 125.271 -74 133.807 -95 c 0
 155.392 -144 199.016 -174 254.016 -174 c 0
 341.016 -174 463.734 -53 483.928 42 c 0
 517.724 201 414.202 255 345.202 255 c 0
 329.202 255 318.202 255 303.564 252 c 1
 574.597 605 l 1
 325.597 605 l 1
 251.384 604 204.742 521 191.39 477 c 1
 165.814 479 l 1
 226.775 667 l 1
 248.713 662 280.099 645 304.099 645 c 2
EndSplineSet
Colour: ff00ff
EndChar

StartChar: uni04E1
Encoding: 1249 1249 119
Width: 416
VWidth: 999
Flags: HW
HStem: -235 35<149 244> 103 34<216 268> 395 34<107 295>
VStem: 40 27<303 337> 312 81<-120 61>
DStem2: 127 107 216 137 0.505072 0.863077<70.4402 332.658>
LayerCount: 2
Fore
SplineSet
149.743 107 m 1
 378.96 395 l 1
 233.96 395 l 2
 203.96 395 165.496 374 129.979 301 c 1
 104.617 304 l 1
 123.032 353 138.385 397 148.95 442 c 1
 173.95 442 l 1
 174.675 436 182.187 429 197.187 429 c 2
 400.187 429 l 2
 429.187 429 466.462 435 468.462 435 c 0
 475.462 435 481.037 433 480.187 429 c 0
 479.337 425 470.998 414 449.26 387 c 2
 245.12 137 l 1
 341.12 137 410.854 84 388.324 -22 c 0
 363.029 -141 258.049 -235 135.049 -235 c 0
 50.0488 -235 5.01562 -174 11.8174 -142 c 0
 15.6426 -124 29.4688 -106 51.4688 -106 c 0
 74.4688 -106 85.3438 -116 88.2422 -140 c 0
 91.5654 -162 110.488 -200 150.488 -200 c 0
 200.488 -200 280.967 -146 303.923 -38 c 0
 325.391 63 302.894 103 224.894 103 c 0
 213.894 103 182.405 96 163.556 92 c 1
 149.743 107 l 1
EndSplineSet
Colour: ff00ff
EndChar

StartChar: uni04E6
Encoding: 1254 1254 120
Width: 799
VWidth: 999
Flags: HW
HStem: -10 44<287.518 460.882> 614 44<261.342 446.336> 706 90<218.481 295.519 408.301 484.653>
VStem: 42 103<199.871 439.073> 212 90<712.481 789.519> 401 91<713.347 789.699> 576 103<198.639 454.348>
LayerCount: 2
Fore
SplineSet
512.597 605 m 0
 416.597 605 327.143 537 282.506 327 c 0
 241.695 135 307.14 43 427.14 43 c 0
 541.14 43 613.845 131 651.893 310 c 0
 696.104 518 653.597 605 512.597 605 c 0
816.931 329 m 0
 774.42 129 609.975 -10 395.874 -10 c 0
 197.874 -10 77.9316 122 117.893 310 c 0
 159.554 506 333.862 658 536.862 658 c 0
 749.862 658 859.018 527 816.931 329 c 0
563.307 773 m 0
 570.746 808 604.697 836 639.697 836 c 0
 673.697 836 696.746 808 689.307 773 c 0
 682.079 739 647.128 711 613.128 711 c 0
 578.128 711 556.079 739 563.307 773 c 0
343.307 773 m 0
 350.746 808 384.697 836 419.697 836 c 0
 454.697 836 476.746 808 469.307 773 c 0
 462.079 739 428.128 711 393.128 711 c 0
 358.128 711 336.079 739 343.307 773 c 0
EndSplineSet
LCarets2: 1 0 
Colour: ff00ff
EndChar

StartChar: uni04E7
Encoding: 1255 1255 121
Width: 572
VWidth: 999
Flags: HW
HStem: -10 41<204.375 329.082> 398 41<186.898 318.163> 528 92<135.347 212.653 295.347 372.653>
VStem: 36 90<124.397 311.463> 128 92<535.347 612.653> 288 92<535.347 612.653> 384 90<116.419 317.676>
LayerCount: 2
Fore
SplineSet
430.795 573 m 0
 438.234 608 472.186 636 507.186 636 c 0
 540.186 636 562.234 608 554.795 573 c 0
 547.78 540 513.616 511 480.616 511 c 0
 445.616 511 423.78 540 430.795 573 c 0
221.795 573 m 0
 229.234 608 263.186 636 296.186 636 c 0
 331.186 636 353.234 608 345.795 573 c 0
 338.78 540 304.616 511 269.616 511 c 0
 236.616 511 214.78 540 221.795 573 c 0
81.5742 205 m 0
 114.542 360.1 238.312 439 381.312 439 c 0
 550.312 439 606.27 340 579.487 214 c 0
 550.111 75.7998 436.874 -10 283.874 -10 c 0
 134.874 -10 53.3037 72 81.5742 205 c 0
363.685 389 m 0
 277.685 389 252.955 315 234.463 228 c 0
 218.096 151 204.502 40 308.502 40 c 0
 353.502 40 401.304 72 425.748 187 c 0
 455.293 326 448.685 389 363.685 389 c 0
EndSplineSet
LCarets2: 1 0 
Colour: ff00ff
EndChar

StartChar: uni04E8
Encoding: 1256 1256 122
Width: 799
VWidth: 999
Flags: HW
HStem: -10 44<287.518 460.882> 266 57<387.324 534.392> 312 58<177.336 340.102> 614 44<261.342 446.336>
VStem: 42 103<199.871 439.073> 576 103<198.639 454.348>
LayerCount: 2
Fore
SplineSet
816.931 329 m 0
 774.42 129 609.975 -10 395.874 -10 c 0
 197.874 -10 77.9316 122 117.893 310 c 0
 159.554 506 333.862 658 536.862 658 c 0
 749.862 658 859.018 527 816.931 329 c 0
653.231 316.3 m 1
 603.006 277.6 550.44 266 512.54 266 c 0
 420.54 266 406.317 312 331.317 312 c 0
 317.817 312 298.884 310.9 278.661 307.5 c 1
 246.277 128.8 311.24 43 427.14 43 c 0
 541.14 43 613.845 131 651.893 310 c 0
 652.339 312.1 652.785 314.2 653.231 316.3 c 1
661.008 359 m 1
 688.316 531.7 641.997 605 512.597 605 c 0
 421.597 605 336.51 543.9 289.823 358.6 c 1
 316.76 366.3 342.746 370 361.646 370 c 0
 459.646 370 479.656 323 542.656 323 c 0
 574.456 323 623.534 335.6 661.008 359 c 1
EndSplineSet
Colour: ff00ff
EndChar

StartChar: uni04E9
Encoding: 1257 1257 123
Width: 572
VWidth: 999
Flags: HMW
HStem: -12 36<202 328> 179 49<204 349> 207 42<118 238> 409 33<183 304>
VStem: 44 79<124 320> 377 79<113 318>
AnchorPoint: "unten_punkt" 223.257 -107 basechar 0
AnchorPoint: "top_punkt" 361.906 550 basechar 0
AnchorPoint: "top_akzent" 373.099 645 basechar 0
LayerCount: 2
Fore
SplineSet
426.55 219 m 1
 404.787 206 353.048 179 312.048 179 c 0
 279.048 179 254.854 195.5 229.592 203.2 c 1
 216.584 129.3 215.303 40 308.502 40 c 0
 353.502 40 401.304 72 425.748 187 c 0
 455.293 326 448.685 389 363.685 389 c 0
 283.984 389 256.966 325.4 238.659 246.8 c 1
 248.356 248.2 257.627 249 265.927 249 c 0
 310.927 249 328.676 229 366.676 229 c 0
 388.676 229 412.376 237 428.864 244 c 1
 426.55 219 l 1
81.5742 205 m 0
 114.542 360.1 238.312 439 381.312 439 c 0
 550.312 439 606.27 340 579.487 214 c 0
 550.111 75.7998 436.874 -10 283.874 -10 c 0
 134.874 -10 53.3037 72 81.5742 205 c 0
EndSplineSet
Colour: ff80cc
EndChar

StartChar: uni04EA
Encoding: 1258 1258 124
Width: 799
VWidth: 999
Flags: HW
HStem: -10 44<287.518 460.882> 266 57<387.324 534.392> 312 58<177.336 340.102> 614 44<261.342 446.336> 708 90<215.481 292.519 405.301 481.653>
VStem: 42 103<199.871 439.073> 209 90<714.481 791.519> 398 91<715.347 791.699> 576 103<198.639 454.348>
LayerCount: 2
Fore
SplineSet
816.931 329 m 0
 774.42 129 609.975 -10 395.874 -10 c 0
 197.874 -10 77.9316 122 117.893 310 c 0
 159.554 506 333.862 658 536.862 658 c 0
 749.862 658 859.018 527 816.931 329 c 0
560.731 775 m 0
 568.171 810 602.122 838 637.122 838 c 0
 671.122 838 694.171 810 686.731 775 c 0
 679.504 741 644.553 713 610.553 713 c 0
 575.553 713 553.504 741 560.731 775 c 0
340.731 775 m 0
 348.171 810 382.122 838 417.122 838 c 0
 452.122 838 474.171 810 466.731 775 c 0
 459.504 741 425.553 713 390.553 713 c 0
 355.553 713 333.504 741 340.731 775 c 0
653.231 316.3 m 1
 603.006 277.6 550.44 266 512.54 266 c 0
 420.54 266 406.317 312 331.317 312 c 0
 317.817 312 298.884 310.9 278.661 307.5 c 1
 246.277 128.8 311.24 43 427.14 43 c 0
 541.14 43 613.845 131 651.893 310 c 0
 652.339 312.1 652.785 314.2 653.231 316.3 c 1
661.008 359 m 1
 688.316 531.7 641.997 605 512.597 605 c 0
 421.597 605 336.51 543.9 289.823 358.6 c 1
 316.76 366.3 342.746 370 361.646 370 c 0
 459.646 370 479.656 323 542.656 323 c 0
 574.456 323 623.534 335.6 661.008 359 c 1
EndSplineSet
LCarets2: 1 0 
Colour: ff00ff
EndChar

StartChar: uni04EB
Encoding: 1259 1259 125
Width: 572
VWidth: 999
Flags: HW
HStem: -12 36<202 328> 179 49<204 349> 207 42<118 238> 409 33<183 304> 527 92<137.347 214.653 297.347 374.653>
VStem: 44 79<124 320> 130 92<534.347 611.653> 290 92<534.347 611.653> 377 79<113 318>
LayerCount: 2
Fore
SplineSet
432.37 571 m 0
 439.81 606 473.761 634 508.761 634 c 0
 541.761 634 563.81 606 556.37 571 c 0
 549.355 538 515.191 509 482.191 509 c 0
 447.191 509 425.355 538 432.37 571 c 0
223.37 571 m 0
 230.81 606 264.761 634 297.761 634 c 0
 332.761 634 354.81 606 347.37 571 c 0
 340.355 538 306.191 509 271.191 509 c 0
 238.191 509 216.355 538 223.37 571 c 0
426.55 219 m 1
 404.787 206 353.048 179 312.048 179 c 0
 279.048 179 254.854 195.5 229.592 203.2 c 1
 216.584 129.3 215.303 40 308.502 40 c 0
 353.502 40 401.304 72 425.748 187 c 0
 455.293 326 448.685 389 363.685 389 c 0
 283.984 389 256.966 325.4 238.659 246.8 c 1
 248.356 248.2 257.627 249 265.927 249 c 0
 310.927 249 328.676 229 366.676 229 c 0
 388.676 229 412.376 237 428.864 244 c 1
 426.55 219 l 1
81.5742 205 m 0
 114.542 360.1 238.312 439 381.312 439 c 0
 550.312 439 606.27 340 579.487 214 c 0
 550.111 75.7998 436.874 -10 283.874 -10 c 0
 134.874 -10 53.3037 72 81.5742 205 c 0
EndSplineSet
LCarets2: 1 0 
Colour: ff00ff
EndChar

StartChar: uni04EF
Encoding: 1263 1263 126
Width: 555
VWidth: 999
Flags: HW
HStem: 412 20<35 47.8974 122.5 147.704 377.982 401 461.5 473> 538 44<121.088 399.515>
VStem: 28 101<384.934 432> 99 84<-246 -210.595> 120 281<538.205 582>
LayerCount: 2
Fore
SplineSet
516.655 530 m 2
 242.655 530 l 2
 231.655 530 230.631 544 232.544 553 c 0
 235.095 565 252.408 590 265.408 590 c 2
 541.408 590 l 2
 551.408 590 552.433 576 550.732 568 c 0
 547.969 555 530.655 530 516.655 530 c 2
119.824 432 m 1
 133.187 429 194.187 429 207.187 429 c 0
 221.187 429 257.187 429 270.824 432 c 1
 282.602 329.8 301.888 230 323.569 125 c 1
 332.357 124 l 1
 395.763 220 459.647 331.9 512.824 432 c 1
 522.187 429 565.187 429 575.187 429 c 0
 585.187 429 608.187 429 618.824 432 c 1
 571.583 365 241.193 -112 176.624 -237 c 1
 167.262 -234 138.687 -232 128.687 -232 c 0
 118.687 -232 74.2617 -234 63.624 -237 c 1
 124.83 -161.7 163.862 -93.7998 211.74 -19.0996 c 1
 210.649 -12 l 2
 193.954 88.7002 140.217 345.4 119.824 432 c 1
EndSplineSet
LCarets2: 1 0 
Colour: ff00ff
EndChar

StartChar: uni04F1
Encoding: 1265 1265 127
Width: 555
VWidth: 999
Flags: HW
HStem: 412 20<35 47.8974 122.5 147.704 377.982 401 461.5 473> 527 92<152.347 229.653 312.347 389.653>
VStem: 28 101<384.934 432> 99 84<-246 -210.595> 145 92<534.347 611.653> 305 92<534.347 611.653>
LayerCount: 2
Fore
SplineSet
447.795 573 m 0
 455.234 608 489.186 636 524.186 636 c 0
 557.186 636 579.234 608 571.795 573 c 0
 564.78 540 530.616 511 497.616 511 c 0
 462.616 511 440.78 540 447.795 573 c 0
238.795 573 m 0
 246.234 608 280.186 636 313.186 636 c 0
 348.186 636 370.234 608 362.795 573 c 0
 355.78 540 321.616 511 286.616 511 c 0
 253.616 511 231.78 540 238.795 573 c 0
119.824 432 m 1
 133.187 429 194.187 429 207.187 429 c 0
 221.187 429 257.187 429 270.824 432 c 1
 282.602 329.8 301.888 230 323.569 125 c 1
 332.357 124 l 1
 395.763 220 459.647 331.9 512.824 432 c 1
 522.187 429 565.187 429 575.187 429 c 0
 585.187 429 608.187 429 618.824 432 c 1
 571.583 365 241.193 -112 176.624 -237 c 1
 167.262 -234 138.687 -232 128.687 -232 c 0
 118.687 -232 74.2617 -234 63.624 -237 c 1
 124.83 -161.7 163.862 -93.7998 211.74 -19.0996 c 1
 210.649 -12 l 2
 193.954 88.7002 140.217 345.4 119.824 432 c 1
EndSplineSet
LCarets2: 1 0 
Colour: ff00ff
EndChar

StartChar: uni04F3
Encoding: 1267 1267 128
Width: 555
VWidth: 999
Flags: HW
HStem: 412 20<35 47.8974 122.5 147.704 377.982 401 461.5 473>
VStem: 28 101<384.934 432> 99 84<-246 -210.595>
LayerCount: 2
Fore
SplineSet
601.447 609 m 0
 598.131 593.4 588.871 587 580.868 580.4 c 2
 463.312 488.4 l 2
 454.946 481.5 448.114 479 442.814 479 c 0
 429.715 479 425.089 489.7 427.065 499 c 0
 428.469 505.6 432.144 511.6 435.272 515.5 c 2
 529.014 636.6 l 1
 529.156 636.8 l 2
 532.464 640.6 545.85 657 565.649 657 c 0
 594.75 657 606.633 633.4 601.447 609 c 0
474.998 621 m 0
 473.361 613.3 469.516 606.5 464.816 601.8 c 2
 349.548 492.8 l 2
 335.679 479.3 325.777 476 318.177 476 c 0
 304.577 476 302.686 487.8 304.428 496 c 0
 305.853 502.7 308.9 508.1 311.208 511.9 c 2
 398.712 646 l 2
 409.291 661.9 428.112 662 436.713 662 c 0
 463.213 662 479.376 641.6 474.998 621 c 0
119.824 432 m 1
 133.187 429 194.187 429 207.187 429 c 0
 221.187 429 257.187 429 270.824 432 c 1
 282.602 329.8 301.888 230 323.569 125 c 1
 332.357 124 l 1
 395.763 220 459.647 331.9 512.824 432 c 1
 522.187 429 565.187 429 575.187 429 c 0
 585.187 429 608.187 429 618.824 432 c 1
 571.583 365 241.193 -112 176.624 -237 c 1
 167.262 -234 138.687 -232 128.687 -232 c 0
 118.687 -232 74.2617 -234 63.624 -237 c 1
 124.83 -161.7 163.862 -93.7998 211.74 -19.0996 c 1
 210.649 -12 l 2
 193.954 88.7002 140.217 345.4 119.824 432 c 1
EndSplineSet
LCarets2: 1 0 
Colour: ff00ff
EndChar

StartChar: uni1E00
Encoding: 7680 7680 129
Width: 701
Flags: HW
HStem: -215 27<274.238 341.262> -76 27<273.737 342.086> -3 21<24 68.5 92 115.444 500.087 513.5 590 606.5> 230 44<188.935 310> 638 20<265 387>
VStem: 222 32<-170.178 -92.558> 362 31<-169.958 -93.519>
LayerCount: 2
Fore
SplineSet
293.546 -68 m 0
 258.546 -68 226.17 -98 218.942 -132 c 0
 212.354 -163 231.339 -196 266.339 -196 c 0
 301.339 -196 334.354 -163 340.942 -132 c 0
 348.382 -97 327.546 -68 293.546 -68 c 0
172.942 -132 m 0
 185.271 -74 242.836 -29 300.836 -29 c 0
 358.836 -29 398.483 -73 385.942 -132 c 0
 374.039 -188 317.049 -235 257.049 -235 c 0
 199.049 -235 160.614 -190 172.942 -132 c 0
246.893 219.2 m 1
 194.916 135.1 148.746 56.2002 120.362 -3 c 1
 109 0 87 0 76 0 c 0
 65 0 32 0 19.3623 -3 c 1
 167.337 218 311.675 436 454.862 658 c 1
 544.862 658 l 1
 590.312 439 649.83 98 678.362 -3 c 1
 662 0 605 0 588 0 c 0
 571 0 524 0 506.362 -3 c 1
 504.975 18.7002 499.217 93.7002 479.198 219.7 c 1
 446.647 220.4 412.075 221 379.975 221 c 0
 344.275 221 285.084 220.1 246.893 219.2 c 1
469.975 275.1 m 1
 459.145 338 445.061 411 427.003 494 c 1
 422.103 494 l 1
 282.244 275.9 l 1
 313.859 275.5 357.341 274 386.24 274 c 0
 409.94 274 441.447 274.5 469.975 275.1 c 1
EndSplineSet
LCarets2: 1 0 
Colour: ff00ff
EndChar

StartChar: uni1E01
Encoding: 7681 7681 130
Width: 516
VWidth: 999
Flags: HW
HStem: -216 27<190.238 257.262> -77 27<189.737 258.086> -10 51<138.029 242.029 327.75 409.627> 394 45<147.355 264.803>
VStem: 42 81<56.8026 162.817> 138 32<-171.178 -93.558> 278 31<-170.958 -94.519> 293 79.1<81.0426 223 264.049 363.451>
DStem2: 199 243 212 202 0.972687 0.232119<-72.5363 85.8176>
LayerCount: 2
Fore
SplineSet
358.188 222 m 1
 273.724 201 l 2
 220.718 187.8 198.417 143.1 190.743 107 c 0
 185.005 80 200.628 50 230.628 50 c 0
 258.628 50 283.966 61 311.854 84 c 0
 320.464 91.0996 333.656 116 336.42 129 c 2
 358.188 222 l 1
454.005 80 m 0
 446.99 47 467.353 44 507.353 44 c 1
 512.29 39 513.438 31.7002 512.889 23 c 1
 478 0 425.975 -10 386.874 -10 c 0
 343.874 -10 325.488 7 320.203 48 c 1
 318.203 48 l 1
 263.638 3 207.975 -10 168.874 -10 c 0
 98.874 -10 40.1641 29 54.8301 98 c 0
 69.2842 166 138.125 217 239.014 240 c 1
 362.603 271 l 2
 365.815 272 369.666 276 371.153 283 c 0
 387.542 360.1 367.834 385 323.834 385 c 0
 278.834 385 228.67 356 184.042 306 c 1
 151.255 307 l 1
 147.196 382 l 1
 151.047 386 l 1
 179.511 407 272.312 439 344.312 439 c 0
 392.54 439.6 460.168 427.5 485.831 399.1 c 0
 508.16 374.3 512.652 337.1 499.878 277 c 0
 497.54 266 460.169 109 454.005 80 c 0
209.334 -69 m 0
 174.334 -69 141.957 -99 134.73 -133 c 0
 128.141 -164 147.126 -197 182.126 -197 c 0
 217.126 -197 250.141 -164 256.73 -133 c 0
 264.17 -98 243.334 -69 209.334 -69 c 0
88.7305 -133 m 0
 101.059 -75 158.623 -30 216.623 -30 c 0
 274.623 -30 314.271 -74 301.73 -133 c 0
 289.827 -189 232.837 -236 172.837 -236 c 0
 114.837 -236 76.4014 -191 88.7305 -133 c 0
EndSplineSet
LCarets2: 1 0 
Colour: ff00ff
EndChar

StartChar: uni1E02
Encoding: 7682 7682 131
Width: 675
VWidth: 999
Flags: HW
HStem: -3 44<171.13 393.675> 327 44<189 355.197> 604 44<169.89 351.471> 729 104<234.542 317.458>
VStem: 103 86<49.3073 327 371 597.325> 224 104<739.542 822.458> 395 87<424.724 562.128> 442 99<97.3818 255.662>
LayerCount: 2
Fore
SplineSet
361.906 550 m 2
 324.709 375 l 1
 402.709 375 l 2
 485.709 375 512.723 408 528.239 481 c 0
 546.796 568.3 518.471 595 462.471 595 c 0
 381.471 595 368.921 583 361.906 550 c 2
313.443 322 m 1
 265.618 97 l 2
 258.604 64 272.628 50 342.628 50 c 0
 476.628 50 493.405 96 508.072 165 c 0
 523.206 236.2 523.443 322 406.443 322 c 2
 313.443 322 l 1
314.099 645 m 0
 377.099 645 441.736 648 476.736 648 c 0
 662.736 648 694.031 560 679.79 493 c 0
 668.1 438 604.834 385 548.521 360 c 1
 630.206 335 693.516 280 673.11 184 c 0
 654.83 98 559.362 -3 360.362 -3 c 0
 271.362 -3 249 0 177 0 c 0
 142 0 91.3623 -3 91.3623 -3 c 1
 91 0 l 1
 110.479 54 129.569 125 145.512 200 c 2
 197.588 445 l 2
 213.529 520 223.983 588 228.099 645 c 1
 230.736 648 l 1
 230.736 648 280.099 645 314.099 645 c 0
EndSplineSet
LCarets2: 1 0 
Colour: ff00ff
EndChar

StartChar: uni1E03
Encoding: 7683 7683 132
Width: 590
VWidth: 999
Flags: HW
HStem: -10 44<179.548 305.024> 385 54<196.637 317.65> 519 104<223.248 306.458> 678 20<143.465 159.167>
VStem: 75 80<58.0308 360.44 384 667.981> 213 104<529.542 612.752> 375 85<134.529 320.197>
LayerCount: 2
Fore
SplineSet
233.193 95 m 1
 238.604 64 276.565 45 307.565 45 c 0
 359.565 45 432.956 108 457.188 222 c 0
 477.806 319 455.858 371 394.858 371 c 0
 370.759 371 339.158 363 282.719 328 c 1
 233.193 95 l 1
319.278 500 m 2
 294.622 384 l 1
 364.187 429 416.312 439 459.312 439 c 0
 512.412 439 547.979 425.2 579.685 389 c 0
 609.3 355.2 614.979 301 602.438 242 c 0
 566.304 72 416.874 -10 306.874 -10 c 0
 261.874 -10 193.126 10 175.928 42 c 1
 158.664 29 124.425 2 112.449 -12 c 1
 102.949 -12 72.5547 -6.7998 67.3623 -3 c 1
 76.1963 18.7998 81.8018 32 90.0918 71 c 2
 175.752 474 l 2
 191.906 550 202.336 619.3 203.713 662 c 1
 206.351 665 l 1
 247.487 668 337.139 688 364.364 698 c 1
 370.664 698 372.727 695 371.239 688 c 2
 364.069 666.5 l 1
 377.421 673.8 392.613 678 408.113 678 c 0
 450.113 678 476.524 647 468.021 607 c 0
 459.52 567 419.931 536 377.931 536 c 0
 358.53 536 342.434 542.6 331.593 553.7 c 1
 327.422 536.9 323.359 519.2 319.278 500 c 2
EndSplineSet
LCarets2: 1 0 
Colour: ff00ff
EndChar

StartChar: uni1E04
Encoding: 7684 7684 133
Width: 675
VWidth: 999
Flags: HW
HStem: -167 104<228.248 311.458> -3 44<171.13 393.675> 327 44<189 355.197> 604 44<169.378 351.471>
VStem: 103 86<49.3073 327 371 597.325> 218 104<-156.458 -73.2479> 395 87<424.724 562.128> 442 99<97.3818 255.662>
LayerCount: 2
Fore
SplineSet
361.906 550 m 2
 324.709 375 l 1
 402.709 375 l 2
 485.709 375 512.723 408 528.239 481 c 0
 546.796 568.3 518.471 595 462.471 595 c 0
 381.471 595 368.921 583 361.906 550 c 2
313.443 322 m 1
 265.618 97 l 2
 258.604 64 272.628 50 342.628 50 c 0
 476.628 50 493.405 96 508.072 165 c 0
 523.206 236.2 523.443 322 406.443 322 c 2
 313.443 322 l 1
314.099 645 m 0
 377.099 645 441.736 648 476.736 648 c 0
 662.736 648 694.031 560 679.79 493 c 0
 668.1 438 604.834 385 548.521 360 c 1
 630.206 335 693.516 280 673.11 184 c 0
 654.83 98 559.362 -3 360.362 -3 c 0
 271.362 -3 249 0 177 0 c 0
 142 0 91.3623 -3 91.3623 -3 c 1
 91 0 l 1
 110.479 54 129.569 125 145.512 200 c 2
 197.588 445 l 2
 213.529 520 223.983 588 228.099 645 c 1
 230.736 648 l 1
 230.736 648 280.099 645 314.099 645 c 0
162.542 -148 m 0
 171.044 -108 210.633 -77 252.633 -77 c 0
 294.633 -77 321.044 -108 312.542 -148 c 0
 304.039 -188 264.45 -219 222.45 -219 c 0
 180.45 -219 154.039 -188 162.542 -148 c 0
EndSplineSet
LCarets2: 1 0 
Colour: ff00ff
EndChar

StartChar: uni1E05
Encoding: 7685 7685 134
Width: 590
VWidth: 999
Flags: HW
HStem: -167 104<183.248 266.458> -10 44<179.548 305.024> 385 54<196.637 317.65> 678 20<143.465 159.167>
VStem: 75 80<58.0308 360.44 384 667.981> 173 104<-156.458 -73.2479> 375 85<134.529 320.197>
LayerCount: 2
Fore
SplineSet
233.193 95 m 1
 238.604 64 276.565 45 307.565 45 c 0
 359.565 45 432.956 108 457.188 222 c 0
 477.806 319 455.858 371 394.858 371 c 0
 370.759 371 339.158 363 282.719 328 c 1
 233.193 95 l 1
319.278 500 m 2
 294.622 384 l 1
 364.187 429 416.312 439 459.312 439 c 0
 512.412 439 547.979 425.2 579.685 389 c 0
 609.3 355.2 614.979 301 602.438 242 c 0
 566.304 72 416.874 -10 306.874 -10 c 0
 261.874 -10 193.126 10 175.928 42 c 1
 158.664 29 124.425 2 112.449 -12 c 1
 102.949 -12 72.5547 -6.7998 67.3623 -3 c 1
 76.1963 18.7998 81.8018 32 90.0918 71 c 2
 175.752 474 l 2
 191.906 550 202.336 619.3 203.713 662 c 1
 206.351 665 l 1
 247.487 668 337.139 688 364.364 698 c 1
 370.664 698 372.727 695 371.239 688 c 0
 350.509 626.7 335.008 574 319.278 500 c 2
117.542 -148 m 0
 126.044 -108 165.633 -77 207.633 -77 c 0
 249.633 -77 276.044 -108 267.542 -148 c 0
 259.039 -188 219.45 -219 177.45 -219 c 0
 135.45 -219 109.039 -188 117.542 -148 c 0
EndSplineSet
LCarets2: 1 0 
Colour: ff00ff
EndChar

StartChar: uni1E06
Encoding: 7686 7686 135
Width: 675
VWidth: 999
Flags: HW
HStem: -106 44<137 148 148 415> -3 44<171.13 393.675> 327 44<189 355.197> 604 44<169.378 351.471>
VStem: 103 86<49.3073 327 371 597.325> 395 87<424.724 562.128> 442 99<97.3818 255.662>
LayerCount: 2
Fore
SplineSet
361.906 550 m 2
 324.709 375 l 1
 402.709 375 l 2
 485.709 375 512.723 408 528.239 481 c 0
 546.796 568.3 518.471 595 462.471 595 c 0
 381.471 595 368.921 583 361.906 550 c 2
313.443 322 m 1
 265.618 97 l 2
 258.604 64 272.628 50 342.628 50 c 0
 476.628 50 493.405 96 508.072 165 c 0
 523.206 236.2 523.443 322 406.443 322 c 2
 313.443 322 l 1
314.099 645 m 0
 377.099 645 441.736 648 476.736 648 c 0
 662.736 648 694.031 560 679.79 493 c 0
 668.1 438 604.834 385 548.521 360 c 1
 630.206 335 693.516 280 673.11 184 c 0
 654.83 98 559.362 -3 360.362 -3 c 0
 271.362 -3 249 0 177 0 c 0
 142 0 91.3623 -3 91.3623 -3 c 1
 91 0 l 1
 110.479 54 129.569 125 145.512 200 c 2
 197.588 445 l 2
 213.529 520 223.983 588 228.099 645 c 1
 230.736 648 l 1
 230.736 648 280.099 645 314.099 645 c 0
370.469 -106 m 2
 125.469 -106 l 2
 117.469 -106 115.17 -98 116.657 -91 c 0
 119.208 -79 132.821 -62 144.821 -62 c 2
 389.821 -62 l 2
 398.821 -62 401.334 -69 399.846 -76 c 0
 397.295 -88 383.469 -106 370.469 -106 c 2
EndSplineSet
LCarets2: 1 0 
Colour: ff00ff
EndChar

StartChar: uni1E07
Encoding: 7687 7687 136
Width: 590
VWidth: 999
Flags: HW
HStem: -110 44<107 118 118 385> -10 44<179.548 305.024> 385 54<196.637 317.65> 678 20<143.465 159.167>
VStem: 75 80<58.0308 360.44 384 667.981> 375 85<134.529 320.197>
LayerCount: 2
Fore
SplineSet
233.193 95 m 1
 238.604 64 276.565 45 307.565 45 c 0
 359.565 45 432.956 108 457.188 222 c 0
 477.806 319 455.858 371 394.858 371 c 0
 370.759 371 339.158 363 282.719 328 c 1
 233.193 95 l 1
319.278 500 m 2
 294.622 384 l 1
 364.187 429 416.312 439 459.312 439 c 0
 512.412 439 547.979 425.2 579.685 389 c 0
 609.3 355.2 614.979 301 602.438 242 c 0
 566.304 72 416.874 -10 306.874 -10 c 0
 261.874 -10 193.126 10 175.928 42 c 1
 158.664 29 124.425 2 112.449 -12 c 1
 102.949 -12 72.5547 -6.7998 67.3623 -3 c 1
 76.1963 18.7998 81.8018 32 90.0918 71 c 2
 175.752 474 l 2
 191.906 550 202.336 619.3 203.713 662 c 1
 206.351 665 l 1
 247.487 668 337.139 688 364.364 698 c 1
 370.664 698 372.727 695 371.239 688 c 0
 350.509 626.7 335.008 574 319.278 500 c 2
339.619 -110 m 2
 94.6191 -110 l 2
 86.6191 -110 84.3193 -102 85.8066 -95 c 0
 88.3574 -83 101.972 -66 113.972 -66 c 2
 358.972 -66 l 2
 367.972 -66 370.483 -73 368.995 -80 c 0
 366.444 -92 352.619 -110 339.619 -110 c 2
EndSplineSet
LCarets2: 1 0 
Colour: ff00ff
EndChar

StartChar: uni1E08
Encoding: 7688 7688 137
Width: 691
VWidth: 999
Flags: HW
HStem: -185 25<286.659 383.933> -84 32<356.31 393.165> -10 51<269.467 470.143> 611 47<271.061 460.844> 697 122
VStem: 37 103<195.742 435.455> 269 201 400 53<-150.949 -88.278>
DStem2: 307 -84 356 -55 0.397156 0.917751<46.0754 95.3334>
LayerCount: 2
Fore
SplineSet
295.595 -96 m 1
 285.357 -83 l 1
 335.585 -7.59961 l 1
 270.015 -0.400391 214.383 22.5 175.903 56 c 0
 103.909 118.6 83.2314 217.5 103.955 315 c 0
 127.315 424.9 193.118 522.3 285.133 584 c 0
 358.006 632.8 454.862 658 545.862 658 c 0
 667.862 658 754.297 613 754.297 613 c 1
 755.659 610 l 1
 733.381 560.7 722.468 531 708.027 480 c 1
 677.814 479 l 1
 654.244 561 609.959 602 519.959 602 c 0
 437.959 602 314.143 537 270.994 334 c 0
 241.023 193 302.628 50 411.628 50 c 0
 504.628 50 553.241 67 643.545 139 c 1
 660.318 105 l 1
 557.826 18 469.074 -10 379.874 -10 c 2
 379.774 -10 l 1
 356.797 -48 l 1
 422.797 -48 433.72 -86 428.406 -111 c 0
 419.054 -155 367.252 -187 308.252 -187 c 0
 278.252 -187 264.677 -185 234.865 -170 c 1
 257.518 -134 l 1
 276.817 -142 289.754 -147 311.754 -147 c 0
 335.754 -147 359.73 -133 363.344 -116 c 0
 366.106 -103 358.082 -89 340.082 -89 c 0
 324.082 -89 307.444 -92 295.595 -96 c 1
638.18 970 m 1
 661.605 951.3 675.127 918 677.963 889 c 1
 668.008 875.1 l 1
 506.635 831 l 2
 483.074 824.6 473.821 822 465.722 822 c 0
 457.621 822 453.122 838 455.035 847 c 0
 456.523 854 459.981 861.8 475.137 871 c 2
 638.18 970 l 1
EndSplineSet
LCarets2: 1 0 
Colour: ff00ff
EndChar

StartChar: uni1E09
Encoding: 7689 7689 138
Width: 466
VWidth: 999
Flags: HW
HStem: -198 29<156.047 256.231> -94 32<231.31 261.355> -10 54<198.612 332.08> 394 45<189.998 317.695>
VStem: 36 85<130.336 304.92> 266 62<-163.259 -95.4563>
DStem2: 182 -94 231 -65 0.384615 0.923077<45.6154 104>
LayerCount: 2
Fore
SplineSet
186.87 -90 m 1
 176.633 -77 l 1
 223.19 -7.09961 l 1
 169.506 0.5 129.446 22.7998 107.479 54 c 0
 81.6787 90.7002 71.6514 139.5 84.9365 202 c 0
 118.308 359 244.312 439 378.312 439 c 0
 428.312 439 492.699 422 520.298 406 c 1
 521.66 403 l 1
 477.042 306 l 1
 448.83 305 l 1
 438.521 360 414.972 388 376.472 388 c 0
 310.472 388 251.165 330.1 229.463 228 c 0
 217.305 170.8 222.633 130 234.468 101 c 0
 246.304 72 275.99 47 304.99 47 c 0
 344.99 47 390.479 54 425.705 88 c 1
 441.705 88 l 1
 438.304 72 437.172 53.5 437.353 44 c 1
 384.639 6.2998 342.817 -9.7998 267.374 -10 c 1
 248.072 -42 l 1
 314.072 -42 324.995 -80 319.682 -105 c 0
 310.329 -149 258.527 -181 199.527 -181 c 0
 169.527 -181 155.952 -179 126.141 -164 c 1
 148.793 -128 l 1
 168.093 -136 181.029 -141 203.029 -141 c 0
 227.029 -141 251.005 -127 254.619 -110 c 0
 257.382 -97 249.357 -83 231.357 -83 c 0
 215.357 -83 198.72 -86 186.87 -90 c 1
427.823 639 m 1
 431.036 640 439.249 641 444.249 641 c 0
 474.249 641 500.273 627 506.147 617 c 1
 511.259 594 l 1
 368.303 486 l 2
 351.752 474 331.901 470 321.901 470 c 0
 313.901 470 302.602 478 303.877 484 c 0
 305.152 490 309.065 499 316.979 508 c 2
 427.823 639 l 1
EndSplineSet
LCarets2: 1 0 
Colour: ff00ff
EndChar

StartChar: uni1E0A
Encoding: 7690 7690 139
Width: 771
VWidth: 999
Flags: HW
HStem: -2 44<168.537 432.266> 604 44<169.393 389.698> 729 104<254.542 337.458>
VStem: 101 86<49.3073 594.385> 244 104<739.542 822.458> 552 103<179.784 425.325>
LayerCount: 2
Fore
SplineSet
266.468 101 m 2
 259.666 69 270.841 51 368.841 51 c 0
 509.841 51 580.43 82 623.366 284 c 0
 656.1 438 675.471 595 459.471 595 c 0
 410.471 595 368.283 580 360.844 545 c 2
 266.468 101 l 2
312.099 645 m 0
 388.099 645 432.736 648 508.736 648 c 0
 700.736 648 833.003 494 793.468 308 c 0
 741.179 62 529.575 -2 388.575 -2 c 0
 285.575 -2 258 0 175 0 c 0
 140 0 89.3623 -3 89.3623 -3 c 1
 89 0 l 1
 108.479 54 127.569 125 143.512 200 c 2
 195.588 445 l 2
 211.529 520 221.983 588 226.099 645 c 1
 228.736 648 l 1
 228.736 648 278.099 645 312.099 645 c 0
EndSplineSet
LCarets2: 1 0 
Colour: ff00ff
EndChar

StartChar: uni1E0B
Encoding: 7691 7691 140
Width: 601
VWidth: 999
Flags: HW
HStem: -10 57<184.507 297.415> -3 21<374 383.667 449.5 458> 394 45<189.467 329.898> 519 104<190.248 273.458> 678 20<429.466 445.167>
VStem: 40 85<116.128 302.432> 180 104<529.542 612.752> 361 80<87.1288 364.244 417 667.981>
LayerCount: 2
Fore
SplineSet
415.082 118 m 1
 459.293 326 l 1
 443.37 364 423.834 385 376.834 385 c 0
 328.435 385 258.67 356 229.975 221 c 0
 203.405 96 240.903 56 294.903 56 c 0
 335.403 56 368.698 71.5 415.082 118 c 1
403.604 64 m 1
 344.613 17 291.874 -10 234.874 -10 c 0
 118.874 -10 61.0049 80 87.1494 203 c 0
 102.432 274.9 138.844 338 212.26 387 c 0
 264.356 421.8 332.013 439 409.312 439 c 0
 429.312 439 458.399 430 478.636 417 c 1
 490.752 474 l 2
 506.906 550 517.336 619.3 518.713 662 c 1
 521.35 665 l 1
 562.488 668 650.139 688 677.364 698 c 1
 683.664 698 687.727 695 686.239 688 c 0
 665.509 626.7 650.008 574 634.278 500 c 2
 568.811 192 l 2
 552.869 117 548.14 43 547 0 c 1
 544.362 -3 l 1
 531.787 -1 482.1 0 469.5 0 c 0
 455 0 419.023 -1.2998 405.362 -3 c 0
 399.362 -3 396.575 -2 397 0 c 2
 405.604 64 l 1
 403.604 64 l 1
285.021 607 m 0
 293.524 647 333.113 678 375.113 678 c 0
 417.113 678 443.524 647 435.021 607 c 0
 426.52 567 386.931 536 344.931 536 c 0
 302.931 536 276.52 567 285.021 607 c 0
EndSplineSet
LCarets2: 1 0 
Colour: ff00ff
EndChar

StartChar: uni1E0C
Encoding: 7692 7692 141
Width: 771
VWidth: 999
Flags: HW
HStem: -167 104<248.248 331.458> -2 44<168.546 432.266> 604 44<169.401 389.698>
VStem: 101 86<49.3073 594.385> 238 104<-156.458 -73.2479> 552 103<179.784 425.325>
LayerCount: 2
Fore
SplineSet
266.468 101 m 2
 259.666 69 270.841 51 368.841 51 c 0
 509.841 51 580.43 82 623.366 284 c 0
 656.1 438 675.471 595 459.471 595 c 0
 410.471 595 368.283 580 360.844 545 c 2
 266.468 101 l 2
312.099 645 m 0
 388.099 645 432.736 648 508.736 648 c 0
 700.736 648 833.003 494 793.468 308 c 0
 741.179 62 529.575 -2 388.575 -2 c 0
 285.575 -2 258 0 175 0 c 0
 140 0 89.3623 -3 89.3623 -3 c 1
 89 0 l 1
 108.479 54 127.569 125 143.512 200 c 2
 195.588 445 l 2
 211.529 520 221.983 588 226.099 645 c 1
 228.736 648 l 1
 228.736 648 278.099 645 312.099 645 c 0
182.542 -148 m 0
 191.044 -108 230.633 -77 272.633 -77 c 0
 314.633 -77 341.044 -108 332.542 -148 c 0
 324.039 -188 284.45 -219 242.45 -219 c 0
 200.45 -219 174.039 -188 182.542 -148 c 0
EndSplineSet
LCarets2: 1 0 
Colour: ff00ff
EndChar

StartChar: uni1E0D
Encoding: 7693 7693 142
Width: 601
VWidth: 999
Flags: HW
HStem: -167 104<244.248 327.458> -10 57<184.507 297.415> -3 21<374 383.667 449.5 458> 394 45<189.467 329.898> 678 20<429.466 445.167>
VStem: 40 85<116.128 302.432> 234 104<-156.458 -73.2479> 361 80<87.1288 364.244 417 667.981>
LayerCount: 2
Fore
SplineSet
415.082 118 m 1
 459.293 326 l 1
 443.37 364 423.834 385 376.834 385 c 0
 328.435 385 258.67 356 229.975 221 c 0
 203.405 96 240.903 56 294.903 56 c 0
 335.403 56 368.698 71.5 415.082 118 c 1
403.604 64 m 1
 344.613 17 291.874 -10 234.874 -10 c 0
 118.874 -10 61.0049 80 87.1494 203 c 0
 102.432 274.9 138.844 338 212.26 387 c 0
 264.356 421.8 332.013 439 409.312 439 c 0
 429.312 439 458.399 430 478.636 417 c 1
 490.752 474 l 2
 506.906 550 517.336 619.3 518.713 662 c 1
 521.35 665 l 1
 562.488 668 650.139 688 677.364 698 c 1
 683.664 698 687.727 695 686.239 688 c 0
 665.509 626.7 650.008 574 634.278 500 c 2
 568.811 192 l 2
 552.869 117 548.14 43 547 0 c 1
 544.362 -3 l 1
 531.787 -1 482.1 0 469.5 0 c 0
 455 0 419.023 -1.2998 405.362 -3 c 0
 399.362 -3 396.575 -2 397 0 c 2
 405.604 64 l 1
 403.604 64 l 1
178.542 -148 m 0
 187.044 -108 226.633 -77 268.633 -77 c 0
 310.633 -77 337.044 -108 328.542 -148 c 0
 320.039 -188 280.45 -219 238.45 -219 c 0
 196.45 -219 170.039 -188 178.542 -148 c 0
EndSplineSet
LCarets2: 1 0 
Colour: ff00ff
EndChar

StartChar: uni1E0E
Encoding: 7694 7694 143
Width: 771
VWidth: 999
Flags: HW
HStem: -105 44<144 155 155 422> -2 44<168.546 432.266> 604 44<169.401 389.698>
VStem: 101 86<49.3073 594.385> 552 103<179.784 425.325>
LayerCount: 2
Fore
SplineSet
266.468 101 m 2
 259.666 69 270.841 51 368.841 51 c 0
 509.841 51 580.43 82 623.366 284 c 0
 656.1 438 675.471 595 459.471 595 c 0
 410.471 595 368.283 580 360.844 545 c 2
 266.468 101 l 2
312.099 645 m 0
 388.099 645 432.736 648 508.736 648 c 0
 700.736 648 833.003 494 793.468 308 c 0
 741.179 62 529.575 -2 388.575 -2 c 0
 285.575 -2 258 0 175 0 c 0
 140 0 89.3623 -3 89.3623 -3 c 1
 89 0 l 1
 108.479 54 127.569 125 143.512 200 c 2
 195.588 445 l 2
 211.529 520 221.983 588 226.099 645 c 1
 228.736 648 l 1
 228.736 648 278.099 645 312.099 645 c 0
377.682 -105 m 2
 132.682 -105 l 2
 124.682 -105 122.382 -97 123.87 -90 c 0
 126.421 -78 140.034 -61 152.034 -61 c 2
 397.034 -61 l 2
 406.034 -61 408.546 -68 407.059 -75 c 0
 404.508 -87 390.682 -105 377.682 -105 c 2
EndSplineSet
LCarets2: 1 0 
Colour: ff00ff
EndChar

StartChar: uni1E0F
Encoding: 7695 7695 144
Width: 601
VWidth: 999
Flags: HW
HStem: -109 44<146 157 157 424> -10 57<184.507 297.415> -3 21<374 383.667 449.5 458> 394 45<189.467 329.898> 678 20<429.466 445.167>
VStem: 40 85<116.128 302.432> 361 80<87.1288 364.244 417 667.981>
LayerCount: 2
Fore
SplineSet
415.082 118 m 1
 459.293 326 l 1
 443.37 364 423.834 385 376.834 385 c 0
 328.435 385 258.67 356 229.975 221 c 0
 203.405 96 240.903 56 294.903 56 c 0
 335.403 56 368.698 71.5 415.082 118 c 1
403.604 64 m 1
 344.613 17 291.874 -10 234.874 -10 c 0
 118.874 -10 61.0049 80 87.1494 203 c 0
 102.432 274.9 138.844 338 212.26 387 c 0
 264.356 421.8 332.013 439 409.312 439 c 0
 429.312 439 458.399 430 478.636 417 c 1
 490.752 474 l 2
 506.906 550 517.336 619.3 518.713 662 c 1
 521.35 665 l 1
 562.488 668 650.139 688 677.364 698 c 1
 683.664 698 687.727 695 686.239 688 c 0
 665.509 626.7 650.008 574 634.278 500 c 2
 568.811 192 l 2
 552.869 117 548.14 43 547 0 c 1
 544.362 -3 l 1
 531.787 -1 482.1 0 469.5 0 c 0
 455 0 419.023 -1.2998 405.362 -3 c 0
 399.362 -3 396.575 -2 397 0 c 2
 405.604 64 l 1
 403.604 64 l 1
378.831 -109 m 2
 133.831 -109 l 2
 125.831 -109 123.532 -101 125.02 -94 c 0
 127.57 -82 141.184 -65 153.184 -65 c 2
 398.184 -65 l 2
 407.184 -65 409.696 -72 408.208 -79 c 0
 405.657 -91 391.831 -109 378.831 -109 c 2
EndSplineSet
LCarets2: 1 0 
Colour: ff00ff
EndChar

StartChar: uni1E10
Encoding: 7696 7696 145
Width: 771
VWidth: 999
Flags: HW
HStem: -181 25<103.659 200.933> -80 32<173.31 210.165> -2 44<168.546 432.266> 604 44<169.401 389.698>
VStem: 101 86<49.3073 594.385> 217 53<-146.949 -84.278> 552 103<179.784 425.325>
DStem2: 124 -80 173 -51 0.397156 0.917751<46.0754 95.3334>
LayerCount: 2
Fore
SplineSet
113.444 -92 m 1
 103.208 -79 l 1
 155.657 -0.200195 l 1
 123.909 -0.900391 89.3623 -3 89.3623 -3 c 1
 89 0 l 1
 108.479 54 127.569 125 143.512 200 c 2
 195.588 445 l 2
 211.529 520 221.983 588 226.099 645 c 1
 228.736 648 l 1
 228.736 648 278.099 645 312.099 645 c 0
 388.099 645 432.736 648 508.736 648 c 0
 700.736 648 833.003 494 793.468 308 c 0
 741.179 62 529.575 -2 388.575 -2 c 0
 297.175 -2 265.193 -0.5 201.179 -0.0996094 c 1
 174.647 -44 l 1
 240.647 -44 251.57 -82 246.257 -107 c 0
 236.904 -151 185.103 -183 126.103 -183 c 0
 96.1025 -183 82.5273 -181 52.7158 -166 c 1
 75.3672 -130 l 1
 94.667 -138 107.604 -143 129.604 -143 c 0
 153.604 -143 177.58 -129 181.193 -112 c 0
 183.957 -99 175.933 -85 157.933 -85 c 0
 141.933 -85 125.295 -88 113.444 -92 c 1
266.468 101 m 2
 259.666 69 270.841 51 368.841 51 c 0
 509.841 51 580.43 82 623.366 284 c 0
 656.1 438 675.471 595 459.471 595 c 0
 410.471 595 368.283 580 360.844 545 c 2
 266.468 101 l 2
EndSplineSet
LCarets2: 1 0 
Colour: ff00ff
EndChar

StartChar: uni1E11
Encoding: 7697 7697 146
Width: 601
VWidth: 999
Flags: HW
HStem: -177 25<200.659 297.933> -76 32<270.31 307.165> -10 66<206.415 316.415> -3 21<393 402.667 506.5 515> 385 54<211.48 348.898> 678 20<486.465 502.167>
VStem: 40 123<106.56 296.929> 314 53<-142.949 -80.278> 380 118<96.6489 355.244 417 667.981>
DStem2: 221 -76 270 -47 0.397156 0.917751<46.0754 95.3334>
LayerCount: 2
Fore
SplineSet
211.295 -88 m 1
 201.059 -75 l 1
 244.538 -9.7002 l 1
 241.296 -9.90039 238.074 -10 234.874 -10 c 0
 118.874 -10 61.0049 80 87.1494 203 c 0
 102.432 274.9 138.844 338 212.26 387 c 0
 264.356 421.8 332.013 439 409.312 439 c 0
 429.312 439 458.399 430 478.636 417 c 1
 490.752 474 l 2
 506.906 550 517.336 619.3 518.713 662 c 1
 521.35 665 l 1
 562.488 668 650.139 688 677.364 698 c 1
 683.664 698 687.727 695 686.239 688 c 0
 665.509 626.7 650.008 574 634.278 500 c 2
 568.811 192 l 2
 552.869 117 548.14 43 547 0 c 1
 544.362 -3 l 1
 531.787 -1 482.1 0 469.5 0 c 0
 455 0 419.023 -1.2998 405.362 -3 c 0
 399.362 -3 396.575 -2 397 0 c 2
 405.604 64 l 1
 403.604 64 l 1
 366.533 34.5 331.921 12.7998 297.17 0.799805 c 1
 272.498 -40 l 1
 338.498 -40 349.421 -78 344.106 -103 c 0
 334.754 -147 282.952 -179 223.952 -179 c 0
 193.952 -179 180.378 -177 150.565 -162 c 1
 173.218 -126 l 1
 192.518 -134 205.455 -139 227.455 -139 c 0
 251.455 -139 275.431 -125 279.044 -108 c 0
 281.807 -95 273.783 -81 255.783 -81 c 0
 239.783 -81 223.146 -84 211.295 -88 c 1
415.082 118 m 1
 459.293 326 l 1
 443.37 364 423.834 385 376.834 385 c 0
 328.435 385 258.67 356 229.975 221 c 0
 203.405 96 240.903 56 294.903 56 c 0
 335.403 56 368.698 71.5 415.082 118 c 1
EndSplineSet
LCarets2: 1 0 
Colour: ff00ff
EndChar

StartChar: uni1E12
Encoding: 7698 7698 147
Width: 771
VWidth: 999
Flags: HW
HStem: -2 44<168.546 432.266> 604 44<169.401 389.698>
VStem: 101 86<49.3073 594.385> 140 253<-186 -186> 552 103<179.784 425.325>
LayerCount: 2
Fore
SplineSet
323.687 -232 m 1
 291.586 -256 l 1
 248.475 -233 220.088 -216 189.952 -179 c 1
 139.663 -218 105.475 -233 56.5859 -256 c 1
 34.6865 -232 l 1
 135.967 -146 146.518 -134 190.72 -86 c 1
 230.72 -86 l 1
 257.242 -140 265.416 -158 323.687 -232 c 1
266.468 101 m 2
 259.666 69 270.841 51 368.841 51 c 0
 509.841 51 580.43 82 623.366 284 c 0
 656.1 438 675.471 595 459.471 595 c 0
 410.471 595 368.283 580 360.844 545 c 2
 266.468 101 l 2
312.099 645 m 0
 388.099 645 432.736 648 508.736 648 c 0
 700.736 648 833.003 494 793.468 308 c 0
 741.179 62 529.575 -2 388.575 -2 c 0
 285.575 -2 258 0 175 0 c 0
 140 0 89.3623 -3 89.3623 -3 c 1
 89 0 l 1
 108.479 54 127.569 125 143.512 200 c 2
 195.588 445 l 2
 211.529 520 221.983 588 226.099 645 c 1
 228.736 648 l 1
 228.736 648 278.099 645 312.099 645 c 0
EndSplineSet
LCarets2: 1 0 
Colour: ff00ff
EndChar

StartChar: uni1E13
Encoding: 7699 7699 148
Width: 601
VWidth: 999
Flags: HW
HStem: -10 66<206.415 316.415> -3 21<393 402.667 506.5 515> 385 54<211.48 348.898> 678 20<486.465 502.167>
VStem: 40 123<106.56 296.929> 140 253<-186 -186> 380 118<96.6489 355.244 417 667.981>
LayerCount: 2
Fore
SplineSet
323.687 -232 m 1
 291.586 -256 l 1
 248.475 -233 220.088 -216 189.952 -179 c 1
 139.663 -218 105.475 -233 56.5859 -256 c 1
 34.6865 -232 l 1
 135.967 -146 146.518 -134 190.72 -86 c 1
 230.72 -86 l 1
 257.242 -140 265.416 -158 323.687 -232 c 1
415.082 118 m 1
 459.293 326 l 1
 443.37 364 423.834 385 376.834 385 c 0
 328.435 385 258.67 356 229.975 221 c 0
 203.405 96 240.903 56 294.903 56 c 0
 335.403 56 368.698 71.5 415.082 118 c 1
403.604 64 m 1
 344.613 17 291.874 -10 234.874 -10 c 0
 118.874 -10 61.0049 80 87.1494 203 c 0
 102.432 274.9 138.844 338 212.26 387 c 0
 264.356 421.8 332.013 439 409.312 439 c 0
 429.312 439 458.399 430 478.636 417 c 1
 490.752 474 l 2
 506.906 550 517.336 619.3 518.713 662 c 1
 521.35 665 l 1
 562.488 668 650.139 688 677.364 698 c 1
 683.664 698 687.727 695 686.239 688 c 0
 665.509 626.7 650.008 574 634.278 500 c 2
 568.811 192 l 2
 552.869 117 548.14 43 547 0 c 1
 544.362 -3 l 1
 531.787 -1 482.1 0 469.5 0 c 0
 455 0 419.023 -1.2998 405.362 -3 c 0
 399.362 -3 396.575 -2 397 0 c 2
 405.604 64 l 1
 403.604 64 l 1
EndSplineSet
LCarets2: 1 0 
Colour: ff00ff
EndChar

StartChar: uni1E14
Encoding: 7700 7700 149
Width: 584
VWidth: 999
Flags: HW
HStem: -2 29<14 50> 0 39<183.683 419.99> 323 38<182 352.245> 416 20<367 392.5> 605 40<183.485 390.274> 618 28<14 50> 733 44<164.088 442.515>
VStem: 101 81<40.3443 323 361 603.225> 163 281<733.205 777> 361 34<252 316.054 403 436> 438 29<499.793 534.346> 489 31<128.12 166.129>
LayerCount: 2
Fore
SplineSet
594.302 693 m 2
 320.302 693 l 2
 309.302 693 308.277 707 310.19 716 c 0
 312.741 728 330.055 753 343.055 753 c 2
 619.055 753 l 2
 629.055 753 630.079 739 628.379 731 c 0
 625.615 718 608.302 693 594.302 693 c 2
282.512 200 m 2
 278.897 183 261.618 97 263.517 73 c 1
 397.517 73 554.193 95 554.193 95 c 1
 555.343 91 l 1
 552.643 83 543.777 46 541.652 36 c 0
 539.526 26 537.976 14 536 0 c 1
 533.362 -3 l 1
 517.787 -1 495 0 474 0 c 2
 170 0 l 2
 135 0 84.3623 -3 84.3623 -3 c 1
 84 0 l 1
 103.479 54 122.569 125 138.512 200 c 2
 190.588 445 l 2
 206.529 520 216.983 588 221.099 645 c 1
 223.736 648 l 1
 223.736 648 273.099 645 307.099 645 c 0
 337.099 645 601.099 645 601.099 645 c 2
 622.099 645 645.312 646 661.736 648 c 1
 663.099 645 l 1
 659.123 631 655.36 618 653.659 610 c 0
 651.746 601 647.646 577 646.944 569 c 1
 644.095 565 l 1
 644.095 565 504.646 577 370.646 577 c 1
 358.544 553 338.201 462 334.588 445 c 2
 319.071 372 l 1
 437.071 372 488.134 377 548.196 382 c 1
 550.559 379 l 1
 546.646 370 541.607 351 539.694 342 c 0
 537.781 333 534.53 313 534.617 304 c 1
 530.979 301 l 1
 463.468 308 354.105 311 306.105 311 c 1
 282.512 200 l 2
216.774 964.8 m 1
 307.561 877.7 l 2
 315.939 869.6 315.994 862.8 314.676 856.6 c 0
 312.997 848.7 303.8 834.6 297.6 834.6 c 0
 291.399 834.6 285.167 836.8 269.279 842.5 c 2
 160.526 881.3 l 1
 157.74 893.6 l 1
 170.061 919.1 192.167 948.3 216.774 964.8 c 1
EndSplineSet
LCarets2: 1 0 
Colour: ff00ff
EndChar

StartChar: uni1E15
Encoding: 7701 7701 150
Width: 499
VWidth: 999
Flags: HW
HStem: -10 59<197.345 335.48> 243 44<125 319.997> 399 40<175.584 290.389> 538 44<91.0876 369.515>
VStem: 34 88<132.133 243> 90 281<538.205 582> 320 89<254.5 358.106>
LayerCount: 2
Fore
SplineSet
514.655 530 m 2
 240.655 530 l 2
 229.655 530 228.631 544 230.544 553 c 0
 233.095 565 250.408 590 263.408 590 c 2
 539.408 590 l 2
 549.408 590 550.433 576 548.732 568 c 0
 545.969 555 528.655 530 514.655 530 c 2
230.878 277 m 1
 364.878 277 l 2
 374.878 277 382.066 292 383.979 301 c 0
 399.071 372 375.897 390 339.897 390 c 0
 309.197 390 258.07 364 230.878 277 c 1
453.318 105 m 1
 465.403 97.4004 477.492 87 474.304 72 c 1
 425.251 20 328.874 -10 256.874 -10 c 0
 194.274 -10 140.939 6.2998 110.439 35 c 0
 68.3564 74.5996 63.5449 139 79.0615 212 c 0
 109.458 355 245.312 439 351.312 439 c 0
 494.312 439 538.096 358 515.139 250 c 0
 512.801 239 504.525 233 493.525 233 c 2
 219.525 233 l 1
 188.28 86 244.328 58 301.328 58 c 0
 356.328 58 410.241 67 453.318 105 c 1
391.422 767.9 m 1
 422.9 656.3 l 2
 424.762 650 426.657 640.1 425.127 632.9 c 0
 423.405 624.8 410.066 618.5 402.866 618.5 c 0
 396.466 618.5 387.144 623.1 376.292 636.5 c 2
 299.579 731 l 1
 303.283 740.9 l 1
 311.405 749 347.005 769.7 375.805 769.7 c 0
 379.805 769.7 388.413 768.8 391.422 767.9 c 1
EndSplineSet
LCarets2: 1 0 
Colour: ff00ff
EndChar

StartChar: uni1E16
Encoding: 7702 7702 151
Width: 584
VWidth: 999
Flags: HW
HStem: -2 29<14 50> 0 39<183.683 419.99> 323 38<182 352.245> 416 20<367 392.5> 605 40<183.485 390.274> 618 28<14 50> 724.5 107.4 733 44<107.088 385.515>
VStem: 101 81<40.3443 323 361 603.225> 106 281<733.205 777> 361 34<252 316.054 403 436> 428.1 154.8 438 29<499.793 534.346> 489 31<128.12 166.129>
LayerCount: 2
Fore
SplineSet
537.302 693 m 2
 263.302 693 l 2
 252.302 693 251.277 707 253.19 716 c 0
 255.741 728 273.055 753 286.055 753 c 2
 562.055 753 l 2
 572.055 753 573.079 739 571.379 731 c 0
 568.615 718 551.302 693 537.302 693 c 2
282.512 200 m 2
 278.897 183 261.618 97 263.517 73 c 1
 397.517 73 554.193 95 554.193 95 c 1
 555.343 91 l 1
 552.643 83 543.777 46 541.652 36 c 0
 539.526 26 537.976 14 536 0 c 1
 533.362 -3 l 1
 517.787 -1 495 0 474 0 c 2
 170 0 l 2
 135 0 84.3623 -3 84.3623 -3 c 1
 84 0 l 1
 103.479 54 122.569 125 138.512 200 c 2
 190.588 445 l 2
 206.529 520 216.983 588 221.099 645 c 1
 223.736 648 l 1
 223.736 648 273.099 645 307.099 645 c 0
 337.099 645 601.099 645 601.099 645 c 2
 622.099 645 645.312 646 661.736 648 c 1
 663.099 645 l 1
 659.123 631 655.36 618 653.659 610 c 0
 651.746 601 647.646 577 646.944 569 c 1
 644.095 565 l 1
 644.095 565 504.646 577 370.646 577 c 1
 358.544 553 338.201 462 334.588 445 c 2
 319.071 372 l 1
 437.071 372 488.134 377 548.196 382 c 1
 550.559 379 l 1
 546.646 370 541.607 351 539.694 342 c 0
 537.781 333 534.53 313 534.617 304 c 1
 530.979 301 l 1
 463.468 308 354.105 311 306.105 311 c 1
 282.512 200 l 2
743.862 963.8 m 1
 761.455 947.3 771.148 918.1 772.628 892.6 c 1
 764.613 880.3 l 1
 639.267 841.5 l 2
 620.955 835.8 613.787 833.6 607.587 833.6 c 0
 601.387 833.6 598.284 847.7 599.963 855.6 c 0
 601.281 861.8 604.127 868.6 615.948 876.7 c 2
 743.862 963.8 l 1
EndSplineSet
LCarets2: 1 0 
Colour: ff00ff
EndChar

StartChar: uni1E17
Encoding: 7703 7703 152
Width: 499
VWidth: 999
Flags: HW
HStem: -10 59<197.345 335.48> 243 44<125 319.997> 399 40<175.584 290.389> 538 44<91.0876 369.515>
VStem: 34 88<132.133 243> 90 281<538.205 582> 320 89<254.5 358.106>
LayerCount: 2
Fore
SplineSet
514.655 530 m 2
 240.655 530 l 2
 229.655 530 228.631 544 230.544 553 c 0
 233.095 565 250.408 590 263.408 590 c 2
 310.708 590 l 2
 310.672 590.3 310.736 590.6 310.8 590.9 c 0
 311.947 596.3 315.27 604.4 321.791 612.5 c 2
 413.251 730.4 l 1
 415.843 731.3 422.434 732.2 426.434 732.2 c 0
 450.434 732.2 470.956 719.6 475.442 710.6 c 1
 479.043 689.9 l 1
 362.382 592.7 l 2
 361.17 591.7 359.879 590.8 358.708 590 c 2
 539.408 590 l 2
 549.408 590 550.433 576 548.732 568 c 0
 545.969 555 528.655 530 514.655 530 c 2
230.878 277 m 1
 364.878 277 l 2
 374.878 277 382.066 292 383.979 301 c 0
 399.071 372 375.897 390 339.897 390 c 0
 309.197 390 258.07 364 230.878 277 c 1
453.318 105 m 1
 465.403 97.4004 477.492 87 474.304 72 c 1
 425.251 20 328.874 -10 256.874 -10 c 0
 194.274 -10 140.939 6.2998 110.439 35 c 0
 68.3564 74.5996 63.5449 139 79.0615 212 c 0
 109.458 355 245.312 439 351.312 439 c 0
 494.312 439 538.096 358 515.139 250 c 0
 512.801 239 504.525 233 493.525 233 c 2
 219.525 233 l 1
 188.28 86 244.328 58 301.328 58 c 0
 356.328 58 410.241 67 453.318 105 c 1
EndSplineSet
LCarets2: 1 0 
Colour: ff00ff
EndChar

StartChar: uni1E18
Encoding: 7704 7704 153
Width: 584
VWidth: 999
Flags: HW
HStem: 0 63<228.662 460.105> 316 51<224 440.426> 575 21<232 506> 587 58<228.662 453.27>
VStem: 96 128<64.202 316 367 585.479> 148 253<-186 -186>
LayerCount: 2
Fore
SplineSet
331.687 -232 m 1
 299.586 -256 l 1
 256.475 -233 228.088 -216 197.952 -179 c 1
 147.663 -218 113.475 -233 64.5859 -256 c 1
 42.6865 -232 l 1
 143.967 -146 154.518 -134 198.72 -86 c 1
 238.72 -86 l 1
 265.242 -140 273.416 -158 331.687 -232 c 1
282.512 200 m 2
 278.897 183 261.618 97 263.517 73 c 1
 397.517 73 554.193 95 554.193 95 c 1
 555.343 91 l 1
 552.643 83 543.777 46 541.652 36 c 0
 539.526 26 537.976 14 536 0 c 1
 533.362 -3 l 1
 517.787 -1 495 0 474 0 c 2
 170 0 l 2
 135 0 84.3623 -3 84.3623 -3 c 1
 84 0 l 1
 103.479 54 122.569 125 138.512 200 c 2
 190.588 445 l 2
 206.529 520 216.983 588 221.099 645 c 1
 223.736 648 l 1
 223.736 648 273.099 645 307.099 645 c 0
 337.099 645 601.099 645 601.099 645 c 2
 622.099 645 645.312 646 661.736 648 c 1
 663.099 645 l 1
 659.123 631 655.36 618 653.659 610 c 0
 651.746 601 647.646 577 646.944 569 c 1
 644.095 565 l 1
 644.095 565 504.646 577 370.646 577 c 1
 358.544 553 338.201 462 334.588 445 c 2
 319.071 372 l 1
 437.071 372 488.134 377 548.196 382 c 1
 550.559 379 l 1
 546.646 370 541.607 351 539.694 342 c 0
 537.781 333 534.53 313 534.617 304 c 1
 530.979 301 l 1
 463.468 308 354.105 311 306.105 311 c 1
 282.512 200 l 2
EndSplineSet
LCarets2: 1 0 
Colour: ff00ff
EndChar

StartChar: uni1E19
Encoding: 7705 7705 154
Width: 499
VWidth: 999
Flags: HW
HStem: -10 68<217.975 371.091> 243 44<161 327.997> 390 49<203.391 308.5>
VStem: 32 126<127.31 243 287 299.028> 93 253<-186 -186> 328 127<254.5 342.567>
LayerCount: 2
Fore
SplineSet
276.687 -232 m 1
 244.586 -256 l 1
 201.475 -233 173.088 -216 142.952 -179 c 1
 92.6631 -218 58.4746 -233 9.58594 -256 c 1
 -12.3135 -232 l 1
 88.9668 -146 99.5176 -134 143.72 -86 c 1
 183.72 -86 l 1
 210.242 -140 218.416 -158 276.687 -232 c 1
230.878 277 m 1
 364.878 277 l 2
 374.878 277 382.066 292 383.979 301 c 0
 399.071 372 375.897 390 339.897 390 c 0
 309.197 390 258.07 364 230.878 277 c 1
453.318 105 m 1
 465.403 97.4004 477.492 87 474.304 72 c 1
 425.251 20 328.874 -10 256.874 -10 c 0
 194.274 -10 140.939 6.2998 110.439 35 c 0
 68.3564 74.5996 63.5449 139 79.0615 212 c 0
 109.458 355 245.312 439 351.312 439 c 0
 494.312 439 538.096 358 515.139 250 c 0
 512.801 239 504.525 233 493.525 233 c 2
 219.525 233 l 1
 188.28 86 244.328 58 301.328 58 c 0
 356.328 58 410.241 67 453.318 105 c 1
EndSplineSet
LCarets2: 1 0 
Colour: ff00ff
EndChar

StartChar: uni1E1A
Encoding: 7706 7706 155
Width: 584
VWidth: 999
Flags: HW
HStem: -164 44<285 372> -116 46<167 258> -77 10 0 63<228.662 460.105> 316 51<224 440.426> 575 21<232 506> 587 58<228.662 453.27>
VStem: 96 128<64.202 316 367 585.479>
LayerCount: 2
Fore
SplineSet
328.406 -111 m 0
 349.406 -111 368.232 -93 388.885 -57 c 1
 422.972 -66 l 1
 395.367 -130 353.378 -177 302.378 -177 c 0
 264.378 -177 252.928 -165 239.329 -149 c 0
 225.73 -133 206.431 -125 188.431 -125 c 0
 159.431 -125 143.604 -143 129.016 -174 c 1
 94.5029 -167 l 1
 123.106 -103 157.672 -58 205.672 -58 c 0
 241.672 -58 260.696 -72 278.295 -88 c 0
 296.106 -103 309.406 -111 328.406 -111 c 0
282.512 200 m 2
 278.897 183 261.618 97 263.517 73 c 1
 397.517 73 554.193 95 554.193 95 c 1
 555.343 91 l 1
 552.643 83 543.777 46 541.652 36 c 0
 539.526 26 537.976 14 536 0 c 1
 533.362 -3 l 1
 517.787 -1 495 0 474 0 c 2
 170 0 l 2
 135 0 84.3623 -3 84.3623 -3 c 1
 84 0 l 1
 103.479 54 122.569 125 138.512 200 c 2
 190.588 445 l 2
 206.529 520 216.983 588 221.099 645 c 1
 223.736 648 l 1
 223.736 648 273.099 645 307.099 645 c 0
 337.099 645 601.099 645 601.099 645 c 2
 622.099 645 645.312 646 661.736 648 c 1
 663.099 645 l 1
 659.123 631 655.36 618 653.659 610 c 0
 651.746 601 647.646 577 646.944 569 c 1
 644.095 565 l 1
 644.095 565 504.646 577 370.646 577 c 1
 358.544 553 338.201 462 334.588 445 c 2
 319.071 372 l 1
 437.071 372 488.134 377 548.196 382 c 1
 550.559 379 l 1
 546.646 370 541.607 351 539.694 342 c 0
 537.781 333 534.53 313 534.617 304 c 1
 530.979 301 l 1
 463.468 308 354.105 311 306.105 311 c 1
 282.512 200 l 2
EndSplineSet
LCarets2: 1 0 
Colour: ff00ff
EndChar

StartChar: uni1E1B
Encoding: 7707 7707 156
Width: 499
VWidth: 999
Flags: HW
HStem: -162 44<235 322> -114 46<117 208> -75 10 -10 68<217.975 371.091> 243 44<161 327.997> 390 49<203.391 308.5>
VStem: 32 126<127.31 243 287 299.028> 328 127<254.5 342.567>
LayerCount: 2
Fore
SplineSet
278.831 -109 m 0
 299.831 -109 318.657 -91 339.31 -55 c 1
 373.396 -64 l 1
 345.793 -128 303.803 -175 252.803 -175 c 0
 214.803 -175 203.354 -163 189.754 -147 c 0
 176.155 -131 156.855 -123 138.855 -123 c 0
 109.855 -123 94.0293 -141 79.4404 -172 c 1
 44.9277 -165 l 1
 73.5322 -101 108.097 -56 156.097 -56 c 0
 192.097 -56 211.121 -70 228.72 -86 c 0
 246.532 -101 259.831 -109 278.831 -109 c 0
230.878 277 m 1
 364.878 277 l 2
 374.878 277 382.066 292 383.979 301 c 0
 399.071 372 375.897 390 339.897 390 c 0
 309.197 390 258.07 364 230.878 277 c 1
453.318 105 m 1
 465.403 97.4004 477.492 87 474.304 72 c 1
 425.251 20 328.874 -10 256.874 -10 c 0
 194.274 -10 140.939 6.2998 110.439 35 c 0
 68.3564 74.5996 63.5449 139 79.0615 212 c 0
 109.458 355 245.312 439 351.312 439 c 0
 494.312 439 538.096 358 515.139 250 c 0
 512.801 239 504.525 233 493.525 233 c 2
 219.525 233 l 1
 188.28 86 244.328 58 301.328 58 c 0
 356.328 58 410.241 67 453.318 105 c 1
EndSplineSet
LCarets2: 1 0 
Colour: ff00ff
EndChar

StartChar: uni1E1C
Encoding: 7708 7708 157
Width: 584
VWidth: 999
Flags: HW
HStem: -181 25<194.656 291.938> -80 32<264.312 301.156> 0 54<186.656 409.594> 321 42<182 388.188> 596 49<186.656 403.188> 692 52<221 377>
VStem: 96 86<55.2087 321 363 594.385> 164 28<765 803> 308 53<-146.949 -84.278> 408 27<767 805>
DStem2: 215 -80 264 -51 0.397156 0.917751<46.0754 95.3334>
LayerCount: 2
Fore
SplineSet
204.444 -92 m 1
 194.208 -79 l 1
 246.8 0 l 1
 170 0 l 2
 135 0 84.3623 -3 84.3623 -3 c 1
 84 0 l 1
 103.479 54 122.569 125 138.512 200 c 2
 190.588 445 l 2
 206.529 520 216.983 588 221.099 645 c 1
 223.736 648 l 1
 223.736 648 273.099 645 307.099 645 c 0
 337.099 645 601.099 645 601.099 645 c 2
 622.099 645 645.312 646 661.736 648 c 1
 663.099 645 l 1
 659.123 631 655.36 618 653.659 610 c 0
 651.746 601 647.646 577 646.944 569 c 1
 644.095 565 l 1
 644.095 565 504.646 577 370.646 577 c 1
 358.544 553 338.201 462 334.588 445 c 2
 319.071 372 l 1
 437.071 372 488.134 377 548.196 382 c 1
 550.559 379 l 1
 546.646 370 541.607 351 539.694 342 c 0
 537.781 333 534.53 313 534.617 304 c 1
 530.979 301 l 1
 463.468 308 354.105 311 306.105 311 c 1
 282.512 200 l 2
 278.897 183 261.618 97 263.517 73 c 1
 397.517 73 554.193 95 554.193 95 c 1
 555.343 91 l 1
 552.643 83 543.777 46 541.652 36 c 0
 539.526 26 537.976 14 536 0 c 1
 533.362 -3 l 1
 517.787 -1 495 0 474 0 c 2
 292.3 0 l 1
 265.647 -44 l 1
 331.647 -44 342.57 -82 337.257 -107 c 0
 327.904 -151 276.103 -183 217.103 -183 c 0
 187.103 -183 173.527 -181 143.716 -166 c 1
 166.367 -130 l 1
 185.667 -138 198.604 -143 220.604 -143 c 0
 244.604 -143 268.58 -129 272.193 -112 c 0
 274.957 -99 266.933 -85 248.933 -85 c 0
 232.933 -85 216.295 -88 204.444 -92 c 1
657.518 981 m 1
 635.427 910 554.311 853 481.311 853 c 0
 401.311 853 349.639 911 358.518 981 c 1
 391.219 989 l 1
 392.991 955 440.315 933 498.315 933 c 0
 552.315 933 613.991 955 629.219 989 c 1
 657.518 981 l 1
EndSplineSet
LCarets2: 1 0 
Colour: ff00ff
EndChar

StartChar: uni1E1D
Encoding: 7709 7709 158
Width: 499
VWidth: 999
Flags: HW
HStem: -186 25<148.659 245.933> -85 32<218.31 255.165> -10 59<197.345 335.48> 243 44<125 319.997> 399 40<175.584 290.389> 501 57<150.968 287.898>
VStem: 34 88<132.133 243> 85 26<607.805 639.769> 262 53<-151.949 -89.278> 320 89<254.5 358.106> 328 27<609.333 639.63>
DStem2: 169 -85 218 -56 0.397156 0.917751<46.0754 95.3334>
LayerCount: 2
Fore
SplineSet
155.382 -97 m 1
 145.146 -84 l 1
 197.901 -4.7002 l 1
 161.268 2.2002 130.759 15.7998 110.439 35 c 0
 68.3564 74.5996 63.5449 139 79.0615 212 c 0
 109.458 355 245.312 439 351.312 439 c 0
 494.312 439 538.096 358 515.139 250 c 0
 512.801 239 504.525 233 493.525 233 c 2
 219.525 233 l 1
 188.28 86 244.328 58 301.328 58 c 0
 356.328 58 410.241 67 453.318 105 c 1
 465.403 97.4004 477.492 87 474.304 72 c 1
 425.251 20 328.874 -10 256.874 -10 c 0
 251.274 -10 245.796 -9.90039 240.359 -9.59961 c 1
 216.585 -49 l 1
 282.585 -49 293.508 -87 288.193 -112 c 0
 278.841 -156 227.039 -188 168.039 -188 c 0
 138.039 -188 124.465 -186 94.6523 -171 c 1
 117.305 -135 l 1
 136.604 -143 149.542 -148 171.542 -148 c 0
 195.542 -148 219.518 -134 223.131 -117 c 0
 225.895 -104 217.87 -90 199.87 -90 c 0
 183.87 -90 167.232 -93 155.382 -97 c 1
230.878 277 m 1
 364.878 277 l 2
 374.878 277 382.066 292 383.979 301 c 0
 399.071 372 375.897 390 339.897 390 c 0
 309.197 390 258.07 364 230.878 277 c 1
263.8 653 m 1
 254.321 599 290.095 565 353.095 565 c 0
 400.095 565 462.195 589 478.8 653 c 1
 507.611 638 l 1
 475.293 533 389.216 495 338.216 495 c 0
 257.216 495 217.394 557 227.611 638 c 1
 263.8 653 l 1
EndSplineSet
LCarets2: 1 0 
Colour: ff00ff
EndChar

StartChar: uni1E1E
Encoding: 7710 7710 159
Width: 539
VWidth: 999
Flags: HW
HStem: -3 21<88 141 141 194> 317 50<184 398.78> 589 56<188.662 413.27> 729 104<244.542 327.458>
VStem: 98 86<2.67992 317 367 587.818> 234 104<739.542 822.458>
LayerCount: 2
Fore
SplineSet
600.099 645 m 2
 624.099 645 647.312 646 663.736 648 c 1
 665.099 645 l 1
 661.123 631 657.36 618 655.659 610 c 0
 653.746 601 649.646 577 648.944 569 c 1
 646.095 565 l 1
 646.095 565 506.646 577 372.646 577 c 1
 360.544 553 340.201 462 336.588 445 c 2
 321.071 372 l 1
 439.071 372 490.134 377 550.196 382 c 1
 552.559 379 l 1
 548.646 370 543.607 351 541.694 342 c 0
 539.781 333 536.53 313 536.617 304 c 1
 532.979 301 l 1
 465.468 308 356.105 311 308.105 311 c 1
 284.512 200 l 2
 268.569 125 256.115 57 252 0 c 1
 249.362 -3 l 1
 249.362 -3 206 0 172 0 c 0
 137 0 86.3623 -3 86.3623 -3 c 1
 86 0 l 1
 105.479 54 124.569 125 140.512 200 c 2
 192.588 445 l 2
 208.529 520 218.983 588 223.099 645 c 1
 225.736 648 l 1
 225.736 648 275.099 645 309.099 645 c 2
 600.099 645 l 2
EndSplineSet
LCarets2: 1 0 
Colour: ff00ff
EndChar

StartChar: uni1E1F
Encoding: 7711 7711 160
Width: 376
VWidth: 999
Flags: HW
HStem: -3 21<83 133 133 183> 385 44<22 93 173 289> 638 60<212.167 319.107> 729 104<194.542 277.458>
VStem: 93 80<2.67975 385 429 572.061> 184 104<739.542 822.458>
LayerCount: 2
Fore
SplineSet
300.698 629 m 0
 352.029 672.9 428.364 698 508.364 698 c 0
 527.364 698 554.515 694 561.451 689 c 1
 561.813 686 l 1
 546.775 667 530.085 612 517.346 585 c 1
 487.133 584 l 1
 480.384 604 471.698 629 442.698 629 c 0
 388.698 629 351.451 590.2 339.718 535 c 0
 335.041 513 329.732 464.5 324.312 439 c 2
 322.187 429 l 1
 430.187 429 l 2
 435.187 429 437.762 427 436.911 423 c 2
 431.173 396 l 2
 429.26 387 414.409 383 405.409 383 c 2
 312.409 383 l 1
 273.512 200 l 2
 257.569 125 244.328 58 239 0 c 1
 236.362 -3 l 1
 236.362 -3 196.3 0 162 0 c 0
 127 0 86.3623 -3 86.3623 -3 c 1
 86 0 l 1
 103.841 51 119.569 125 135.512 200 c 2
 174.409 383 l 1
 108.409 383 l 2
 104.409 383 103.622 384 104.685 389 c 2
 108.936 409 l 2
 110.636 417 118.187 429 136.187 429 c 2
 184.187 429 l 1
 190.563 459 l 2
 203.529 520 246.921 583 300.698 629 c 0
EndSplineSet
LCarets2: 1 0 
Colour: ff00ff
EndChar

